<?xml version="1.0" encoding="UTF-8" standalone="no"?>
<svg width="61px" height="62px" viewBox="0 0 61 62" version="1.1" xmlns="http://www.w3.org/2000/svg" xmlns:xlink="http://www.w3.org/1999/xlink" xmlns:sketch="http://www.bohemiancoding.com/sketch/ns">
    <!-- Generator: Sketch 3.3.2 (12043) - http://www.bohemiancoding.com/sketch -->
    <title>Ella</title>
    <desc>Created with Sketch.</desc>
    <defs></defs>
    <g id="Home" stroke="none" stroke-width="1" fill="none" fill-rule="evenodd" sketch:type="MSPage">
        <g id="sfr-130-the-kitchen-home-dr5" sketch:type="MSArtboardGroup" transform="translate(-409.000000, -1259.000000)" fill="#FFFFFF">
            <g id="Footer" sketch:type="MSLayerGroup" transform="translate(0.000000, 924.000000)">
                <g id="Ella" transform="translate(409.000000, 335.000000)" sketch:type="MSShapeGroup">
                    <path d="M14.2365403,55.2355933 L12.2219027,55.7814 C10.875604,56.3476667 9.49409732,56.8554467 8.24421141,57.8057 C6.94683557,58.3515067 5.50617114,61.2128067 6.40336242,61.8826133 L6.8625,60.59942 L6.87519128,61.1619667 L7.04079195,60.6684467 L7.09135235,61.0255667 L7.19001678,60.3683667 C7.15439933,60.2361 7.24405705,59.7584933 7.40699664,59.73762 L7.33801342,60.81084 L7.44875503,60.5444467 L7.4931745,61.00862 L7.67085235,60.3419133 L8.11177181,59.9393267 C8.00717114,60.1581867 7.71772819,60.3601 7.81455034,60.5957 L8.01310738,60.3601 L8.02702685,60.40226 L8.1635604,60.3074 L8.21882886,60.35142 L8.23152013,60.3074 L8.75820805,59.80706 L9.94463758,59.0428067 L11.7128188,58.2397 C12.7031477,57.4678 13.9524195,56.9769667 15.1896141,56.6820533 C17.5401611,56.1761333 19.7341141,55.85332 22.0592785,55.7983467 L26.3477013,55.5455933 C27.3607517,55.3401667 29.4642282,55.4120867 30.3157718,54.96114 C29.1410101,55.1934333 27.8829362,55.13288 26.7094027,55.1206867 L32.5860772,54.3669733 C28.4806544,54.8276333 24.393245,54.84458 20.4266074,54.48002 C25.6304396,54.1288933 32.2190537,54.3647 37.2269899,53.1497067 L38.354057,52.7562133 C33.3725268,54.3779267 26.9488993,53.8056667 21.5886779,54.0425067 C19.1599362,54.2818267 16.6560705,54.3647 14.2365403,55.2355933" id="Fill-1"></path>
                    <path d="M53.0251711,1.61034667 C42.8046007,1.61034667 31.9416879,11.43776 21.5393456,30.0090333 C21.8210101,29.4756267 22.1086107,28.9469733 22.404604,28.42824 C24.6712248,24.49496 26.6672349,20.8619667 29.1215638,17.2628667 C30.5620235,15.18132 32.2814866,12.88608 33.9941946,10.89092 C35.2131711,9.38928 38.0621577,6.76337333 39.3359933,5.72818 C37.6060906,7.08288 35.8905168,8.65292667 34.3947886,10.2372333 C37.2310839,7.00042 40.7836174,4.16061333 44.6665336,2.41345333 C37.0288423,5.81808 31.5797819,12.8108533 27.2731409,19.1546933 C29.8163087,15.1110533 33.0902483,10.6175 37.2050872,7.04154667 C41.2701846,3.41351333 46.3176275,1.0695 50.9542416,0.362286667 C51.6569698,0.244486667 52.4415772,0.141153333 53.0360201,0.06944 C48.3811879,0.453426667 43.2121544,2.25659333 38.9345805,5.55561333 C34.6148389,8.79015333 31.1253523,13.1218867 28.397547,17.1886733 C25.9110805,20.9591 23.650396,24.88742 21.443547,28.9374667 C20.8351846,30.03218 20.2341913,31.1378467 19.6413859,32.2459933 C18.4271174,34.5187067 17.2355705,36.8249 16.1007248,39.1360533 C15.8258154,39.6926067 15.494,40.36696 15.156453,41.0716933 C14.9230973,41.4412133 14.6631309,41.82396 14.4037785,42.2127 C14.2111577,42.48116 13.4048523,43.63312 13.9769832,42.8105867 C11.6235705,46.0122667 12.8308792,44.4108067 11.1488758,46.4241533 L10.7353859,46.86766 C10.1511779,47.46658 10.119245,47.6077333 8.88634899,48.71092 C8.64623826,48.9151067 8.20818456,49.2904133 9.03004698,48.5749333 C7.45284899,49.9345933 6.08403356,50.85302 4.82493624,51.0026467 C4.55248322,51.0195933 4.22803691,50.9077867 4.08372483,50.77552 C3.94903356,50.6647467 3.78875503,50.4969333 3.66962081,50.2687733 C3.7515,50.4496067 3.64444295,50.22 3.66962081,50.2687733 C3.63359396,50.1885867 3.60780201,50.1081933 3.59019799,50.0282133 C3.46860738,49.5762333 3.60534564,48.7169133 3.67391946,48.4618867 C3.67391946,48.4618867 4.21247987,48.1835067 4.34184899,48.1142733 C4.36948322,48.0888533 4.39118121,48.08286 4.40980872,48.0888533 C4.41594966,48.0925733 4.42311409,48.0948467 4.42905034,48.0998067 C4.46528188,48.1471333 4.53979195,48.2128533 4.55616779,48.2236 C4.5549396,48.2225667 4.55309732,48.2151267 4.55248322,48.2128533 C4.5651745,48.2236 4.5651745,48.2151267 4.55616779,48.20438 C4.57950336,48.22608 4.57950336,48.22608 4.55616779,48.20314 C4.55248322,48.1959067 4.54531879,48.1835067 4.53631208,48.1737933 C4.52177852,48.1446533 4.49844295,48.1117933 4.47060403,48.0888533 C4.47244631,48.0876133 4.47613087,48.0851333 4.48206711,48.08286 C4.53508389,48.0572333 4.47961074,47.9977133 4.52894295,48.0559933 C4.54879866,48.08162 4.59649329,48.1252267 4.63067785,48.14238 C4.62474161,48.1351467 4.61819128,48.1264667 4.60836577,48.1117933 C4.61921477,48.1215067 4.62883557,48.12874 4.636,48.1363867 C4.63722819,48.1399 4.63968456,48.14362 4.64091275,48.1471333 C4.64459732,48.1483733 4.64869128,48.1496133 4.65053356,48.1496133 C4.65769799,48.1508533 4.66138255,48.1496133 4.66383893,48.1446533 C4.6660906,48.1471333 4.67223154,48.1483733 4.67775839,48.1496133 L4.66383893,48.1351467 C4.66383893,48.1326667 4.66383893,48.13122 4.66138255,48.1275 C4.66977517,48.1351467 4.67878188,48.14362 4.68553691,48.1496133 C4.68430872,48.1533333 4.68430872,48.1543667 4.68123826,48.1556067 L4.68553691,48.1556067 C4.68553691,48.1556067 4.69392953,48.1568467 4.69618121,48.1568467 L4.68553691,48.1605667 C4.69618121,48.1605667 4.68553691,48.16656 4.69392953,48.16532 L4.70355034,48.16532 C4.70641611,48.16656 4.7076443,48.17028 4.71317114,48.16532 L4.72811409,48.16656 C4.72156376,48.16656 4.73241275,48.1605667 4.73302685,48.1593267 C4.73241275,48.1580867 4.72995638,48.1580867 4.72872819,48.1568467 C4.73179866,48.1580867 4.73364094,48.1568467 4.73609732,48.1580867 C4.72524832,48.14362 4.73425503,48.1130333 4.73834899,48.0973267 C4.74326174,48.0731467 4.74203356,48.04876 4.74326174,48.02458 C4.74448993,47.9977133 4.74919799,47.9720867 4.75226846,47.9454267 C4.75349664,47.9319933 4.75533893,47.92724 4.74694631,47.92104 C4.74448993,47.92104 4.73425503,47.9200067 4.7076443,47.9175267 L4.71317114,47.9162867 C4.72033557,47.9175267 4.73179866,47.9187667 4.74326174,47.9187667 C4.73425503,47.9162867 4.71910738,47.9162867 4.71317114,47.9150467 L4.90988591,47.802 C5.58559396,47.4167733 6.44266443,46.8920467 7.68272483,46.0050333 C7.6761745,46.0087533 7.66901007,46.0147467 7.66102685,46.0195 C7.67146644,46.0135067 7.68047315,46.0062733 7.68947987,46.00028 C8.62699664,45.3633333 9.55898658,44.62946 10.2082886,43.8433 C10.2119732,43.84082 10.2142248,43.8373067 10.2166812,43.8348267 C10.324557,43.7145467 10.4176946,43.5967467 10.5020302,43.48246 C10.6019228,43.35846 10.6872819,43.21896 10.7607685,43.0740867 C10.7765302,43.0439133 10.7933154,43.0133267 10.8088725,42.9806733 C10.892594,42.84324 10.9147013,42.7680133 10.8594329,42.8725867 C10.9832752,42.5904867 11.0428423,42.32678 11.0669966,42.0765067 C11.0682248,42.0655533 11.0688389,42.0560467 11.0700671,42.0438533 C11.0731376,42.0097533 11.0753893,41.97586 11.0766174,41.94176 C11.0778456,41.9248133 11.0809161,41.90642 11.0809161,41.8894733 C11.0821443,41.9151 11.0821443,41.93928 11.0809161,41.96594 C11.0833725,41.9223333 11.0833725,41.87852 11.0821443,41.8359467 C11.0821443,41.82148 11.0821443,41.8080467 11.0809161,41.7933733 C11.0809161,41.78738 11.0821443,41.78242 11.0821443,41.7776667 L11.0809161,41.7776667 C11.0796879,41.7338533 11.0760034,41.6939667 11.0712953,41.6561467 C10.9810235,40.7484667 10.2023523,40.3839067 9.47608389,40.2880133 C9.45970805,40.2855333 9.44415101,40.28202 9.42797987,40.27954 C9.44046644,40.27954 9.45438591,40.27954 9.46810067,40.28202 C9.4345302,40.2783 9.40075503,40.2735467 9.36718456,40.2710667 C9.34425839,40.2685867 9.32010403,40.2673467 9.29717785,40.2661067 C9.35142282,40.2661067 9.40566779,40.2673467 9.45970805,40.2723067 C9.43923826,40.2698267 9.41754027,40.2661067 9.39584228,40.2648667 C9.31785235,40.24916 9.23720134,40.25164 9.15532215,40.2601133 C9.13608054,40.2601133 9.11622483,40.2611467 9.09677852,40.2611467 C9.08429195,40.2611467 9.07221477,40.2601133 9.06013758,40.2601133 L9.06013758,40.2623867 C8.84847987,40.2648667 8.62863423,40.2964867 8.4073557,40.3572467 C8.29722819,40.3572467 8.18525839,40.3634467 8.07697315,40.39734 C7.61353691,40.5298133 7.17179866,40.82142 6.81808054,41.21264 C6.3943557,41.5116867 5.91536242,41.8070133 5.46297987,42.1616533 L5.58313758,42.0655533 C5.38478523,42.2116667 5.04641946,42.4702067 4.68615101,42.7535467 L4.83107718,42.63678 C4.75411074,42.69878 4.67591611,42.76078 4.59649329,42.82278 C4.57233893,42.84324 4.54879866,42.8628733 4.52362081,42.8823 C3.81884564,43.4423667 3.12819463,43.9929267 2.49444966,44.5930867 C2.47459396,44.62326 2.45780872,44.6501267 2.48298658,44.6317333 C2.37715772,44.7375467 2.27849329,44.8361267 2.18392282,44.9330533 C2.28442953,44.8167 2.35791611,44.7340333 2.41195638,44.6745133 C1.97410738,45.0961133 1.56491611,45.5468533 1.19645973,46.04616 C1.22184228,46.01826 1.24456376,45.9926333 1.26994631,45.9637 C0.885932886,46.4532933 0.695768456,46.7849933 0.441942953,47.0828 C0.33242953,47.23098 0.226395973,47.3866 0.131416107,47.59058 C0.0978456376,47.6914333 0.0350033557,47.8226667 0.118110738,47.9636133 C0.253006711,48.07666 0.42495302,47.988 0.535694631,47.88818 C0.785016779,47.6901933 0.984187919,47.3744067 1.21631544,46.98918 C1.30842953,46.83976 1.4034094,46.6744267 1.50821477,46.50062 C1.50330201,46.50558 1.49920805,46.5115733 1.49552349,46.5175667 C1.43124832,46.62462 1.36922483,46.7316733 1.31334228,46.8238467 C1.08940268,47.1958467 0.978661074,47.3719267 1.26155369,46.903 C1.34507047,46.77528 1.50698658,46.4642467 1.5761745,46.38282 C1.57269463,46.3912933 1.5761745,46.38654 1.58518121,46.3718667 C1.59009396,46.3683533 1.59234564,46.3658733 1.59541611,46.3633933 C1.5966443,46.36112 1.60032886,46.3574 1.59971477,46.36112 C1.60217114,46.36112 1.60503691,46.36112 1.60503691,46.3621533 C1.51312752,46.5795667 1.37577517,46.84472 1.2603255,47.0730867 C0.673661074,48.22484 0.440714765,49.4264 0.893097315,50.7036 C1.04375503,51.1278867 1.30597315,51.66832 2.04738926,51.8919333 L2.05209732,51.9016467 C3.01192617,52.1434467 3.57279866,51.9309933 3.89601678,51.9148733 C4.22680872,51.8677533 4.33652685,51.8179467 4.43989933,51.7983133 C4.62760738,51.71358 4.83537584,51.8094733 6.42035235,51.06196 C5.98168456,51.2855733 5.52909732,51.4837667 5.05849664,51.6319467 C5.6218255,51.4571067 6.161,51.2140667 6.67786242,50.9319667 C8.1539396,50.0924867 8.66486577,49.6343067 9.93870134,48.4437 C9.85334228,48.5226467 10.3792114,48.01714 11.3576678,46.89928 C12.1248758,46.0062733 10.9490906,47.41202 12.5125738,45.5323867 C12.1664295,45.96618 11.7873289,46.4363467 11.0753893,47.2285 C11.0170503,47.2964933 10.8076443,47.5358133 10.6958792,47.66002 C11.3638087,46.92842 12.2495369,45.9138933 12.8284228,45.14716 C12.7651711,45.22838 12.7080604,45.30278 12.6665067,45.3550667 C13.3964597,44.4349867 13.9278557,43.3876 14.5380604,42.3902267 C14.5300772,42.4059333 14.5216846,42.42288 14.5145201,42.4385867 C14.4772651,42.5018267 14.4398054,42.5687867 14.400094,42.63554 C14.4398054,42.5687867 14.4748087,42.5080267 14.5102215,42.44458 C13.8410638,43.9053 13.2699564,45.2662 13.2159161,45.7777 C13.515594,45.16762 13.8115872,44.48128 14.1149497,43.8871133 C14.0787181,43.99892 14.0439195,44.1107267 14.0101443,44.2210867 C13.9644966,44.3415733 13.9186443,44.4618533 13.8676745,44.5821333 C13.8940805,44.5286067 13.9223289,44.4728067 13.9499631,44.4168 C13.9440268,44.4349867 13.9378859,44.4506933 13.934406,44.4703267 C13.8670604,44.6366933 13.6046376,45.6076133 13.557557,45.7692267 C13.3573624,46.6647133 13.021453,47.8201867 13.380698,49.011 C13.5553054,49.61488 14.1186342,50.0621067 14.8502248,49.9926667 C15.9496577,49.8880933 16.8738691,48.9915733 17.2765101,48.65016 C19.0113255,47.0875533 20.424151,45.5906667 22.4105403,43.6635 C22.5959966,43.4775 22.7632349,43.2745533 22.940094,43.0815267 C22.940094,43.0815267 23.678849,42.0887 23.682943,42.08374 C23.2276946,43.26732 22.7603691,44.5007067 22.5810537,45.4801 C22.3577282,46.6986067 22.5165738,47.92228 23.9564195,47.86648 C24.0370705,47.8542867 24.1664396,47.84106 24.3492349,47.82866 C24.5629396,47.7972467 24.7791007,47.74868 24.994443,47.68544 C25.0793926,47.6635333 25.1610671,47.6391467 25.2441745,47.6102133 C25.3164329,47.5845867 25.390943,47.5554467 25.4693423,47.5250667 C25.4501007,47.5323 25.4277886,47.5395333 25.4077282,47.5494533 C25.4312685,47.5382933 25.4564463,47.52982 25.482443,47.5201067 C25.4982047,47.5128733 25.5137617,47.50688 25.5301376,47.50068 C25.5540872,47.4909667 25.5792651,47.4812533 25.6040336,47.47154 C25.4848993,47.5213467 25.3669933,47.5686733 25.2441745,47.6102133 C25.2261611,47.6174467 25.2081477,47.62344 25.1917718,47.6294333 C25.5252248,47.5188667 25.9000268,47.3671733 26.2852685,47.1605067 C26.1497584,47.22726 26.0191611,47.29174 25.8922483,47.34754 C26.0793423,47.25888 26.2637752,47.16526 26.4439094,47.0706067 C26.3925302,47.1022267 26.3393087,47.1313667 26.2852685,47.1605067 C26.7618054,46.9174667 27.2780537,46.6064333 27.7504966,46.2152133 C29.1418289,45.1566667 30.177396,43.7302533 30.2621409,43.6490333 C30.5167852,43.3487467 30.7591477,43.0389533 31.0013054,42.7289533 C30.7935369,42.9941067 30.7609899,43.0389533 30.5552685,43.30142 C31.177755,42.5322067 31.425849,42.1509067 31.6950268,41.8154867 L31.6858154,41.8347067 C31.6131477,41.96842 31.5449832,42.12032 31.4571678,42.30012 C31.3065101,42.66344 31.0565738,43.1336067 30.9566812,43.8774 C30.916151,44.3388867 30.9849295,44.72432 31.0506376,44.9551667 C31.046953,44.9466933 31.0414262,44.9407 31.0365134,44.92954 C31.2293389,45.6937933 31.968094,46.20426 32.7209732,46.2577867 C32.9782785,46.2757667 33.0783758,46.2734933 33.1391711,46.2734933 C34.1229497,46.2443533 35.0578054,45.7692267 35.8682047,45.24078 L35.8452785,45.2564867 C36.2718691,44.9903 37.1522752,44.2770933 37.5465235,43.8918667 C38.1970537,43.2869533 37.2210537,44.1981467 37.3893154,44.0412867 C37.865443,43.6099733 38.318849,43.14952 38.7474866,42.66592 C39.2289362,42.1093667 38.3833289,43.14952 37.4441745,43.99892 C37.9747517,43.5250333 38.2373792,43.24438 38.6342886,42.8118267 C38.8582282,42.5638267 39.1190134,42.26602 39.4643389,41.8262333 C39.4862416,41.7983333 39.5058926,41.75948 39.534755,41.73778 C39.5095772,41.8057733 39.4715034,41.8688067 39.443255,41.9345267 C39.3879866,42.06452 39.3347651,42.1967867 39.2919832,42.3319467 C39.2680336,42.4084133 39.2500201,42.4871533 39.2332349,42.5663067 C39.1505369,42.94182 39.1456242,43.3208467 39.1456242,43.3208467 C39.1456242,43.5798 39.2236141,44.77888 40.4190503,44.7741267 C40.7240503,44.7728867 41.0515671,44.68402 41.2454161,44.62946 C41.4890067,44.5602267 41.7268658,44.4728067 41.9606309,44.3779467 C41.9722987,44.3948933 43.0066376,43.9513867 44.0628792,43.0439133 L43.9941007,43.1081867 C45.1140034,42.1093667 44.9883188,42.14822 45.5772349,41.4932933 C46.6531275,40.21506 46.8586443,39.9356467 47.1089899,39.6330867 C48.7432987,37.5164067 45.976396,41.0936 47.9032181,38.5795 C48.2243893,38.13124 48.5662349,37.7290667 48.7033826,37.22232 C48.7484161,37.10948 48.6878255,36.9003333 48.5209966,36.9075667 C48.3775034,36.9075667 48.272698,36.98796 48.1631846,37.0497533 C47.9593054,37.19442 47.780604,37.3694667 47.6250336,37.5722067 C47.0469664,38.3961867 46.5956074,39.3621467 45.7532752,40.3925867 C45.6988255,40.45562 45.6531779,40.5103867 45.6081443,40.5601933 C45.5989329,40.5736267 45.5856275,40.5856133 45.5696611,40.60752 C45.2759195,40.9576133 44.9504497,41.2843533 44.6204765,41.60138 C44.3758624,41.8299533 44.451396,41.7547267 44.4902886,41.7169067 C43.617047,42.4714467 44.4585604,41.8334667 43.0168725,42.9333467 C42.9135,42.9744733 42.6547617,43.20284 42.253349,43.14952 C41.7467215,43.0315133 42.0981879,42.3220267 42.2478221,41.8371867 C42.6258993,40.7387533 43.2172718,39.48966 43.7505101,38.48712 C44.0121141,37.9962867 43.6283054,38.72892 43.7114128,38.57826 C44.9803356,36.1288467 44.978698,36.1736933 45.7667852,34.6185267 C45.8163221,34.5298667 45.8644262,34.44472 45.9102785,34.3657733 C45.983151,34.23454 46.0365772,34.1177733 46.072604,34.01444 C46.0846812,33.99274 46.0961443,33.9708333 46.1074027,33.9476867 C46.1718826,33.7885533 46.1510034,33.5285667 45.9332047,33.48 C45.7532752,33.44094 45.5696611,33.4580933 45.3913691,33.47876 C45.2181946,33.5101733 45.0411309,33.5479933 44.8716409,33.59904 C44.7320369,33.6438867 44.5785134,33.71684 44.5037987,33.7544533 C44.0121141,33.98902 43.3648591,34.71566 42.8561846,35.44602 C42.863349,35.4361 42.8703087,35.4288667 42.8766544,35.4203933 C42.8666242,35.4313467 42.8598691,35.44354 42.8514765,35.4532533 L42.8183154,35.49934 C42.802349,35.5249667 42.7835168,35.5503867 42.7634564,35.5770467 C42.7618188,35.5807667 42.761,35.5844867 42.7562919,35.58676 L42.6690906,35.7097267 C43.0621107,35.1227933 43.4839933,34.6148067 43.3875805,34.7253733 C43.2876879,34.8491667 43.1061208,35.0729867 42.9135,35.3402067 C42.9597617,35.2734533 42.9790034,35.2465867 42.9454329,35.2926733 C42.887094,35.3705867 42.7122819,35.6111467 42.4555906,36.0011267 C42.4521107,36.01208 42.4428993,36.0364667 42.4463792,36.0377067 L42.5843456,35.83352 C42.5716544,35.8554267 42.558349,35.8736133 42.5477047,35.89428 C42.5155671,35.9416067 42.4832248,35.9914133 42.4508826,36.0401867 C42.447198,36.0389467 42.447198,36.0389467 42.4463792,36.0377067 C42.4265235,36.04494 42.3804664,36.2137867 42.3804664,36.0534133 C42.3804664,36.0546533 42.382104,36.0606467 42.3845604,36.0606467 C42.3845604,36.0255133 42.382104,35.9817 42.3804664,35.9391267 C42.3784195,35.9318933 42.3784195,35.92714 42.3749396,35.92218 C42.3704362,35.8103733 42.3544698,35.6962933 42.3284732,35.5770467 C42.3356376,35.59668 42.3417785,35.61962 42.3464866,35.6402867 C42.366547,35.7301867 42.3763725,35.8407533 42.3804664,35.9391267 C42.3868121,35.9538 42.382104,35.7618067 42.3681846,35.65372 C42.355698,35.6014333 42.3513993,35.5479067 42.3317483,35.4981 C42.2961309,35.29536 42.2173221,35.1021267 42.1106745,34.92708 C42.0850872,34.8882267 42.0625705,34.8578467 42.0595,34.8530933 C41.8318758,34.53462 41.4912584,34.2988133 41.1035604,34.2173867 C40.4786174,34.0948333 39.700151,34.1555933 38.767547,34.50176 C38.2697215,34.68652 36.9019295,35.3937333 35.724302,36.5345333 C35.1388658,37.09956 34.5217013,37.70716 33.8599128,38.4410333 C33.6451846,38.6621667 33.4449899,38.8797867 33.2650604,39.0862467 C33.4220638,38.91492 33.5817282,38.7435933 33.7415973,38.5722667 C33.5833658,38.7508267 33.4224732,38.9331067 33.2595336,39.12758 C33.2102013,39.1798667 33.1631208,39.2309133 33.1174732,39.2747267 C32.8603725,39.5419467 32.6053188,39.90878 32.3993926,40.2260133 C32.8149295,39.57956 32.4169966,40.1786867 32.4395134,40.12888 C32.6442114,39.8347933 32.9219866,39.4776733 33.2650604,39.0862467 C33.1815436,39.1786267 33.0959799,39.2697667 33.0134866,39.3621467 C33.0507416,39.2747267 32.4714463,40.0024 31.9560168,40.8797 C31.9797617,40.85056 31.9932718,40.8311333 32.0037114,40.8166667 C31.9320671,40.9160733 31.5934966,41.39616 31.2504228,42.0486067 C30.6232282,42.8566733 29.7880604,43.8833933 29.1983255,44.4168 C28.6421611,44.9551667 28.0683926,45.4046667 27.142953,46.00028 C26.8586275,46.1641667 26.273396,46.4034867 25.9366678,46.29912 C25.4795772,46.1554867 25.5620705,45.60286 25.622047,45.2259 C25.933802,43.3171267 26.8262852,41.7654733 27.5017886,40.1884 C27.8761812,39.31358 28.3414597,38.8396933 28.7965034,38.40962 C33.171104,33.99274 41.2059094,27.1828667 46.6207852,20.8838733 C49.0951745,18.00418 50.8473893,15.6614067 50.8473893,13.2287333 C50.8473893,11.7233733 49.5037517,10.98702 48.2751544,10.98702 C48.152745,10.98702 47.6274899,11.0126467 47.5095839,11.0318667 C47.1325302,11.1132933 46.7886376,11.20092 46.4621443,11.3017733 C46.4005302,11.32244 46.3552919,11.3381467 46.3301141,11.34538 C46.3712584,11.3309133 46.4132215,11.31872 46.4541611,11.3040467 C45.3553423,11.6469067 44.4466879,12.1449733 43.1216779,13.0016067 C42.5200705,13.40502 41.4409027,14.36974 41.3766275,14.4852667 C41.8435436,14.0368 42.1178389,13.80368 42.1737215,13.76834 C42.0070973,13.91652 41.8367886,14.06718 41.6765101,14.22404 C41.2738691,14.6237333 40.8724564,15.04058 40.4769799,15.4694133 L40.5046141,15.4377933 L40.1779161,15.7866467 L40.1996141,15.7732133 C39.843849,16.1607133 39.4911544,16.5593733 39.1409161,16.9627867 C38.9974228,17.1291533 38.8750134,17.27134 38.7835134,17.3843867 C38.7059329,17.4755267 38.627943,17.5666667 38.5495436,17.66256 C38.2824128,17.96388 39.7885805,16.18138 39.1892248,16.8766067 C39.1644564,16.90802 38.7354094,17.4122867 38.5603926,17.6249467 C38.0734161,18.21188 38.7530134,17.3734333 37.7035268,18.6578667 C37.5301477,18.87404 36.138406,20.6154133 35.0344698,22.16934 C35.1280168,22.0393467 35.1012013,22.0782 34.9992617,22.2253467 C34.2981711,23.2057733 33.6312651,24.2105867 32.9887181,25.2156067 C32.966406,25.2495 32.9455268,25.27988 32.929151,25.3067467 C32.8519799,25.4293 32.8712215,25.3978867 32.9266946,25.3115 C32.9219866,25.31894 32.9176879,25.3261733 32.9140034,25.3334067 C32.4714463,26.0284267 32.0397383,26.7209667 31.6166275,27.4062733 C30.911443,28.5266133 30.3049228,29.5000133 29.6685168,30.6311 C29.3657685,31.1622333 29.1158322,31.6264067 28.9015134,32.0480067 C28.8452215,32.1560933 28.7893389,32.2606667 28.7320235,32.3737133 C28.6800302,32.4636133 28.504604,32.8486333 28.5273255,32.80358 C28.2415671,33.4082867 27.2801007,35.2102133 26.6463557,36.4179733 C26.1878322,37.2940333 25.6803859,38.1397133 25.1737584,38.9634867 C24.8847248,39.3900467 24.6003993,39.85918 24.5570034,39.9575533 C23.800849,41.1274933 23.0598423,42.29764 22.3599799,43.2466533 C22.3360302,43.27972 22.3120805,43.3123733 22.2879262,43.3452333 C22.2963188,43.3328333 22.308396,43.3208467 22.3167886,43.3086533 C22.147094,43.5372267 21.981698,43.74844 21.8160973,43.9478733 C21.9712584,43.75712 22.1327651,43.5516933 22.2879262,43.3452333 C21.9628658,43.75836 21.5471242,44.2479533 21.0519597,44.7728867 C20.8003859,45.02192 20.5043926,45.3160067 20.193047,45.6136067 C19.990396,45.8056 19.7719832,46.0110267 19.5378087,46.23216 C19.5697416,46.20302 19.6016745,46.1736733 19.6342215,46.14226 C19.6606275,46.11932 19.6870336,46.0972067 19.7124161,46.0742667 C19.5547987,46.2212067 19.3996376,46.3658733 19.2489799,46.50682 C19.347849,46.41072 19.4446711,46.31958 19.5378087,46.23216 C19.1400805,46.59672 18.7339597,46.9782267 18.3055268,47.3343133 C18.2729799,47.3584933 18.2416611,47.38536 18.2134128,47.4083 C18.1972416,47.4217333 18.1767718,47.4376467 18.1569161,47.4533533 C17.8169128,47.7280133 17.2451913,48.2116133 16.5117584,48.4738733 C16.3269161,48.5129333 16.1439161,48.4887533 16.0610134,48.2990333 C15.9490436,48.0330533 15.9822047,47.7364867 16.0129094,47.46906 C16.0898758,46.92718 16.2245671,46.4253933 16.3653993,45.9806467 C16.5291577,45.4945667 16.8409128,44.7631733 16.8775537,44.6755467 C16.9045738,44.6125133 16.9305705,44.5505133 16.9557483,44.4922333 C17.763896,42.48488 19.0872685,39.3330067 20.3551678,36.59178 L20.6595537,35.9391267 L20.6540268,35.9490467 C21.090443,35.0229733 21.5151913,34.1591067 21.9032987,33.4277133 C21.9557013,33.32686 22.0140403,33.2235267 22.071151,33.1195733 C22.0736074,33.1173 22.0822047,33.1063467 22.0953054,33.0879533 C22.3726711,32.5764533 22.6748054,32.0796267 22.9763255,31.5838333 C22.8969027,31.7138267 22.7753121,31.9217333 22.9660906,31.60574 C22.9943389,31.5509733 23.247755,31.14384 23.602906,30.5874933 C23.9971544,29.97018 24.4137148,29.33468 24.8380537,28.6882267 C24.8421477,28.6797533 24.8482886,28.67252 24.8517685,28.6652867 C24.8640503,28.6481333 24.872443,28.6336667 24.8834966,28.6189933 C24.925255,28.5629867 24.9612819,28.5011933 24.9999698,28.4416733 C25.0804161,28.3189133 25.1610671,28.1949133 25.2419228,28.07112 C25.321755,27.9469133 25.4030201,27.82188 25.4848993,27.69788 C25.565755,27.5740867 25.6459966,27.4476067 25.7274664,27.3225733 C25.8079128,27.1973333 25.8887685,27.0723 25.9694195,26.94706 C26.0506846,26.82058 26.1311309,26.6955467 26.2105537,26.5692733 C26.2508792,26.5060333 26.2914094,26.4427933 26.3309161,26.3795533 C26.3509765,26.3491733 26.985745,25.3577933 26.985745,25.3577933 C26.985745,25.3577933 26.2736007,26.5047933 26.232047,26.5727867 C26.232047,26.5727867 25.5909329,27.5885533 25.5076208,27.7235067 C25.2838859,28.0514867 24.5377617,29.2278333 24.1912081,29.7744667 L24.1826107,29.7976133 C23.9453658,30.1756067 23.7152852,30.5376867 23.4313691,31.0126067 L23.4522483,30.9884267 C23.182047,31.4294533 22.7873893,32.0783867 22.4312148,32.6957 C22.4623289,32.63122 21.6975772,34.0644533 21.3389463,34.7667067 C21.2613658,34.9380333 21.2036409,35.0655467 21.1457114,35.1858267 C21.1373188,35.2040133 21.1264698,35.22592 21.116849,35.2478267 C21.0783658,35.3280133 20.9346678,35.65 20.8388691,35.8639 L20.7919933,35.9502867 L20.7702953,35.9986467 C20.6740872,36.2077933 20.6968087,36.17018 20.7522819,36.0606467 C20.7035638,36.16894 20.6607819,36.2660733 20.6270067,36.34378 C20.5422617,36.5091133 20.3778893,36.9052933 20.2642819,37.1349 C20.2094228,37.2721267 19.8278658,38.1068533 19.7564262,38.3000867 C19.6557148,38.5346533 19.5547987,38.76674 19.465755,38.97692 L19.4145805,39.0752933 L19.1996477,39.6039467 C19.0588154,39.91994 18.8663993,40.3522867 18.6027483,41.0072133 C18.6027483,41.0072133 18.3657081,41.58216 18.3042987,41.72166 C18.0744228,42.2321267 17.2578826,44.26738 16.7144094,45.6136067 C16.7541208,45.5164733 16.4654966,46.28796 16.4695906,46.34624 C16.4358154,46.4266333 16.2016409,47.4849733 16.1981611,48.0037067 C16.1969329,48.0925733 16.1944765,48.0936067 16.2337785,48.1797867 C16.2059396,48.13122 16.2096242,48.17028 16.2571141,48.2225667 C16.2794262,48.2554267 16.2908893,48.2686533 16.2691913,48.2395133 C16.2642785,48.2345533 16.2624362,48.2298 16.2589564,48.2236 C16.332443,48.3013067 16.4405235,48.3331333 16.5086879,48.28684 C16.6235235,48.2517067 16.6945537,48.20438 16.7438859,48.17028 C16.8462349,48.10208 16.8660906,48.08038 16.8877886,48.0607467 C17.2126443,47.86276 17.3714899,47.7546733 17.5888792,47.5845867 C17.6977785,47.5091533 17.8795503,47.3804 17.5016779,47.6573333 C17.7325772,47.5250667 18.7581141,46.6514867 18.7628221,46.6173867 C18.8248456,46.56262 19.0348658,46.3695933 19.084198,46.32082 C19.5138591,45.9149267 19.5517282,45.8795867 19.9674698,45.47762 L19.8507919,45.5881867 C20.0018591,45.4121067 20.2124933,45.26744 20.5140134,44.9066 L20.5066443,44.9173467 C21.2216544,44.11796 20.8208557,44.5759333 21.5025,43.7680733 L21.461151,43.80672 C21.520104,43.72674 22.0621443,43.08876 22.4334664,42.5966867 L22.2938624,42.7667733 C22.5038826,42.5055467 22.8704966,42.02794 23.0762181,41.75824 C23.1206376,41.69996 23.0064161,41.8516533 22.9484866,41.9368 C23.4764027,41.2273133 23.0111242,41.8396667 23.3892013,41.30378 C23.4624832,41.2041667 23.3085503,41.4385267 23.5638087,41.0741733 C23.6974765,40.8980933 24.275953,40.00612 24.6038792,39.4968933 C24.5291644,39.60746 24.4571107,39.7169933 24.6184128,39.4568 C24.8712148,39.0620667 25.2969866,38.3852333 25.5037315,38.0169533 C25.5354597,37.9671467 25.548151,37.94648 25.5504027,37.94648 C25.7256242,37.6329667 26.1288792,36.9369133 26.2261107,36.7412 C26.4115671,36.46654 27.2805101,34.7789 27.2876745,34.7908867 L27.7897987,33.80922 L27.7781309,33.83464 C28.0976644,33.20596 28.2030839,32.9798667 28.3078893,32.75646 C28.3807617,32.6093133 28.3295872,32.7174 28.3246745,32.7308333 C28.7836074,31.8086867 28.8251611,31.7138267 29.190547,30.93118 L29.2353758,30.85368 C29.3014933,30.6203533 29.9471107,29.55106 30.4613121,28.6822333 C30.4572181,28.6907067 30.4480067,28.7088933 30.4085,28.7768867 C30.9886141,27.8024533 31.8381107,26.4647 32.0469027,26.1061333 L32.4442215,25.4696 C31.9224463,26.2884133 32.5134094,25.34312 32.2956107,25.67854 C32.4978523,25.3528333 32.8300772,24.8498067 32.5793221,25.2435067 L32.5385872,25.3055067 C32.4513859,25.4536867 33.2009899,24.3017267 33.1958725,24.3298333 C34.2408557,22.7331267 35.3179765,21.2178467 36.410245,19.8048667 L36.2767819,19.96276 L36.658953,19.4682067 C36.7580268,19.3406933 36.7965101,19.29936 36.5258993,19.6517267 C36.6732819,19.4706867 36.9772584,19.0588 36.9827852,19.0466067 C37.5348557,18.3770067 36.7784966,19.3187867 36.948396,19.1123267 L37.1745872,18.8304333 L37.1234128,18.8924333 C37.3057987,18.66386 37.317057,18.6394733 37.6584933,18.2300667 C37.8728121,17.96884 37.7727148,18.0988333 37.8574597,17.99798 C37.8574597,17.99798 37.885094,17.9628467 37.9870336,17.8400867 L38.4815839,17.2287667 L38.2793423,17.4695333 C38.4948893,17.1948733 38.7411409,16.8945867 38.5088087,17.1717267 C38.8342785,16.7501267 40.4239631,14.9626667 40.6853624,14.7622 C41.0251611,14.4158267 41.3721242,14.0818533 41.8255302,13.6978667 C41.7123322,13.79252 41.6408926,13.8435667 42.029,13.5083533 C41.8922617,13.6395867 42.7587483,12.92018 43.1102148,12.7002867 C42.8535235,12.8546667 43.8016846,12.2264 43.9140638,12.1486933 C44.1300201,12.0172533 43.8792651,12.1741133 44.1320671,12.0296533 C45.0020336,11.5156733 46.1266443,10.99074 47.3607685,10.77188 C47.3791913,10.7634067 47.1736745,10.7987467 47.4375302,10.7477 C47.6551242,10.70988 47.869443,10.67826 48.0905168,10.68446 C48.3359497,10.6916933 48.3191644,10.6613133 48.765406,10.71608 C48.7033826,10.7074 48.6077886,10.6954133 48.7709329,10.71112 C49.3758154,10.7987467 49.978651,11.0174 50.4529362,11.4255667 C50.9354094,11.8254667 51.132943,12.4863867 51.1669228,13.1084533 C51.2047919,14.3246867 50.854349,15.51922 50.3577517,16.60918 C50.3741275,16.58128 50.3086242,16.73318 50.2269497,16.8923133 C50.305349,16.7428933 50.2302248,16.8995467 50.2482383,16.8704067 C50.0893926,17.18268 49.924406,17.4924733 49.7467282,17.794 C49.6861376,17.9275067 49.3829799,18.4135867 49.211443,18.6808067 L49.2865671,18.5692067 C49.0554631,18.9482333 49.5641376,18.1949333 49.6073289,18.11826 C49.8619732,17.6844667 50.2885638,16.9931667 50.5675671,16.2251933 C50.6404396,16.0588267 50.5139362,16.36738 50.5532383,16.2797533 C50.6236544,16.09272 50.7182248,15.8678667 50.854349,15.4475067 C51.1489094,14.24822 51.3920906,13.6395867 51.0545436,12.28344 C51.0490168,12.25802 51.0381678,12.22888 51.0238389,12.19354 C51.0322315,12.2117267 51.0402148,12.2264 51.0453322,12.2421067 C51.0453322,12.2361133 51.0436946,12.23012 51.0418523,12.2264 C50.9558792,12.0003067 50.9198523,11.9360333 50.854349,11.82774 C50.8674497,11.8546067 50.8809597,11.88726 50.9018389,11.92384 C50.7802483,11.7014667 50.5982718,11.4487133 50.3372819,11.2724267 C49.9035268,10.9481667 49.4081577,10.7987467 49.2605705,10.7596867 C49.0024463,10.6929333 48.8552685,10.6613133 48.1975738,10.6237 C48.2743356,10.62742 48.4149631,10.62742 48.4958188,10.6309333 C48.085604,10.56046 47.3464396,10.7051267 47.2113389,10.7355067 L47.3112315,10.71856 C46.0977819,10.95292 44.7709295,11.5386133 43.8057785,12.1706 L43.8880671,12.1195533 C43.0838087,12.6539933 43.2303725,12.53268 42.3917248,13.1766533 C42.2310369,13.31016 42.020198,13.4742533 41.8150906,13.6590133 C41.9853993,13.5083533 41.5948356,13.8412933 41.6275872,13.8109133 C40.9408255,14.43298 41.2935201,14.1169867 40.8120705,14.58488 L40.6966208,14.6929667 C40.5334765,14.8655333 40.5154631,14.8764867 40.150896,15.2617133 C40.4446376,14.9397267 39.9124228,15.5035133 40.242396,15.1426733 C39.4659765,15.94206 39.1409161,16.3758533 38.7966141,16.75612 C38.4772852,17.15478 39.4252416,16.0234867 39.2428557,16.24586 C39.4027248,16.0673 38.9740872,16.5715667 38.7511711,16.8387867 C38.5188389,17.1084867 38.3599933,17.30296 37.7911376,17.99302 C37.8230705,17.9531333 37.8384228,17.9335 37.8564362,17.91056 C37.6589027,18.1474 37.4718087,18.38424 37.2286275,18.6735733 C37.0867718,18.8570933 36.8888289,19.0867 36.8581242,19.14746 C36.9864698,18.9773733 37.1250503,18.81452 37.2595369,18.6479467 C37.0046879,18.9627 36.756594,19.29812 36.347198,19.8230533 C36.3807685,19.7744867 36.5181208,19.5934467 36.612896,19.4682067 C36.4743154,19.6432533 36.3527248,19.8121 36.205547,19.99314 C36.2290872,19.9542867 36.5121846,19.5824933 36.7877081,19.2276467 C36.7840235,19.2301267 36.7805436,19.23364 36.7784966,19.23612 C36.6781946,19.36632 36.6165805,19.44878 36.6845403,19.3479267 C36.6161711,19.4463 36.5318356,19.5581067 36.438698,19.6783867 C36.4362416,19.6808667 36.4350134,19.6845867 36.432557,19.68686 C36.431943,19.6881 36.4303054,19.68934 36.4294866,19.69058 C36.4110638,19.71476 36.3926409,19.7391467 36.3733993,19.7622933 C36.3658255,19.7744867 36.3574329,19.78668 36.3467886,19.7974267 C36.1791409,20.0125667 35.9873389,20.2593267 35.787349,20.53626 L35.8053624,20.4998867 C35.7490705,20.5788333 35.6354631,20.7404467 35.5318859,20.8838733 L35.713453,20.6189267 C35.4295369,21.02234 35.1513523,21.38318 34.8758289,21.7646867 C35.4592181,20.96654 35.0125671,21.5910867 35.2608658,21.2556667 C34.5884329,22.19724 34.8121678,21.8523133 34.1681879,22.78066 C34.2848658,22.6116067 34.4193523,22.4270533 34.2981711,22.6043733 C34.1481275,22.8170333 33.9522315,23.0976867 33.8574564,23.22644 C33.3506242,23.9737467 33.9419966,23.1158733 33.7287013,23.43538 C33.55,23.6856533 33.4857248,23.80614 33.2679262,24.13784 L33.2630134,24.1366 C32.6908826,24.9907533 33.1211577,24.3724067 32.6077752,25.1426533 L32.8167718,24.8097133 L32.5537349,25.2156067 L32.6026577,25.12674 C32.3242685,25.5739667 32.2356342,25.7114 31.9584732,26.1451933 C32.0264329,26.0466133 31.9324765,26.2071933 31.6870436,26.5946933 C31.5198054,26.85468 31.7746544,26.4415533 31.4332181,26.9908733 C31.5058859,26.8643933 31.5879698,26.7246867 31.743745,26.49136 C31.7570503,26.4647 31.8166174,26.3686 31.8297181,26.34318 C31.6463087,26.62156 31.3828624,27.0563867 31.260453,27.25334 C31.3091711,27.1791467 31.3640302,27.0855267 31.3951443,27.04068 L30.9122617,27.8437867 C30.8346812,27.96882 30.8946577,27.8669333 30.9525872,27.7683533 C30.8565839,27.9301733 30.7869866,28.0442533 30.6434933,28.2813 C30.6719463,28.2277733 30.6670336,28.2240533 30.7869866,28.0235867 L30.4085,28.6578467 C30.3753389,28.7076533 30.1702315,29.0467933 30.2265235,28.9457333 C29.983547,29.3772533 29.5948255,29.9749333 29.3053826,30.5680667 L29.2969899,30.5874933 C29.2814329,30.6213867 29.2537987,30.6833867 29.201396,30.7951933 C28.9340604,31.3517467 28.691698,31.8401 28.375849,32.5012267 L28.1844564,32.8693 C27.9341107,33.38266 28.4438087,32.3699933 28.0231544,33.2260067 C27.7230671,33.8311267 27.9040201,33.44838 27.7957349,33.65732 C27.6510134,33.96112 27.3912517,34.4835733 27.098943,35.0316533 C27.1920805,34.8468933 26.5176007,36.0935067 26.4971309,36.1567467 L26.3427886,36.4264467 C26.3863893,36.34998 26.3925302,36.3353067 26.4357215,36.25884 C26.1323591,36.7825333 26.2357315,36.6610133 25.8435302,37.3353667 C25.7055638,37.5709667 25.6089463,37.7327867 25.6979899,37.5722067 L24.9416309,38.8506467 L24.9455201,38.8444467 C24.8759228,38.9574933 24.7207617,39.2127267 24.6448188,39.33776 C24.5183154,39.5334733 24.7068423,39.2358733 24.672453,39.2854733 L24.4034799,39.7205067 C24.2896678,39.8943133 24.511151,39.5334733 24.7000872,39.2346333 C24.4558826,39.5905133 24.4749195,39.6039467 24.0538557,40.2309733 C24.0622483,40.21878 24.0720738,40.2053467 24.0780101,40.1956333 C23.9971544,40.3305867 23.9285805,40.42772 23.7973691,40.6209533 C23.8035101,40.61248 23.8119027,40.6015267 23.8190671,40.5893333 C23.8088322,40.6040067 23.8014631,40.6159933 23.7902047,40.6319067 C23.7015705,40.76314 23.5824362,40.9284733 23.413151,41.1762667 C23.4059866,41.1737867 23.2444799,41.4180667 23.0291376,41.7131867 L23.0371208,41.6890067 C22.8047886,42.0085133 22.8271007,41.9843333 22.6922047,42.1738467 C22.4312148,42.5299333 22.3667349,42.5942067 22.2987752,42.6731533 C21.864406,43.2274333 22.6080738,42.2953667 22.0953054,42.9550467 C21.7366745,43.4169467 21.4695436,43.7302533 21.0241208,44.2721333 C20.7504396,44.57862 20.7342685,44.60156 20.7342685,44.60156 C20.6740872,44.6670733 20.6908725,44.6453733 20.7004933,44.6329733 C20.4988658,44.86506 20.6884161,44.6575667 20.3731812,45.01944 C20.3009228,45.1289733 19.6581711,45.7010267 19.2371074,46.1240733 C19.1286174,46.2212067 19.2858255,46.0705467 19.2489799,46.0996867 C18.6580168,46.66244 18.7435805,46.5820467 18.2441174,47.0292733 L17.7976711,47.38288 C18.1262114,47.1266133 17.7194765,47.4762933 17.3391477,47.74868 C17.4605336,47.6635333 17.5641107,47.59058 17.6339128,47.54098 C17.4347416,47.6914333 17.2314765,47.83982 17.019,47.9720867 C16.9432617,48.01838 17.0044664,47.9758067 17.1062013,47.9065733 C17.0621913,47.9344733 17.0224799,47.96134 16.9899329,47.98304 C16.7639463,48.1252267 16.879396,48.04504 17.0382416,47.9369533 L17.2668893,47.7960067 C17.4161141,47.68544 17.5508054,47.5761133 17.5172349,47.5953333 C17.4787517,47.62716 17.4040369,47.68296 17.3197013,47.74248 C17.3583893,47.71334 17.3835671,47.6926733 17.3655537,47.7059 C17.3420134,47.71954 17.2836745,47.76914 17.180302,47.8346533 L17.0316913,47.9200067 L16.9991443,47.9454267 C16.7758188,48.0717 16.333057,48.4581667 16.2601846,48.0582667 C16.2552718,47.3731667 16.333057,46.7351867 16.7144094,45.6878 C16.6235235,45.9492333 16.7037651,45.74732 16.707245,45.7644733 C16.6542282,45.8944667 16.4761409,46.4741667 16.5412349,46.2832067 C16.5369362,46.3051133 16.6976242,45.7958867 16.7969027,45.5468533 C16.707245,45.7291333 17.0730403,44.8288933 17.2302483,44.4362267 C17.2439631,44.4132867 18.6340671,41.0413133 18.6774631,40.8894133 C18.6833993,40.88342 18.6502383,40.9964667 18.6328389,41.0425533 C18.6455302,41.0072133 18.6604732,40.97208 18.6743926,40.9357067 C18.6905638,40.8956133 18.7098054,40.85552 18.7212685,40.8154267 C18.7259765,40.8007533 18.7243389,40.78732 18.729047,40.7728533 C18.7388725,40.7424733 19.4964597,38.9878733 19.7508993,38.4216067 C19.6696342,38.6063667 19.7453725,38.3912267 19.8737181,38.09838 C19.8532483,38.1446733 19.8964396,38.0789533 19.8520201,38.18828 L20.1402349,37.5114467 C20.1060503,37.5965933 20.1721678,37.47032 20.2376711,37.3316467 C20.2010302,37.40708 20.8081644,35.9951333 21.181943,35.1845867 C21.1391611,35.2831667 21.0879866,35.4350667 21.278151,35.0242133 C21.3516376,34.8287067 21.6507013,34.1797733 22.0134262,33.47752 L22.0899832,33.3475267 L22.378198,32.81474 C22.2001107,33.14768 21.7196846,34.0911133 21.4767081,34.6148067 C21.6302315,34.317 21.5235839,34.53462 21.7518221,34.08512 C21.8334966,33.92702 21.6320738,34.3329133 21.5645235,34.4653867 C21.7462953,34.1177733 22.2265168,33.1305267 22.6404161,32.4113267 C22.7513624,32.2290467 22.5742987,32.5557867 22.5863758,32.54132 C22.6381644,32.44894 22.9787819,31.8582867 23.0197215,31.7940133 L22.8463423,32.1002933 C23.0809262,31.7028733 23.6106846,30.7598533 23.7118054,30.57654 C23.7468087,30.5192933 24.2597819,29.7321 24.3801443,29.54858 C24.5570034,29.2861133 24.9747919,28.6590867 25.2441745,28.2337667 C25.1539027,28.36624 25.4717987,27.8437867 25.7004463,27.4804667 C25.6871409,27.5034067 25.7436376,27.4234267 25.7688154,27.3833333 L25.7600134,27.3967667 C25.7663591,27.3856067 25.7725,27.3796133 25.7749564,27.37238 C25.7725,27.3771333 25.7725,27.3796133 25.7688154,27.3833333 C26.2310235,26.6383 26.4825973,26.2398467 26.9145101,25.5423467 C26.9333423,25.5119667 28.0851779,23.6955733 28.1484295,23.5957533 C28.6169832,22.8899867 31.2893154,18.8924333 31.9416879,18.02836 C33.0486946,16.5690867 42.1630772,2.88734 54.0486611,2.99914667 C59.1781879,3.04895333 60.3871342,6.64185333 60.4082181,9.34546667 C60.4207047,10.9115867 59.8461174,12.5702933 59.4332416,12.9383667 C59.1884228,13.1547467 58.6476107,13.2093067 58.782302,13.2969333 C58.9157651,13.3928267 59.3843188,13.43168 59.6686443,13.0879933 C60.3279765,12.2543 60.8788188,10.5776133 60.8788188,8.49482667 C60.8788188,5.6699 58.4169161,1.61034667 53.0251711,1.61034667 M6.87334899,45.84218 C6.85717785,45.8531333 6.84039262,45.86512 6.82770134,45.8785533 C6.8217651,45.8859933 6.81562416,45.8932267 6.80845973,45.89922 C6.79883893,45.9064533 6.78614765,45.9126533 6.77591275,45.9211267 L6.75605705,45.9380733 C6.71941611,45.9709333 6.47930537,46.16768 6.47091275,46.1749133 C6.45944966,46.1835933 6.44737248,46.1933067 6.4355,46.20178 C6.40766107,46.2174867 6.38719128,46.24084 6.36078523,46.26006 C6.32762416,46.28672 6.29466779,46.3135867 6.25966443,46.3390067 C6.19886913,46.38778 5.98946309,46.50062 5.94442953,46.5225267 C5.94074497,46.5250067 5.9376745,46.52604 5.93644631,46.52604 C5.89734899,46.5431933 5.86132215,46.56758 5.82161074,46.5857667 C5.80462081,46.5932067 5.78742617,46.5992 5.76982215,46.6064333 C5.72642617,46.62462 5.68548658,46.6488 5.64106711,46.6659533 C5.62653356,46.6709133 5.61466107,46.6769067 5.6013557,46.68414 C5.58927852,46.6913733 5.57658725,46.6986067 5.56410067,46.7060467 C5.53748993,46.717 5.51354027,46.7339467 5.48692953,46.74738 C5.47321477,46.7546133 5.28591611,46.8457533 5.27281544,46.8604267 C5.26851678,46.86394 5.26073826,46.8808867 5.25459732,46.8808867 L5.2457953,46.8808867 C5.23842617,46.8883267 5.23965436,46.8920467 5.21795638,46.90424 C5.23412752,46.8908067 5.20055705,46.90424 5.21795638,46.8883267 C5.16739597,46.90176 5.1549094,46.9319333 5.12707047,46.92842 C5.1133557,46.9503267 5.17046644,46.9162267 5.16084564,46.9247 C5.17230872,46.9247 5.14713087,46.9416467 5.13198322,46.9480533 C5.11867785,46.9552867 5.10066443,46.9428867 5.06402349,46.96376 L5.07180201,46.9588 L5.02738255,46.9807067 C5.0224698,46.9914533 5.00568456,46.98918 5.00793624,46.9988933 L5.04048322,46.98174 C5.02492617,46.99042 5.01346309,47.0061267 4.99708725,47.0148067 C4.97784564,47.0255533 4.89125839,47.0594467 4.87795302,47.0425 C4.86546644,47.02452 4.94427517,46.8469933 4.95512416,46.8226067 C4.96515436,46.8009067 4.9821443,46.7316733 4.98398658,46.7267133 C4.98562416,46.72196 4.98562416,46.71824 4.98685235,46.7134867 C4.98930872,46.7035667 4.99115101,46.6913733 4.99831544,46.6829 C5.00568456,46.6756667 5.0224698,46.6744267 5.03331879,46.6731867 C5.04764765,46.6709133 5.05972483,46.6659533 5.0730302,46.6612 C5.08797315,46.65748 5.1751745,46.6355733 5.16923826,46.6136667 L5.18377181,46.6113933 L5.17640268,46.6173867 C5.2054698,46.6136667 5.19155034,46.59424 5.22409732,46.5820467 C5.2353557,46.5795667 5.24456711,46.5783267 5.23658389,46.5820467 C5.23658389,46.5820467 5.3581745,46.5188067 5.41119128,46.4995867 C5.43288926,46.4911133 5.6928557,46.36112 5.71148322,46.3512 C5.73563758,46.3367333 5.75958725,46.32206 5.78353691,46.3100733 C5.79274832,46.3063533 5.87933557,46.2710133 5.89857718,46.2590267 L5.89980537,46.2590267 C5.9274396,46.2431133 6.15137919,46.14226 6.19825503,46.1178733 C6.23305369,46.0996867 6.27051342,46.0959667 6.30776846,46.08274 C6.33663087,46.0717867 6.36549329,46.0558733 6.39312752,46.0401667 C6.41851007,46.0257 6.44737248,46.0013133 6.47562081,45.9951133 C6.46538591,46.0087533 6.45392282,46.0195 6.44368792,46.0329333 C6.44491611,46.0304533 6.4557651,46.0316933 6.45944966,46.0304533 C6.4858557,46.02322 6.49977517,45.9926333 6.52311074,45.9794067 C6.56896309,45.9527467 6.83977852,45.8312267 6.87334899,45.8165533 C6.87703356,45.8177933 6.89504698,45.8128333 6.88849664,45.8200667 L6.90712416,45.8056 C6.91203691,45.8056 6.91265101,45.80684 6.91265101,45.80684 C6.90466779,45.8213067 6.88542617,45.8324667 6.87334899,45.84218 M8.22681208,40.37068 C8.24359732,40.3741933 8.26099664,40.3754333 8.28023826,40.3766733 C8.09130201,40.4033333 7.90359396,40.45562 7.72427852,40.5370467 C7.83911409,40.4824867 8.00471477,40.4155267 8.22681208,40.37068 M5.04048322,45.2455333 C5.0423255,45.2335467 5.04641946,45.2248667 5.05010403,45.2139133 L5.05010403,45.20296 C5.05010403,45.1957267 5.05378859,45.1860133 5.05481208,45.1763 C5.07528188,45.1374467 5.09534228,45.0961133 5.11683557,45.0585 C5.08756376,45.1531533 5.05378859,45.2504933 5.0224698,45.34742 L5.01530537,45.3550667 L5.02001342,45.35734 C5.01346309,45.3792467 5.00568456,45.3997067 4.99831544,45.42306 C5.01346309,45.3645733 5.02615436,45.3050533 5.04048322,45.2455333 M4.83414765,46.0887333 C4.83824161,46.07778 4.86116779,46.0097867 4.86301007,46.0025533 C4.87201678,45.95998 4.89617114,45.92464 4.90927181,45.8835133 C4.92380537,45.8397 4.93813423,45.7971267 4.95266779,45.7520733 C4.96290268,45.7291333 4.97068121,45.7074333 4.97784564,45.6878 C4.97907383,45.6793267 4.98275839,45.6658933 4.98623826,45.65742 C5.00793624,45.5881867 5.0320906,45.5177133 5.05378859,45.44848 L5.0627953,45.41934 L5.05849664,45.4278133 C5.11683557,45.24202 5.16923826,45.05478 5.21734228,44.87002 C5.53155369,44.2880467 6.14892282,43.39876 6.39312752,43.0439133 C6.40049664,43.0364733 6.39865436,43.0401933 6.3943557,43.0451533 C6.39865436,43.0426733 6.40213423,43.0401933 6.40397651,43.0364733 C6.42219463,43.0401933 6.43775168,43.0302733 6.44020805,43.0145667 C6.53047987,42.9223933 6.56896309,42.6903067 6.54480872,42.9236333 C6.54910738,42.9236333 6.55217785,42.9236333 6.55565772,42.9261133 C6.55340604,42.9333467 6.55217785,42.94058 6.55279195,42.9440933 C6.54910738,42.94182 6.54910738,42.94058 6.5472651,42.93686 L6.54910738,42.9296267 C6.5472651,42.9321067 6.5472651,42.9333467 6.54358054,42.93686 C6.5274094,42.9600067 6.58513423,43.00258 6.60089597,42.9891467 C6.59536913,42.9891467 6.58697651,42.9806733 6.57919799,42.9707533 C6.59311745,42.9744733 6.61051678,42.9707533 6.62484564,42.96352 C6.61481544,43.0110533 6.63569463,42.9440933 6.62423154,43.00258 L6.6182953,43.0182867 L6.62075168,43.0352333 C6.61113087,43.0730533 6.62075168,43.1009533 6.61583893,43.1059133 C6.64347315,43.1276133 6.69157718,43.1398067 6.69648993,43.1034333 C6.7104094,43.0740867 6.69771812,43.0922733 6.69771812,43.0922733 C6.76629195,42.9575267 6.85902013,42.8203 6.94315101,42.69878 C6.94089933,42.7097333 6.93660067,42.72048 6.93107383,42.7339133 C6.93844295,42.69878 6.90773826,42.7946733 6.91674497,42.7510667 C6.8932047,42.8858133 6.90098322,42.81658 6.91080872,42.90772 L6.90466779,42.9283867 C6.9036443,42.966 6.95052013,42.9490533 6.97692617,42.9099933 C6.97201342,42.9211533 7.01786577,42.87734 6.98163423,42.9211533 C7.08295973,42.8676267 6.98061074,42.8203 7.03894966,42.8347667 C7.03894966,42.8347667 7.04181544,42.8384867 7.04427181,42.8372467 C7.05143624,42.8384867 7.05757718,42.84076 7.06965436,42.84324 C7.09298993,42.8287733 7.09790268,42.81534 7.09913087,42.8081067 C7.0960604,42.8081067 7.07026846,42.8093467 7.06965436,42.8093467 C7.10199664,42.78744 7.137,42.7921933 7.16831879,42.7752467 C7.1984094,42.75954 7.22542953,42.7363933 7.24282886,42.7072533 C7.25613423,42.6828667 7.28131208,42.6622 7.29707383,42.6405 C7.31508725,42.6136333 7.33432886,42.5929667 7.34865772,42.5650667 C7.35725503,42.5491533 7.36687584,42.5262133 7.38018121,42.5129867 C7.3807953,42.51526 7.3807953,42.51774 7.38018121,42.52022 C7.38980201,42.47992 7.43012752,42.4485067 7.45530537,42.4181267 C7.47823154,42.3902267 7.50647987,42.3681133 7.53657047,42.3476533 C7.56297651,42.3282267 7.58958725,42.30508 7.61967785,42.2881333 C7.6352349,42.27842 7.65099664,42.2711867 7.66901007,42.26478 C7.69889597,42.2540333 7.72796309,42.24184 7.7574396,42.2273733 C7.74474832,42.2333667 7.73881208,42.2333667 7.75314094,42.2248933 C7.78282215,42.2104267 7.82294295,42.1920333 7.83911409,42.1763267 C7.93,42.0949 7.82069128,42.1848 7.85733221,42.14822 C7.89335906,42.12528 7.89888591,42.1046133 7.93552685,42.0655533 L7.94084899,42.0692733 C7.94330537,42.0692733 7.9709396,42.0329 7.97462416,42.0267 C7.97830872,42.0194667 7.97830872,42.0122333 7.9805604,42.0060333 C7.98608725,41.99756 7.99693624,41.9940467 8.00471477,41.9868133 C8.01310738,41.9806133 8.02395638,41.97586 8.03112081,41.96842 C8.03603356,41.96346 8.04012752,41.9574667 8.04442617,41.9537467 C8.05527517,41.94176 8.06960403,41.9332867 8.0829094,41.9235733 C8.09908054,41.9111733 8.11852685,41.9016667 8.13715436,41.8929867 C8.16704027,41.88224 8.19733557,41.8712867 8.22722148,41.8628133 C8.25219463,41.85434 8.27737248,41.84318 8.30316443,41.8371867 C8.31278523,41.8359467 8.32424832,41.8334667 8.33448322,41.8334667 C8.34410403,41.8324333 8.35495302,41.8299533 8.36457383,41.8299533 C8.37358054,41.8299533 8.38074497,41.8334667 8.38872819,41.8334667 C8.4073557,41.8334667 8.42536913,41.8249933 8.44154027,41.819 C8.47347315,41.8080467 8.49332886,41.7849 8.50888591,41.75576 C8.51379866,41.7522467 8.52894631,41.7131867 8.52710403,41.72662 C8.52587584,41.6842533 8.56681544,41.7229 8.60836913,41.8057733 L8.61021141,41.8092867 L8.60898322,41.8070133 C8.6112349,41.8105267 8.74121812,42.1046133 8.72074832,42.30508 C8.66793624,42.8360067 8.60038591,43.1336067 7.50832215,44.3827 C7.4931745,44.4010933 7.47761745,44.42176 7.46062752,44.4374667 C7.45530537,44.44346 7.45059732,44.44966 7.44384228,44.4544133 C7.43913423,44.4606133 7.43422148,44.4680533 7.4313557,44.4581333 C7.43012752,44.4519333 7.43544966,44.44966 7.4313557,44.44594 C7.4313557,44.44594 7.41743624,44.4447 7.41866443,44.44346 C7.45284899,44.4252733 7.49440268,44.3669933 7.54741946,44.3184267 C7.51958054,44.3452933 7.5232651,44.3353733 7.53002013,44.32938 L7.4415906,44.42176 C7.43913423,44.4145267 7.41866443,44.4374667 7.39205369,44.4581333 C7.41989262,44.44966 7.23566443,44.59784 6.91428859,44.8518333 C6.91265101,44.8518333 6.91674497,44.8324067 6.92268121,44.8264133 C6.89750336,44.8518333 6.87212081,44.87622 6.84817114,44.9004 C6.832,44.9161067 6.81685235,44.93202 6.8012953,44.9466933 C6.77714094,44.9696333 4.99954362,46.0122667 4.98685235,46.0195 C4.97313758,46.0304533 4.95737584,46.0401667 4.94304698,46.05112 C4.91479866,46.0705467 4.88655034,46.0899733 4.85871141,46.1094 C4.85031879,46.1166333 4.83639933,46.1325467 4.83169128,46.1166333 C4.82862081,46.10692 4.83169128,46.0984467 4.83414765,46.0887333 M4.55002685,46.23836 C4.55616779,46.2272 4.56763087,46.20178 4.55923826,46.1945467 L4.57233893,46.20426 C4.56865436,46.20302 4.55678188,46.1823533 4.55739597,46.17884 C4.55923826,46.1652 4.57827517,46.1724333 4.58789597,46.1616867 C4.59280872,46.1567267 4.59035235,46.1482533 4.59035235,46.14102 C4.59280872,46.1228333 4.5952651,46.1034067 4.60242953,46.08522 C4.60959396,46.0657933 4.6157349,46.0474 4.62474161,46.0279733 C4.63722819,45.9975933 4.65483221,45.9696933 4.67223154,45.9417933 C4.68615101,45.9198867 4.68778859,45.8895067 4.70457383,45.87008 C4.71317114,45.8616067 4.71910738,45.83846 4.73057047,45.8277133 L4.72688591,45.8213067 C4.73364094,45.80684 4.74203356,45.7946467 4.74694631,45.78018 C4.74919799,45.7766667 4.75165436,45.7704667 4.75574832,45.7679867 C4.75574832,45.7679867 4.75943289,45.7582733 4.7582047,45.7582733 C4.75943289,45.7533133 4.76066107,45.7520733 4.76311745,45.74608 C4.76475503,45.7425667 4.7684396,45.7400867 4.76966779,45.7376067 L4.76966779,45.7328533 C4.78645302,45.6997867 4.80098658,45.6708533 4.81777181,45.6367533 C4.78481544,45.7508333 4.75288255,45.86388 4.72033557,45.9769267 C4.7070302,46.02446 4.69392953,46.0717867 4.68001007,46.11932 C4.67530201,46.1350267 4.67100336,46.1519733 4.6660906,46.16892 C4.66015436,46.1885533 4.64336913,46.2162467 4.62658389,46.22844 C4.6157349,46.2356733 4.6055,46.24208 4.59403691,46.2540667 C4.58195973,46.26378 4.56640268,46.2747333 4.55064094,46.2782467 C4.51809396,46.28424 4.5447047,46.2515867 4.55002685,46.23836 M4.5242349,47.0755667 C4.53508389,47.0522133 4.54224832,47.0255533 4.54695638,46.9999267 C4.55002685,46.9757467 4.55371141,46.9466067 4.56394631,46.9247 C4.57295302,46.90052 4.5854396,46.8773733 4.59403691,46.8529867 C4.60058725,46.8325267 4.60611409,46.8337667 4.62474161,46.8238467 C4.72811409,46.77776 4.82984899,46.7327067 4.93342617,46.68538 C4.92257718,46.6913733 4.90886242,46.7508933 4.90333557,46.7630867 C4.89371477,46.7874733 4.79505034,46.98794 4.76966779,47.0730867 C4.76373154,47.0937533 4.76127517,47.1142133 4.74203356,47.1253733 C4.73118456,47.1179333 4.71562752,47.1338467 4.70457383,47.1375667 C4.69515772,47.14108 4.68369463,47.1386 4.67407383,47.14232 C4.67530201,47.14356 4.67591611,47.14356 4.6771443,47.1448 C4.65483221,47.1592667 4.63129195,47.1712533 4.60611409,47.1786933 C4.5952651,47.1809667 4.52648658,47.2150667 4.51563758,47.22354 C4.50847315,47.23098 4.49578188,47.23222 4.48923154,47.2332533 C4.48575168,47.2344933 4.51338591,47.0997467 4.5242349,47.0755667 M4.28944631,46.7508933 C4.30520805,46.7134867 4.32137919,46.6744267 4.34000671,46.6368133 C4.35556376,46.62958 4.35924832,46.6271 4.37439597,46.6318533 C4.39118121,46.6355733 4.4026443,46.6415667 4.42004362,46.6403267 C4.4327349,46.6403267 4.46876174,46.62462 4.46876174,46.62462 C4.47899664,46.6415667 4.44788255,46.6452867 4.43744295,46.6527267 C4.40735235,46.6731867 4.38708725,46.7010867 4.36600336,46.7279533 C4.35556376,46.74242 4.34062081,46.7521333 4.32506376,46.7593667 C4.32322148,46.7606067 4.28698993,46.7705267 4.28883221,46.7666 C4.2900604,46.7630867 4.28698993,46.7643267 4.28698993,46.7643267 C4.28596644,46.7618467 4.28351007,46.7606067 4.28596644,46.7558533 C4.28698993,46.7558533 4.28698993,46.7546133 4.28944631,46.7508933 M4.13489933,47.16402 C4.1377651,47.1483133 4.1475906,47.1313667 4.15598322,47.1166933 C4.16069128,47.10822 4.17399664,47.0960267 4.17092617,47.0863133 C4.17276846,47.0875533 4.17522483,47.0887933 4.17624832,47.0912733 C4.1787047,47.0584133 4.21309396,47.04374 4.24072819,47.0365067 C4.26733893,47.0292733 4.29722483,46.9926933 4.32567785,46.9951733 C4.35024161,46.9964133 4.33652685,47.01832 4.32915772,47.0329933 C4.31544295,47.0594467 4.30520805,47.0912733 4.29599664,47.1191733 C4.2906745,47.1375667 4.28596644,47.1545133 4.2798255,47.1712533 C4.27634564,47.1799333 4.27388926,47.1886133 4.2695906,47.1958467 C4.26733893,47.19812 4.2593557,47.2065933 4.26058389,47.20432 C4.25689933,47.2090733 4.25464765,47.2187867 4.25096309,47.22478 C4.23704362,47.2285 4.22025839,47.2332533 4.20777181,47.2481333 C4.19794631,47.2504067 4.21309396,47.2404867 4.20777181,47.2404867 C4.20163087,47.2504067 4.19016779,47.2553667 4.17154027,47.2626 C4.15107047,47.2710733 4.13489933,47.2770667 4.11852349,47.2832667 C4.12220805,47.2417267 4.12937248,47.20556 4.13489933,47.16402 M7.84955369,50.1751533 C8.00000671,50.0683067 8.14984564,49.9587733 8.30193624,49.8409733 C8.16233221,49.95402 8.00717114,50.0658267 7.84955369,50.1751533 M41.3657785,34.3184467 C41.3442852,34.3097667 41.3209497,34.3050133 41.2994564,34.2953 C41.2931107,34.29282 41.2857416,34.29282 41.277349,34.2880667 C41.0466544,34.2089133 40.7905772,34.17502 40.5209899,34.20664 C40.7381745,34.16882 41.0527953,34.1894867 41.3657785,34.3184467 M34.9018255,41.36206 C34.9257752,41.3244467 34.9484966,41.2868333 34.9710134,41.2502533 C35.0221879,41.1677933 35.0737718,41.08368 35.1269933,40.99998 C35.1724362,40.93798 35.5247215,40.4411533 35.6987148,40.15554 C35.7406779,40.09478 35.6657584,40.2101 35.6913456,40.1786867 C35.7320805,40.1044933 35.789396,40.0195533 35.8980906,39.8639333 L35.8905168,39.88212 C36.1744329,39.463 36.3467886,39.21872 36.6362315,38.8177867 C36.6397114,38.8153067 36.643396,38.8115867 36.6456477,38.8080733 L36.6313188,38.9114067 C36.6409396,38.9221533 36.6456477,38.9295933 36.6509698,38.9331067 C36.6509698,38.9355867 36.6552685,38.9368267 36.6552685,38.9368267 C36.6968221,38.9721667 36.7117651,38.8895 36.7365336,38.8616 C36.6980503,38.9659667 36.6384832,39.1689133 36.756594,39.0912067 C36.9782819,38.7097 37.0650738,38.61112 37.1174765,38.5406467 C37.0955738,38.5966533 37.0759228,38.6561733 37.0632315,38.7194133 C37.0687584,38.73636 37.0759228,38.7495867 37.0822685,38.7595067 C37.0810403,38.77046 37.0800168,38.7849267 37.0796074,38.7934 C37.085953,38.78844 37.0918893,38.7812067 37.0978255,38.7764533 C37.1485906,38.8115867 37.2034497,38.6840733 37.2499161,38.61484 L37.2847148,38.5710267 C37.2953591,38.5637933 37.3057987,38.5675133 37.3141913,38.5821867 C38.3409564,37.3682267 39.3048792,36.4593067 39.4606544,36.31464 C39.6074228,36.1617067 39.1628188,36.5820667 39.2444933,36.49444 C39.1677315,36.55768 39.3716107,36.3754 39.4751879,36.2745467 C39.5859295,36.1858867 39.6301443,36.0897867 39.8694362,35.8773333 C39.8661611,35.8796067 39.8610436,35.8870467 39.8540839,35.8907667 C40.4806644,35.3949733 40.7260973,35.2684933 40.9836074,35.3645933 C41.0288456,35.3803 41.0620067,35.41564 41.0955772,35.4544933 C41.3049832,35.7314267 41.0826812,36.4142533 40.9928188,36.6560533 C40.8657013,37.0036667 41.0171779,36.6074867 40.9696879,36.7546333 C40.9199463,36.8699533 40.7999933,37.1822267 40.6026644,37.5079333 L40.676151,37.3645067 L40.5768725,37.5358333 L40.591406,37.49698 C40.4831208,37.6852533 40.331849,37.94896 40.2247919,38.10334 C40.150896,38.2066733 40.2616376,38.04258 40.1103658,38.2599933 C40.1412752,38.2066733 40.1736174,38.1531467 40.2462852,38.0607667 C40.2499698,38.0510533 40.275557,38.00972 40.2802651,38.0000067 C40.1996141,38.1080933 40.0831409,38.28066 40.0297148,38.3608467 C40.0495705,38.3317067 40.0759765,38.2940933 40.0892819,38.27694 C40.020094,38.3839933 39.7758893,38.7119733 39.719802,38.7861667 C39.708953,38.80084 39.3255537,39.3330067 39.2076477,39.48842 C39.2051913,39.49214 39.1951611,39.5043333 39.1761242,39.5285133 C39.1765336,39.5285133 39.1773523,39.5272733 39.1773523,39.5272733 C39.190453,39.5103267 39.201302,39.4968933 39.2051913,39.49214 C39.1916812,39.5103267 39.1820604,39.52252 39.1773523,39.5272733 C39.0084765,39.7411733 38.2033993,40.75942 37.6769161,41.33664 C37.6015872,41.4191 36.614943,42.4288733 36.614943,42.4288733 C36.5780973,42.4666933 36.4925336,42.5553533 36.449547,42.5966867 C36.3791309,42.66096 36.4841409,42.5613467 36.4663322,42.5785 L36.3150604,42.7242 C36.3150604,42.7242 36.2323624,42.7630533 36.2743255,42.8068667 C36.3150604,42.84696 37.0523826,42.14822 37.2597416,41.97958 C37.4677148,41.8105267 38.342594,41.0194067 38.342594,41.0194067 C37.7323893,41.7485267 37.1631242,42.3232667 35.499953,43.6829267 C35.5859262,43.60646 35.5130537,43.65978 35.5122349,43.6490333 C35.6094664,43.5845533 35.7605336,43.4423667 35.9240872,43.2966667 C35.8753691,43.33676 35.8905168,43.3196067 35.9060738,43.30018 L35.5930906,43.5845533 C35.5965705,43.5736 35.5191946,43.6356 35.4319933,43.7035933 C35.4346544,43.7011133 35.4395671,43.69884 35.443047,43.69884 C35.4395671,43.7095867 35.4240101,43.7182667 35.4164362,43.7255 C35.3918725,43.74472 35.3687416,43.7643533 35.3439732,43.78254 C35.3020101,43.8154 35.2584094,43.84702 35.2156275,43.8774 C35.173255,43.9088133 35.1284262,43.9441533 35.0821644,43.9695733 C35.075,43.9732933 35.0696779,43.9780467 35.0625134,43.9830067 C35.0557584,43.9867267 35.048594,43.9904467 35.0418389,43.9929267 C35.0137953,44.0073933 34.9890268,44.0290933 34.9626208,44.0462467 C34.9337584,44.0644333 34.9057148,44.08262 34.8758289,44.0995667 C34.8795134,44.0960533 34.8829933,44.0935733 34.8862685,44.0935733 C34.8758289,44.0995667 34.8641611,44.1047333 34.8543356,44.1119667 C34.8363221,44.1239533 34.8195369,44.1313933 34.7986577,44.1409 C34.8033658,44.1398667 34.8066409,44.1386267 34.8121678,44.1361467 C34.7519866,44.1714867 34.6879161,44.20786 34.6236409,44.23824 C34.5863859,44.2576667 34.5507685,44.2832933 34.5135134,44.30024 C34.4731879,44.3184267 34.4299966,44.3304133 34.3888523,44.3440533 C34.1941846,44.3378533 34.3180268,43.7534 34.3229396,43.7327333 C34.3229396,43.74472 34.3329698,43.6916067 34.3417718,43.6440733 C34.3493456,43.6112133 34.3561007,43.5845533 34.3624463,43.5601667 C34.3644933,43.56616 34.3683826,43.57112 34.3696107,43.57732 C34.3728859,43.5552067 34.3728859,43.54322 34.3696107,43.5322667 C34.3716577,43.5237933 34.3728859,43.5178 34.3745235,43.50912 C34.3636745,43.51036 34.3493456,43.54074 34.3440235,43.5479733 C34.3317416,43.5674 34.3208926,43.5870333 34.3096342,43.60522 C34.3049262,43.6149333 34.2981711,43.6234067 34.2932584,43.63312 C34.2885503,43.6428333 34.2869128,43.65854 34.2832282,43.6694933 C34.2805671,43.6779667 34.2756544,43.68892 34.2734027,43.69884 C34.2646007,43.7387267 34.2574362,43.7777867 34.2492483,43.81912 C34.2469966,43.8311067 34.2420839,43.84454 34.2408557,43.8577667 C34.2394228,43.8701667 34.2408557,43.88112 34.238604,43.8918667 C34.2349195,43.90406 34.2336913,43.9172867 34.2314396,43.9296867 C34.2302114,43.9394 34.2252987,43.9478733 34.2240705,43.9575867 L34.2181342,44.0111133 C34.2160872,44.02186 34.212198,44.0303333 34.2109698,44.0412867 C34.210151,44.0499667 34.2089228,44.05844 34.2089228,44.0681533 C34.2089228,44.0886133 34.2064664,44.1070067 34.2042148,44.1276733 C34.2029866,44.1386267 34.2038054,44.14586 34.2050336,44.1580533 C34.2072852,44.1884333 34.2025772,44.2175733 34.2038054,44.2467133 C34.2050336,44.2845333 34.2085134,44.3209067 34.2126074,44.35728 C34.2126074,44.35728 34.210151,44.38394 34.2302114,44.3996467 C34.2717651,44.4314733 34.3493456,44.4168 34.3960168,44.4145267 C34.4668423,44.4108067 34.5323456,44.38394 34.5972349,44.35976 C34.6719497,44.3304133 34.7411376,44.29652 34.813396,44.2649 L34.6850503,44.3209067 C35.0234161,44.1690067 35.0058121,44.14462 35.3179765,43.9551067 C35.2819497,43.9817667 35.2356879,44.0303333 35.3931007,43.9309267 C35.4319933,43.90406 35.5122349,43.8373067 35.6182685,43.7511267 C35.7253255,43.6744533 35.8338154,43.5967467 35.9421007,43.5178 C35.8104799,43.62816 35.6606409,43.7511267 35.5503087,43.8300733 C35.6665772,43.7534 35.5859262,43.81416 35.7545973,43.69264 C35.7834597,43.6744533 35.7658557,43.68892 35.7345369,43.7145467 L36.0088322,43.5178 C35.9861107,43.5225533 36.2947953,43.2857133 36.2743255,43.2892267 L35.8637013,43.6149333 C35.8422081,43.6209267 36.094396,43.4157067 36.3590705,43.20284 C36.4307148,43.1517933 36.318745,43.2563667 36.3271376,43.2528533 C36.3351208,43.2503733 36.3455604,43.23694 36.3527248,43.2321867 C36.3674631,43.21896 36.3830201,43.20532 36.3983725,43.1931267 C36.4067651,43.1846533 36.4182282,43.17866 36.4245738,43.1701867 C36.4290772,43.1641933 36.4303054,43.1582 36.4362416,43.1517933 C36.4462718,43.14208 36.4601913,43.1336067 36.4718591,43.1263733 C36.4878255,43.1156267 36.5021544,43.1009533 36.519349,43.09 C36.5306074,43.08256 36.5422752,43.0753267 36.551896,43.0656133 C36.5780973,43.0426733 36.6057315,43.0218 36.6337752,43.0001 C36.6749195,42.966 36.7138121,42.9283867 36.7541376,42.8930467 C36.8024463,42.8517133 36.8523926,42.8118267 36.9019295,42.7717333 C36.9614966,42.72172 37.0884094,42.6283067 37.0955738,42.6148733 C37.0380537,42.6586867 37.0012081,42.6731533 36.9887215,42.6694333 C37.0558624,42.6111533 37.355745,42.3476533 37.4237047,42.2881333 C37.4177685,42.3026 37.2847148,42.4325933 37.353698,42.3765867 C37.3573826,42.3730733 37.4081477,42.3307067 37.5405872,42.2104267 C37.558396,42.18232 37.8142685,41.96594 37.6005638,42.14822 C37.7299329,42.02794 37.920302,41.84566 38.0003389,41.7642333 C38.059906,41.7059533 38.1211107,41.6513933 38.1825201,41.5953867 C38.1921409,41.5869133 38.1896846,41.5869133 38.1837483,41.5929067 C38.2117919,41.5652133 38.240245,41.54062 38.2676745,41.5141667 C38.4815839,41.3170067 38.6191409,41.1932133 38.8355067,40.9879933 C38.859047,40.96836 38.9794094,40.8565533 38.9311007,40.9065667 C38.9509564,40.8856933 38.981047,40.8724667 39.0000839,40.8518 C39.0365201,40.8104667 39.0764362,40.7703733 39.1157383,40.73276 C39.1421443,40.7071333 39.1597483,40.6877067 39.1980268,40.6573267 C39.2017114,40.6779933 39.1607718,40.7193267 39.1476711,40.7350333 C39.1265872,40.7654133 39.1044799,40.7957933 39.0825772,40.8261733 C39.0389765,40.8869333 38.9953758,40.94542 38.9513658,41.0037 C38.9497282,41.0072133 38.9474765,41.0121733 38.9437919,41.0171333 C38.9190235,41.0487533 38.8965067,41.0814067 38.8715336,41.1117867 C38.7474866,41.2599667 38.3507819,41.8262333 38.0801711,42.09862 C38.0398456,42.1385067 37.9815067,42.2005067 37.976594,42.20774 C37.828802,42.3548867 37.6787584,42.4993467 37.5276913,42.64174 L37.4130604,42.7438333 L37.4492919,42.7120067 C37.290651,42.8601867 37.1295537,43.0060933 36.963953,43.14952 C36.9698893,43.14332 36.972755,43.1398067 36.9643624,43.14332 L36.8137047,43.2720733 C36.8092013,43.2733133 36.8648792,43.2249533 36.8200503,43.2613267 C36.8137047,43.2720733 36.6648893,43.4022733 36.5326544,43.5054 C36.5197584,43.5178 36.5101376,43.5250333 36.5007215,43.5322667 C36.449547,43.5736 36.4006242,43.6149333 36.3494497,43.6537867 C36.3527248,43.6490333 36.341057,43.6575067 36.3066678,43.6816867 L36.2458725,43.72674 L36.2526275,43.7255 C36.094396,43.8480533 35.9300235,43.9695733 35.7658557,44.08262 C35.6594128,44.1580533 35.5451913,44.2237733 35.4332215,44.2905267 C35.2180839,44.4168 34.9974195,44.5360467 34.7650872,44.62946 C34.6660134,44.6683133 34.5638691,44.7036533 34.4596779,44.7278333 C34.4136208,44.7375467 34.3683826,44.74602 34.3221208,44.75098 C34.3012416,44.75222 34.2134262,44.7668933 34.2029866,44.74354 C34.3683826,44.7011733 34.4281544,44.6805067 34.4580403,44.6695533 C34.4871074,44.65984 34.721896,44.56746 34.7777785,44.54452 C34.8473758,44.5164133 35.0080638,44.4399467 35.0244396,44.4327133 C35.0418389,44.4265133 35.035698,44.4349867 35.0418389,44.4314733 L35.0520738,44.4265133 L35.090557,44.4060533 L35.0713154,44.4095667 C35.0864631,44.3948933 35.2293423,44.3159467 35.247151,44.3111933 L35.3204329,44.26366 C35.3116309,44.2649 35.3024195,44.26242 35.3284161,44.2479533 C35.3224799,44.2516733 35.3388557,44.2539467 35.3400839,44.2539467 C35.3476577,44.2516733 35.353594,44.2467133 35.360349,44.2432 C35.3787718,44.2334867 35.397604,44.2237733 35.4152081,44.2113733 C35.4807114,44.1615667 35.5550168,44.1276733 35.621953,44.08138 C35.6215436,44.0778667 35.6098758,44.08138 35.6203154,44.0706333 L35.6581846,44.0572 C35.6665772,44.0499667 35.6606409,44.0388067 35.6845906,44.0303333 C35.6798826,44.0303333 35.6749698,44.0328133 35.6802919,44.02806 C35.800245,43.9551067 35.8993188,43.8530133 36.0196812,43.7813 C36.0172248,43.7813 36.0168154,43.78006 36.013745,43.78006 C36.0168154,43.78006 36.0411745,43.7631133 36.0452685,43.76084 C36.0536611,43.7534 36.0595973,43.7436867 36.0671711,43.7339733 C36.0696275,43.7314933 36.1060638,43.6976 36.099104,43.69636 C36.0729027,43.69264 36.0432215,43.7035933 36.0196812,43.7170267 C35.9836544,43.7339733 35.9597047,43.7680733 35.9265436,43.7910133 C35.8976812,43.8094067 35.8704564,43.8335867 35.8417987,43.8530133 C35.8241946,43.865 35.8061812,43.8774 35.789396,43.8883533 C35.7693356,43.90282 35.7521409,43.9234867 35.7320805,43.93816 C35.7193893,43.9478733 35.702604,43.9526267 35.6899128,43.9611 C35.6749698,43.9695733 35.6669866,43.9842467 35.6526577,43.9929267 C35.6413993,44.00016 35.6274799,44.0024333 35.6158121,44.0098733 C35.6039396,44.0183467 35.4698624,44.1107267 35.4156174,44.1555733 L35.4215537,44.1555733 C35.3988322,44.1727267 35.3740638,44.1871933 35.3495,44.2029 C35.3216611,44.2198467 35.2285235,44.2696533 35.1959765,44.2857733 C35.192906,44.2870133 35.1904497,44.2880467 35.1900403,44.2892867 C35.1720268,44.29652 35.1548322,44.3099533 35.1376376,44.3184267 C35.1140973,44.32938 35.0893289,44.3378533 35.066198,44.3488067 C35.026896,44.3694733 34.9933255,44.3973733 34.9505436,44.4120467 C34.9202483,44.423 34.8158523,44.4860333 34.7886275,44.4982267 C34.7566946,44.5114533 34.7243523,44.5226133 34.6926242,44.5348067 C34.6496376,44.5517533 34.6039899,44.5589867 34.5616174,44.5771733 C34.534802,44.5883333 34.5079866,44.60032 34.4803523,44.6100333 C34.4340906,44.62822 34.3849631,44.63938 34.3376779,44.6550867 C34.2989899,44.6683133 34.2609161,44.6792667 34.221,44.68898 C34.194594,44.6962133 34.1706443,44.7133667 34.1409631,44.7086133 C34.1110772,44.7036533 34.083443,44.68402 34.0629732,44.66108 C34.0502819,44.6478533 34.0218289,44.5930867 34.0179396,44.5833733 C34.0105705,44.5722133 33.9931711,44.5250933 33.9894866,44.50918 C33.9563255,44.3525267 33.9559161,44.3134667 33.9559161,44.2930067 C33.9559161,44.2818467 33.9546879,44.1642533 33.9563255,44.1386267 C33.959396,44.11548 33.9514128,44.08138 33.9563255,44.06092 C33.9647181,44.0340533 33.9618523,44.0049133 33.9630805,43.9757733 C33.9634899,43.96482 33.9598054,43.9503533 33.9634899,43.94064 C33.9659463,43.9334067 33.9694262,43.9296867 33.9714732,43.9247267 C33.9778188,43.90654 33.9671745,43.8871133 33.9694262,43.8701667 C33.9714732,43.8517733 33.9786376,43.8323467 33.9815034,43.81416 C33.9903054,43.75712 34.0038154,43.7035933 34.0189631,43.6490333 C34.1761711,43.02676 34.4136208,42.4156467 34.633057,41.81776 C34.7173926,41.6718533 34.8066409,41.51768 34.9018255,41.36206 M33.9014664,44.3924133 C33.9047416,44.38394 33.907198,44.3779467 33.911906,44.3936533 C33.9135436,44.44594 33.9250067,44.4945067 33.9250067,44.4945067 C33.9665604,44.6441333 34.0013591,44.6575667 34.0046342,44.6817467 C33.9147718,44.60528 33.8703523,44.4703267 33.8938926,44.2516733 C33.8967584,44.2551867 33.9014664,44.2467133 33.9035134,44.26862 C33.901057,44.2770933 33.8938926,44.26242 33.8938926,44.2857733 C33.8891846,44.29776 33.9047416,44.35728 33.9014664,44.3924133 M33.6548054,44.3074733 C33.6548054,44.2880467 33.6572617,44.26614 33.6572617,44.2442333 C33.6605369,44.2101333 33.6668826,44.1690067 33.6715906,44.1313933 C33.6812114,44.08386 33.7043423,43.9879667 33.7428255,43.8614867 C33.7499899,43.8433 33.7428255,43.87864 33.7499899,43.8701667 C33.7499899,43.84702 33.7555168,43.81912 33.7692315,43.7693133 C33.7692315,43.7693133 33.8367819,43.57856 33.8891846,43.4264533 C33.8891846,43.4264533 33.8703523,43.4739867 33.8723993,43.4361667 C33.8736275,43.4169467 33.9219362,43.3183667 33.9323758,43.2966667 C33.9522315,43.2503733 34.0171208,43.1034333 34.0285839,43.0753267 C34.0386141,43.0511467 34.1229497,42.8653533 34.1370738,42.8347667 C34.1669597,42.7667733 34.1978691,42.70002 34.2302114,42.6332667 L34.2134262,42.70126 L34.221,42.69878 C34.2173154,42.72668 34.1978691,42.7630533 34.1870201,42.8056267 L34.1917282,42.7862 C34.1812886,42.8021133 34.1773993,42.8203 34.1724866,42.84076 C34.1589765,42.8930467 34.1393255,42.94306 34.1237685,42.9941067 C34.1153758,43.0182867 34.0511007,43.1956067 34.0418893,43.2212333 C34.0218289,43.2720733 34.0075,43.3220867 33.9931711,43.3731333 C33.9849832,43.39628 33.9802752,43.42542 33.9694262,43.44712 C33.9647181,43.45456 33.9587819,43.4605533 33.9563255,43.4692333 C33.9526409,43.47998 33.9522315,43.4921733 33.9487517,43.50416 C33.9430201,43.5225533 33.9379027,43.54446 33.9303289,43.56368 C33.9266443,43.57484 33.9231644,43.5882733 33.9190705,43.59902 C33.9143624,43.6124533 33.9106779,43.62692 33.9076074,43.64056 C33.9014664,43.6635 33.8998289,43.68768 33.8938926,43.7108267 C33.8842718,43.7511267 33.8738322,43.7934933 33.8635973,43.8348267 C33.8586846,43.8530133 33.8586846,43.8714067 33.8515201,43.8883533 C33.8498826,43.8955867 33.8464027,43.90282 33.8439463,43.9100533 C33.8283893,43.9563467 33.8247047,44.0086333 33.8191779,44.0572 C33.8120134,44.12044 33.8058725,44.1847133 33.802802,44.2491933 C33.7884732,44.50422 33.8199966,44.6513667 33.8879564,44.7619333 C33.894302,44.7741267 33.9098591,44.7995467 33.9286913,44.7935533 C34.0285839,44.9150733 34.3245772,44.8787 34.3644933,44.87126 C34.5567047,44.84088 34.6430872,44.81794 34.6942617,44.8020267 C34.8958893,44.7350667 35.0678356,44.6526067 35.0760235,44.6453733 C35.0852349,44.63814 35.0936275,44.6317333 35.1032483,44.62574 C35.1128691,44.6112733 35.2080537,44.5858533 35.2608658,44.5455533 C35.2772416,44.53956 35.258,44.5529933 35.2608658,44.5529933 C35.2676208,44.5529933 35.2809262,44.5408 35.286453,44.53708 C35.2983255,44.5298467 35.3104027,44.5213733 35.3237081,44.5139333 C35.3568691,44.4922333 35.3904396,44.4703267 35.4240101,44.44842 C35.4643356,44.423 35.5050705,44.3973733 35.545396,44.3707133 C35.5595201,44.36224 35.5746678,44.35976 35.5881779,44.3512867 C35.6027114,44.3415733 35.6154027,44.32938 35.6313691,44.3196667 C35.6598221,44.30396 35.6882752,44.2870133 35.7177517,44.2721333 C35.7441577,44.2589067 35.7705638,44.24196 35.7957416,44.2250133 C35.8053624,44.2186067 35.8153926,44.2126133 35.8254228,44.20662 C35.8338154,44.2006267 35.8440503,44.1896733 35.8540805,44.1871933 C35.8528523,44.1896733 35.8528523,44.1931867 35.852443,44.1944267 C35.8753691,44.1944267 35.902594,44.1667333 35.9204027,44.1530933 C35.9421007,44.1349067 35.9672785,44.12292 35.9895906,44.1059733 C36.0276644,44.0778667 36.0671711,44.0536867 36.105245,44.02558 C36.1359497,44.0024333 36.1691107,43.9867267 36.2004295,43.96358 C36.2327718,43.94188 36.2651141,43.9185267 36.2960235,43.8931067 C36.307896,43.8846333 36.318745,43.87616 36.3283658,43.86624 C36.3293893,43.865 36.341057,43.8517733 36.3418758,43.8517733 C36.3443322,43.8517733 36.3398289,43.8701667 36.3375772,43.87492 L36.4114732,43.7910133 C36.4266208,43.78006 36.4413591,43.7680733 36.4585537,43.75712 C36.4663322,43.7596 36.4765671,43.7655933 36.4638758,43.78006 C36.4575302,43.78502 36.4475,43.7934933 36.4354228,43.8007267 L36.4114732,43.8019667 L36.3934597,43.8323467 C36.3867047,43.8348267 36.3842483,43.84082 36.3842483,43.8433 C36.3842483,43.84082 36.3854765,43.84206 36.3879329,43.84082 L36.3842483,43.8480533 C36.3867047,43.84454 36.3879329,43.8433 36.3914128,43.84082 C36.4067651,43.8335867 36.4206846,43.83958 36.425802,43.84702 C36.4303054,43.8567333 36.3050302,43.9513867 36.297047,43.9563467 C36.2859933,43.96482 36.2675705,43.9695733 36.2554933,43.9770133 C36.2278591,43.9929267 36.2020671,44.0183467 36.1766846,44.0375667 C36.1527349,44.05596 36.1363591,44.08758 36.1124094,44.1082467 C36.1083154,44.1119667 36.1040168,44.1144467 36.0997181,44.1192 C36.0960336,44.1192 36.0913255,44.12044 36.0884597,44.1239533 C36.0575503,44.1555733 36.0133356,44.17996 35.9781275,44.20662 C35.944557,44.2334867 35.9060738,44.2564267 35.8749597,44.2845333 C35.7969698,44.3525267 35.713453,44.4108067 35.6266611,44.4680533 C35.6203154,44.4740467 35.6123322,44.4788 35.6061913,44.48252 C35.5490805,44.5164133 35.4082483,44.6087933 35.3237081,44.6550867 C35.3116309,44.66356 35.295255,44.6745133 35.2915705,44.6792667 C35.2827685,44.68402 35.2751946,44.68898 35.2663926,44.6949733 C35.2268859,44.7170867 35.1069329,44.78012 35.0864631,44.7898333 C35.0578054,44.80554 35.026896,44.8214533 34.9961913,44.8336467 C34.9828859,44.84088 34.7437987,44.9491733 34.519245,44.99774 C34.1266342,45.08144 33.8271611,45.08268 33.698406,44.6962133 C33.680802,44.6428933 33.6681107,44.5846133 33.6627886,44.5213733 C33.6605369,44.50298 33.6593087,44.48252 33.6572617,44.4655733 C33.6509161,44.4145267 33.6509161,44.36224 33.6548054,44.3074733 M49.250745,13.8739467 C49.250745,15.96996 45.8103859,21.26786 42.7962081,24.1851667 C42.447198,24.5534467 32.1128154,34.5709933 31.7478389,34.9355533 C31.6966644,34.99032 31.6221544,35.0692667 31.5982047,35.0924133 C31.3842953,35.3135467 31.1699765,35.53096 30.9626174,35.74362 L30.7869866,35.92342 L30.844302,35.86514 L30.9085772,35.7996267 C30.6514765,36.0656067 30.4035872,36.32208 30.1728926,36.5649133 C30.1761678,36.5614 30.1761678,36.5614 30.1702315,36.5649133 L29.979453,36.7691 C29.9761779,36.77282 29.9702416,36.7750933 29.9690134,36.7800533 C29.9677852,36.7788133 30.0334933,36.7071 29.9761779,36.7631067 C29.974745,36.77034 29.951,36.79948 29.9143591,36.8373 C29.8054597,36.95262 29.7031107,37.0631867 29.6019899,37.169 C29.6007617,37.1712733 29.5985101,37.1737533 29.5948255,37.1787133 C29.5935973,37.1797467 29.5931879,37.1797467 29.5901174,37.1822267 C29.4984128,37.28308 29.4093691,37.3767 29.3276946,37.4666 C29.3209396,37.4725933 29.3158221,37.4798267 29.3078389,37.4897467 L29.2935101,37.5054533 C29.0775537,37.74126 28.497849,38.3366667 28.375849,38.4823667 C28.3746208,38.4811267 28.6640638,37.95144 28.663245,37.9502 C30.8418456,33.9853 36.2651141,23.2520667 40.9295671,16.6881267 C41.9974765,15.1838 44.2559094,13.04418 45.3246376,12.2605 C45.3532953,12.2385933 45.5496007,12.09992 45.4949463,12.1424933 C45.9391409,11.8120333 46.3589765,11.5811867 46.4396275,11.5373733 L46.4320537,11.5423333 L46.4564128,11.5289 L46.4433121,11.5348933 C46.4504765,11.53138 46.4551846,11.5289 46.4551846,11.52766 C46.4777013,11.5169133 46.5133188,11.49976 46.5739094,11.47062 C46.9126846,11.32368 47.2391779,11.2470067 47.673547,11.2689133 C49.7088591,11.2689133 49.250745,13.8739467 49.250745,13.8739467" id="Fill-2"></path>
                </g>
            </g>
        </g>
    </g>
</svg>