<?xml version="1.0" encoding="UTF-8" standalone="no"?>
<svg width="124px" height="58px" viewBox="0 0 124 58" version="1.1" xmlns="http://www.w3.org/2000/svg" xmlns:xlink="http://www.w3.org/1999/xlink" xmlns:sketch="http://www.bohemiancoding.com/sketch/ns">
    <!-- Generator: Sketch 3.3.2 (12043) - http://www.bohemiancoding.com/sketch -->
    <title>Kitchen Logo</title>
    <desc>Created with Sketch.</desc>
    <defs></defs>
    <g id="Home" stroke="none" stroke-width="1" fill="none" fill-rule="evenodd" sketch:type="MSPage">
        <g id="sfr-130-the-kitchen-home-dr5" sketch:type="MSArtboardGroup" transform="translate(-250.000000, -1261.000000)" fill="#FFFFFF">
            <g id="Footer" sketch:type="MSLayerGroup" transform="translate(0.000000, 924.000000)">
                <g id="Kitchen-Logo" transform="translate(250.000000, 337.000000)" sketch:type="MSShapeGroup">
                    <path d="M107.6072,52.2767647 C102.550566,55.2910588 96.0880276,56.4561765 90.3506759,56.4561765 C73.3524138,56.4561765 54.2931862,45.2894706 41.435669,30.0661765 C39.1959724,27.4101176 28.7081379,15.1635882 25.9698759,12.7199118 C31.4754759,9.38405882 37.2222345,3.73417647 43.2896828,2.23982353 C43.4085517,2.21082353 43.5308414,2.18267647 43.6505655,2.15794118 C43.7412138,2.13661765 43.8335724,2.12126471 43.9225103,2.10335294 C44.5921103,1.97711765 45.2702621,1.8995 45.9544,1.87561765 C46.0424828,1.87391176 46.1288552,1.86452941 46.2160828,1.86452941 C47.5775172,1.84661765 48.9757241,2.04961765 50.4141241,2.53494118 C50.8861793,2.69614706 51.8533793,1.19241176 52.1355862,1.28538235 C46.9198897,-0.475088235 41.9436414,1.59755882 37.527531,4.39179412 C37.4214897,4.45747059 37.3086069,4.52826471 37.1820414,4.60844118 C37.1512552,4.62805882 37.1187586,4.65108824 37.0862621,4.67326471 C37.0486345,4.698 37.0101517,4.72102941 36.9699586,4.74576471 C36.7664276,4.88052941 36.5363862,5.03917647 36.2960828,5.21232353 C34.6686897,6.35526471 32.4999724,8.01594118 31.8671448,8.47482353 C31.8508966,8.48591176 31.838069,8.49529412 31.8252414,8.50638235 C30.9102069,9.16911765 30.0097103,9.82588235 29.1177655,10.4502353 C28.2480552,11.0327941 27.1500138,11.7637647 26.4616,12.2098529 C26.406869,12.2439706 26.3512828,12.2815 26.2948414,12.3164706 C26.0690759,12.4597647 25.9014621,12.5655294 25.8381793,12.5953824 C24.6101517,11.513 23.3102897,10.5534412 21.9112276,9.81223529 C20.0495172,8.82623529 16.6245517,9.96917647 15.8129931,12.0750882 C14.8705931,14.5221765 16.8169655,15.2403529 18.7941241,15.2207353 L18.7847172,15.2241471 C18.8137931,15.2241471 18.8445793,15.2198824 18.8728,15.2181765 C19.0378483,15.2156176 19.200331,15.2070882 19.3662345,15.1951471 C20.8790345,15.0893824 22.4063724,14.5861471 23.9542345,13.8278824 C24.6033103,14.4428529 25.2275862,15.0782941 25.8330483,15.6881471 C30.4116414,20.3085294 34.4104276,25.5037941 38.7299034,30.3621471 C50.0729103,43.1272647 67.7903724,57.6255588 88.2905655,57.6255588 C102.22389,57.6255588 108.316138,51.8554118 107.6072,52.2767647 M17.484,12.6806765 C15.6530759,10.2694118 19.5150345,10.7052647 20.5916966,11.2758824 C21.7179586,11.8712353 22.7347586,12.6960294 23.6968276,13.5830882 C21.1783448,14.5383824 18.917269,14.5648235 17.484,12.6806765 M23.6968276,13.8074118 L23.6848552,13.8108235 C23.7130759,13.7971765 23.738731,13.7843824 23.7643862,13.7715882 C23.7233379,13.7920588 23.6968276,13.8074118 23.6968276,13.8074118" id="Fill-1"></path>
                    <path d="M3.07177931,29.4682647 C2.21233103,29.4682647 1.51536552,29.0008529 1.51536552,27.9483235 L1.51536552,24.3233235 L0.709793103,24.3233235 L0.709793103,23.8345882 L1.51536552,23.8345882 L1.51536552,22.0647353 L2.0489931,22.0647353 L2.0489931,23.8345882 L3.99707586,23.8345882 L3.99707586,24.3233235 L2.0489931,24.3233235 L2.0489931,27.8945882 C2.0489931,28.6861176 2.51677241,28.9692941 3.1590069,28.9692941 C3.43095172,28.9692941 3.65928276,28.9147059 3.97484138,28.7731176 L3.97484138,29.2729412 C3.69177931,29.4025882 3.41983448,29.4682647 3.07177931,29.4682647" id="Fill-2"></path>
                    <path d="M15.1741793,29.3701765 L15.1741793,26.0812353 C15.1741793,24.9417059 14.5319448,24.1919706 13.4108138,24.1919706 C12.3230345,24.1919706 11.4849655,25.0167647 11.4849655,26.1682353 L11.4849655,29.3701765 L10.9513379,29.3701765 L10.9513379,21.4463529 L11.4849655,21.4463529 L11.4849655,24.8657941 C11.8552552,24.2141471 12.4752552,23.7032353 13.4869241,23.7032353 C14.8911172,23.7032353 15.7078069,24.6593824 15.7078069,25.9831471 L15.7078069,29.3701765 L15.1741793,29.3701765" id="Fill-3"></path>
                    <path d="M25.5782069,29.0008529 C26.4376552,29.0008529 27.0251586,28.6221471 27.4826759,28.1334118 L27.8529655,28.4592353 C27.2868414,29.0665294 26.6223724,29.5006765 25.5559724,29.5006765 C24.0979034,29.5006765 22.835669,28.3389706 22.835669,26.6134706 L22.835669,26.5921471 C22.835669,24.9852059 23.9670621,23.7040882 25.4687448,23.7040882 C27.0251586,23.7040882 28.0154483,24.9638824 28.0154483,26.6023824 L28.0154483,26.6237059 C28.0154483,26.6996176 28.0154483,26.7311765 28.0051862,26.8198824 L23.4009379,26.8198824 C23.4992828,28.1973824 24.4895724,29.0008529 25.5782069,29.0008529 M27.4390621,26.3422353 C27.3629517,25.2240294 26.7207172,24.1919706 25.4473655,24.1919706 C24.348469,24.1919706 23.4992828,25.1157059 23.4009379,26.3422353 L27.4390621,26.3422353" id="Fill-4"></path>
                    <path d="M49.3041103,29.3701765 L46.1690483,25.5276765 L44.2756966,27.4374118 L44.2756966,29.3701765 L43.7104276,29.3701765 L43.7104276,21.7721765 L44.2756966,21.7721765 L44.2756966,26.7652941 L49.1305103,21.7721765 L49.902731,21.7721765 L46.5726897,25.1259412 L50.0438345,29.3701765 L49.3041103,29.3701765" id="Fill-5"></path>
                    <path d="M57.1614345,21.7721765 L57.7267034,21.7721765 L57.7267034,29.3701765 L57.1614345,29.3701765 L57.1614345,21.7721765 Z" id="Fill-6"></path>
                    <path d="M68.3385379,22.2924706 L68.3385379,29.3701765 L67.7724138,29.3701765 L67.7724138,22.2924706 L65.1171034,22.2924706 L65.1171034,21.7721765 L70.9938483,21.7721765 L70.9938483,22.2924706 L68.3385379,22.2924706" id="Fill-7"></path>
                    <path d="M81.1592828,29.4998235 C78.982869,29.4998235 77.3717241,27.7743235 77.3717241,25.5925 L77.3717241,25.5703235 C77.3717241,23.4217647 78.982869,21.6408235 81.1806621,21.6408235 C82.5420966,21.6408235 83.3570759,22.1406471 84.141269,22.8571176 L83.7384828,23.2690882 C83.074869,22.6285294 82.3129103,22.1508824 81.1704,22.1508824 C79.3420414,22.1508824 77.9592276,23.6384118 77.9592276,25.549 L77.9592276,25.5703235 C77.9592276,27.492 79.3634207,28.9897647 81.1806621,28.9897647 C82.2804138,28.9897647 83.0312552,28.5667059 83.8034759,27.8067353 L84.1848828,28.1760588 C83.3793103,28.9684412 82.5087448,29.4998235 81.1592828,29.4998235" id="Fill-8"></path>
                    <path d="M96.3411586,29.3701765 L96.3411586,25.8091471 L91.4658207,25.8091471 L91.4658207,29.3701765 L90.8996966,29.3701765 L90.8996966,21.7721765 L91.4658207,21.7721765 L91.4658207,25.2888529 L96.3411586,25.2888529 L96.3411586,21.7721765 L96.9072828,21.7721765 L96.9072828,29.3701765 L96.3411586,29.3701765" id="Fill-9"></path>
                    <path d="M104.547393,29.3701765 L104.547393,21.7721765 L109.966621,21.7721765 L109.966621,22.2924706 L105.113517,22.2924706 L105.113517,25.2777647 L109.477462,25.2777647 L109.477462,25.7989118 L105.113517,25.7989118 L105.113517,28.8490294 L110.021352,28.8490294 L110.021352,29.3701765 L104.547393,29.3701765" id="Fill-10"></path>
                    <path d="M123.125159,29.3701765 L117.759807,22.6182941 L117.759807,29.3701765 L117.215062,29.3701765 L117.215062,21.7721765 L117.74869,21.7721765 L123.004579,28.3824706 L123.004579,21.7721765 L123.549324,21.7721765 L123.549324,29.3701765 L123.125159,29.3701765" id="Fill-11"></path>
                    <path d="M69.8598897,37.4245 C69.4707862,37.4245 69.1714759,37.2965588 68.8798621,37.0355588 L68.9978759,36.9016471 C69.2655448,37.1472941 69.5126897,37.2615882 69.8701517,37.2615882 C70.2353103,37.2615882 70.4858759,37.0568824 70.4858759,36.7796765 L70.4858759,36.7728529 C70.4858759,36.5161176 70.3499034,36.3668529 69.7974621,36.2559706 C69.2133793,36.1382647 68.9773517,35.9403824 68.9773517,35.5727647 L68.9773517,35.5659412 C68.9773517,35.2051471 69.3074483,34.9279412 69.7589793,34.9279412 C70.1138759,34.9279412 70.3473379,35.0251765 70.5944828,35.2222059 L70.4790345,35.3646471 C70.2489931,35.1676176 70.0198069,35.0908529 69.7521379,35.0908529 C69.3938207,35.0908529 69.1577931,35.2955588 69.1577931,35.5488824 L69.1577931,35.5557059 C69.1577931,35.8124412 69.2894897,35.9676765 69.866731,36.0862353 C70.4302897,36.2005294 70.6671724,36.4018235 70.6671724,36.7557941 L70.6671724,36.7626176 C70.6671724,37.1541176 70.3293793,37.4245 69.8598897,37.4245" id="Fill-12"></path>
                    <path d="M76.4908966,37.3903824 L76.1813241,36.7105882 L74.7454897,36.7105882 L74.4359172,37.3903824 L74.2486345,37.3903824 L75.3817379,34.9458529 L75.5561931,34.9458529 L76.6892966,37.3903824 L76.4908966,37.3903824 L76.4908966,37.3903824 Z M75.4655448,35.1437353 L74.8224552,36.5476765 L76.1052138,36.5476765 L75.4655448,35.1437353 L75.4655448,35.1437353 Z" id="Fill-13"></path>
                    <path d="M81.4149793,37.4321765 C80.7197241,37.4321765 80.2057655,36.8803235 80.2057655,36.1834706 L80.2057655,36.1766471 C80.2057655,35.4900294 80.7197241,34.9211176 81.4218207,34.9211176 C81.8562483,34.9211176 82.1170759,35.0806176 82.3676414,35.3100588 L82.2393655,35.4414118 C82.0272828,35.2375588 81.7835586,35.0840294 81.4184,35.0840294 C80.8343172,35.0840294 80.3930483,35.5599706 80.3930483,36.1698235 L80.3930483,36.1766471 C80.3930483,36.7907647 80.8420138,37.2692647 81.4218207,37.2692647 C81.7732966,37.2692647 82.0136,37.1345 82.2598897,36.8914118 L82.3821793,37.0091176 C82.1239172,37.2624412 81.8468414,37.4321765 81.4149793,37.4321765" id="Fill-14"></path>
                    <path d="M87.9476414,37.3895294 L87.1728552,36.3847647 L86.3766897,36.3847647 L86.3766897,37.3895294 L86.1962483,37.3895294 L86.1962483,34.9629118 L87.2181793,34.9629118 C87.7432552,34.9629118 88.0870345,35.2469412 88.0870345,35.6529412 L88.0870345,35.6597647 C88.0870345,36.0657647 87.7843034,36.2977647 87.3746759,36.3532059 L88.1768276,37.3895294 L87.9476414,37.3895294 L87.9476414,37.3895294 Z M87.9065931,35.6597647 C87.9065931,35.3339412 87.6491862,35.1292353 87.2079172,35.1292353 L86.3766897,35.1292353 L86.3766897,36.2218529 L87.1976552,36.2218529 C87.6038621,36.2218529 87.9065931,36.0171471 87.9065931,35.6665882 L87.9065931,35.6597647 L87.9065931,35.6597647 Z" id="Fill-15"></path>
                    <path d="M93.9911448,37.3903824 L93.6815724,36.7105882 L92.2457379,36.7105882 L91.9361655,37.3903824 L91.7488828,37.3903824 L92.8828414,34.9458529 L93.0564414,34.9458529 L94.1895448,37.3903824 L93.9911448,37.3903824 L93.9911448,37.3903824 Z M92.9657931,35.1437353 L92.3227034,36.5476765 L93.6054621,36.5476765 L92.9657931,35.1437353 L92.9657931,35.1437353 Z" id="Fill-16"></path>
                    <path d="M100.067145,37.3903824 L100.067145,35.2827647 L99.1042207,36.6798824 L99.0905379,36.6798824 L98.1276138,35.2827647 L98.1276138,37.3903824 L97.9531586,37.3903824 L97.9531586,34.9637647 L98.1241931,34.9637647 L99.1008,36.3992647 L100.077407,34.9637647 L100.247586,34.9637647 L100.247586,37.3903824 L100.067145,37.3903824" id="Fill-17"></path>
                    <path d="M104.219862,37.3903824 L104.219862,34.9637647 L105.951586,34.9637647 L105.951586,35.1300882 L104.400303,35.1300882 L104.400303,36.0828235 L105.79509,36.0828235 L105.79509,36.25 L104.400303,36.25 L104.400303,37.2240588 L105.96869,37.2240588 L105.96869,37.3903824 L104.219862,37.3903824" id="Fill-18"></path>
                    <path d="M111.684662,37.3903824 L109.970897,35.2341471 L109.970897,37.3903824 L109.797297,37.3903824 L109.797297,34.9637647 L109.967476,34.9637647 L111.646179,37.0747941 L111.646179,34.9637647 L111.820634,34.9637647 L111.820634,37.3903824 L111.684662,37.3903824" id="Fill-19"></path>
                    <path d="M116.647228,35.1292353 L116.647228,37.3895294 L116.465931,37.3895294 L116.465931,35.1292353 L115.6176,35.1292353 L115.6176,34.9629118 L117.495559,34.9629118 L117.495559,35.1292353 L116.647228,35.1292353" id="Fill-20"></path>
                    <path d="M122.213545,37.4321765 C121.476386,37.4321765 120.993214,36.8453529 120.993214,36.1834706 L120.993214,36.1766471 C120.993214,35.5139118 121.483228,34.9211176 122.220386,34.9211176 C122.95669,34.9211176 123.440717,35.5070882 123.440717,36.1698235 C123.444138,36.1732353 123.444138,36.1732353 123.440717,36.1766471 C123.440717,36.8385294 122.950703,37.4321765 122.213545,37.4321765 M123.252579,36.1766471 C123.252579,35.5761765 122.814731,35.0840294 122.213545,35.0840294 C121.611503,35.0840294 121.181352,35.5702059 121.181352,36.1698235 L121.181352,36.1766471 C121.181352,36.7771176 121.6192,37.2692647 122.220386,37.2692647 C122.822428,37.2692647 123.252579,36.7830882 123.252579,36.1834706 L123.252579,36.1766471" id="Fill-21"></path>
                </g>
            </g>
        </g>
    </g>
</svg>