<?xml version="1.0" encoding="UTF-8" standalone="no"?>
<svg width="99px" height="48px" viewBox="0 0 99 48" version="1.1" xmlns="http://www.w3.org/2000/svg" xmlns:xlink="http://www.w3.org/1999/xlink" xmlns:sketch="http://www.bohemiancoding.com/sketch/ns">
    <!-- Generator: Sketch 3.3.3 (12072) - http://www.bohemiancoding.com/sketch -->
    <title>obo-white</title>
    <desc>Created with Sketch.</desc>
    <defs></defs>
    <g id="Home" stroke="none" stroke-width="1" fill="none" fill-rule="evenodd" sketch:type="MSPage">
        <g id="sfr-130-the-kitchen-home-dr5" sketch:type="MSArtboardGroup" transform="translate(-680.000000, -1266.000000)">
            <g id="Footer" sketch:type="MSLayerGroup" transform="translate(0.000000, 924.000000)">
                <g id="obo-white" transform="translate(680.000000, 342.000000)" sketch:type="MSShapeGroup">
                    <path d="M87.4526298,17.671619 C87.4526298,8.62044444 81.3319357,1.2647619 73.156928,1.2647619 C64.9806478,1.2647619 58.8602082,8.62044444 58.8602082,17.671619 C58.8602082,26.7217778 64.9806478,34.0779683 73.156928,34.0779683 C81.3319357,34.0779683 87.4526298,26.7217778 87.4526298,17.671619 M80.7061234,17.671619 C80.7061234,24.6712381 78.9192879,33.2754286 73.156928,33.2754286 C67.3925321,33.2754286 65.6064602,24.6712381 65.6064602,17.671619 C65.6064602,10.672 67.3925321,2.06653968 73.156928,2.06653968 C78.9192879,2.06653968 80.7061234,10.672 80.7061234,17.671619 M46.8773907,16.7349841 L46.8773907,16.6458413 C51.479491,15.9773968 54.3830668,13.4811429 54.3830668,9.4232381 C54.3830668,4.02971429 49.6476093,1.97739683 43.7954113,1.97739683 L33.9582725,1.97739683 L33.3927763,1.41206349 L32.8084473,1.97739683 L32.8048843,1.97739683 L32.8048843,33.3650794 L45.5817378,33.3650794 C51.3893985,33.3650794 56.125365,30.3776508 56.125365,25.0275556 C56.125365,19.9004444 52.3282442,17.0021587 46.8773907,16.7349841 M42.9909409,16.4675556 L39.1480103,16.4675556 L39.1480103,2.77993651 L42.9909409,2.77993651 C46.520329,2.77993651 48.0391774,6.39161905 48.0391774,9.60152381 C48.0391774,12.7674921 46.520329,16.4675556 42.9909409,16.4675556 M43.1245527,32.5625397 L39.1480103,32.5625397 L39.1480103,17.2695873 L43.1245527,17.2695873 C47.6365604,17.2695873 49.6028175,21.3716825 49.6028175,24.9391746 C49.6028175,28.5051429 47.6365604,32.5625397 43.1245527,32.5625397 Z M28.618126,17.671619 C28.618126,8.62044444 22.4974319,1.2647619 14.3219152,1.2647619 C6.14639846,1.2647619 0.0257043702,8.62044444 0.0257043702,17.671619 C0.0257043702,26.7217778 6.14639846,34.0779683 14.3219152,34.0779683 C22.4974319,34.0779683 28.618126,26.7217778 28.618126,17.671619 M21.871874,17.671619 C21.871874,24.6712381 20.0847841,33.2754286 14.3219152,33.2754286 C8.55904627,33.2754286 6.7722108,24.6712381 6.7722108,17.671619 C6.7722108,10.672 8.55904627,2.06653968 14.3219152,2.06653968 C20.0847841,2.06653968 21.871874,10.672 21.871874,17.671619" id="Fill-1" fill="#FFFFFF"></path>
                    <path d="M88.0397584,17.1410794 C88.0397584,8.09092063 81.9183008,0.734222222 73.7425296,0.734222222 C65.5667584,0.734222222 59.4463188,8.09092063 59.4463188,17.1410794 C59.4463188,26.192 65.5667584,33.5481905 73.7425296,33.5481905 C81.9183008,33.5481905 88.0397584,26.192 88.0397584,17.1410794 M81.2932519,17.1410794 C81.2932519,24.1409524 79.505653,32.7448889 73.7425296,32.7448889 C67.9799152,32.7448889 66.1925707,24.1409524 66.1925707,17.1410794 C66.1925707,10.1417143 67.9799152,1.53701587 73.7425296,1.53701587 C79.505653,1.53701587 81.2932519,10.1417143 81.2932519,17.1410794 M47.4645193,16.2052063 L47.4645193,16.1160635 C52.0656015,15.447619 54.9696864,12.9506032 54.9696864,8.89346032 C54.9696864,3.4984127 50.2352468,1.44761905 44.3815219,1.44761905 L34.1466015,1.41409524 L33.9941568,0.819809524 L33.3927763,1.41206349 L33.3920129,1.41206349 L33.3920129,32.8347937 L46.1688663,32.8347937 C51.9772905,32.8347937 56.7130026,29.847873 56.7130026,24.4977778 C56.7130026,19.3709206 52.9151183,16.4726349 47.4645193,16.2052063 M43.5773059,15.9372698 L39.7343753,15.9372698 L39.7343753,2.25015873 L43.5773059,2.25015873 C47.1064396,2.25015873 48.6260514,5.86133333 48.6260514,9.07174603 C48.6260514,12.2372063 47.1064396,15.9372698 43.5773059,15.9372698 M50.189437,24.4086349 C50.189437,27.9748571 48.2244524,32.0327619 43.7114267,32.0327619 L39.7343753,32.0327619 L39.7343753,16.7398095 L43.7114267,16.7398095 C48.2244524,16.7398095 50.189437,20.8419048 50.189437,24.4086349 M29.206018,17.1410794 C29.206018,8.09092063 23.0837969,0.734222222 14.9087892,0.734222222 C6.73301799,0.734222222 0.61181491,8.09092063 0.61181491,17.1410794 C0.61181491,26.192 6.73301799,33.5481905 14.9087892,33.5481905 C23.0837969,33.5481905 29.206018,26.192 29.206018,17.1410794 M22.4597661,17.1410794 C22.4582391,24.1409524 20.6714036,32.7448889 14.9087892,32.7448889 C9.14566581,32.7448889 7.35857584,24.1409524 7.35857584,17.1410794 C7.35857584,10.1417143 9.14566581,1.53701587 14.9087892,1.53701587 C20.6714036,1.53701587 22.4582391,10.1417143 22.4597661,17.1410794" id="Fill-2" fill="#2D2D2D"></path>
                    <path d="M97.714018,6.84419048 C97.714018,3.13650794 95.8793368,1.21549206 93.6865758,1.21549206 C91.582126,1.21549206 90.1492982,2.73447619 90.1492982,4.61028571 C90.1492982,6.48711111 91.671455,8.00533333 93.5506735,8.00533333 C95.1183856,8.00533333 96.4160746,6.97828571 96.8197095,5.54844444 C96.8642468,5.95047619 96.9085296,6.39746032 96.9085296,6.84419048 C96.9085296,9.35161905 95.430401,11.5580952 94.3386015,12.8446984 C94.3281671,12.8568889 94.3070437,12.8820317 94.3070437,12.8820317 L94.8078972,13.5177143 C94.8078972,13.5177143 94.8554884,13.4628571 94.8801748,13.4354286 C96.0674113,12.072381 97.714018,9.67161905 97.714018,6.84419048" id="Fill-3" fill="#FFFFFF"></path>
                    <path d="M98.2553368,6.31796825 C98.2553368,2.61028571 96.4206555,0.690031746 94.2268766,0.690031746 C92.1234447,0.690031746 90.690617,2.20749206 90.690617,4.08431746 C90.690617,5.96088889 92.2127738,7.47911111 94.0919923,7.47911111 C95.6599589,7.47911111 96.9573933,6.45130159 97.3612828,5.02222222 C97.4055656,5.42425397 97.4498483,5.87098413 97.4498483,6.31796825 C97.4498483,9.27949206 94.3368201,12.9226667 94.3368201,12.9226667 L94.8366555,13.5560635 C94.8366555,13.5560635 98.2553368,9.65409524 98.2553368,6.31796825" id="Fill-4" fill="#2D2D2D"></path>
                    <path d="M76.2806812,45.7059048 C76.2806812,46.6105397 76.4461054,47.1151746 76.6815167,47.3848889 C76.8385424,47.5588571 77.0474859,47.6284444 77.2918046,47.6284444 C78.0066915,47.6284444 78.2945296,47.1151746 78.4513008,46.5671111 L78.5472468,46.5932698 C78.3991285,47.3328254 77.8672262,47.8633651 77.0826067,47.8633651 C76.6553033,47.8633651 76.1844807,47.7589841 75.8533779,47.4372063 C75.4782468,47.080381 75.2952622,46.6105397 75.2952622,45.9408254 C75.2952622,44.7141587 76.0712288,43.9746032 76.9953136,43.9746032 C78.0850771,43.9746032 78.5907661,44.7227937 78.5907661,45.4448254 C78.5907661,45.5144127 78.5907661,45.6274286 78.5818586,45.7059048 L76.2806812,45.7059048 L76.2806812,45.7059048 Z M77.4312699,44.2529524 C77.318018,44.1399365 77.1698997,44.0787302 77.0039666,44.0787302 C76.8385424,44.0787302 76.7252905,44.1310476 76.6028766,44.2529524 C76.419892,44.4355556 76.3066401,44.888127 76.2806812,45.584 L77.3788432,45.584 C77.6056015,45.584 77.6839871,45.5057778 77.6839871,45.2271746 C77.6839871,44.7575873 77.5880411,44.4269206 77.4312699,44.2529524 L77.4312699,44.2529524 Z" id="Fill-5" fill="#FFFFFF"></path>
                    <path d="M40.781892,47.7851429 L40.781892,47.7503492 C40.8429717,47.7414603 40.9127044,47.7414603 40.982437,47.7155556 C41.1392082,47.6457143 41.2091954,47.6025397 41.2613676,47.367619 C41.2964884,47.2457143 41.2964884,47.0194286 41.2964884,46.8281905 L41.2964884,45.1489524 C41.2964884,44.983873 41.2964884,44.6095238 41.278928,44.4703492 C41.2527147,44.3050159 41.2005424,44.2354286 41.1219023,44.1747302 C41.0435167,44.1137778 40.9213573,44.1051429 40.8343188,44.1051429 L40.8343188,44.0528254 L42.1592391,44.0528254 C42.2030129,44.0528254 42.2203188,44.0700952 42.2203188,44.1137778 C42.2203188,44.2529524 42.2116658,44.4355556 42.2116658,44.6618413 L42.2116658,46.8281905 C42.2116658,47.0194286 42.2116658,47.2457143 42.2465321,47.367619 C42.2989589,47.6025397 42.3773445,47.6457143 42.5257172,47.7155556 C42.5951954,47.7414603 42.6651825,47.7414603 42.7262622,47.7503492 L42.7262622,47.7851429 L40.781892,47.7851429 L40.781892,47.7851429 Z M41.7497506,43.1131429 C41.4967789,43.1131429 41.2351542,42.9132698 41.2351542,42.6173968 C41.2351542,42.304254 41.5056864,42.0952381 41.7497506,42.0952381 C42.0024679,42.0952381 42.281653,42.2867302 42.281653,42.6173968 C42.281653,42.9305397 42.0024679,43.1131429 41.7497506,43.1131429 L41.7497506,43.1131429 Z" id="Fill-6" fill="#FFFFFF"></path>
                    <path d="M45.4198766,47.2805079 C45.3066247,47.5415873 44.9141877,47.8633651 44.4695784,47.8633651 C44.1120077,47.8633651 43.8506375,47.7937778 43.6673985,47.6198095 C43.4844139,47.4544762 43.4146812,47.2543492 43.4146812,46.9239365 C43.4146812,46.7497143 43.4406401,44.6270476 43.4498021,44.2008889 C43.3014293,44.1833651 43.066018,44.192 42.9352057,44.1747302 L42.9352057,44.1137778 C43.5717069,43.991873 43.9987558,43.5829841 44.2779409,42.5216508 L44.3649794,42.5216508 L44.3649794,44.0528254 L45.2106787,44.0528254 L45.2106787,44.2095238 L44.3649794,44.2095238 L44.3301131,47.0369524 C44.3301131,47.3500952 44.4347121,47.5674921 44.7922828,47.5674921 C45.0190411,47.5674921 45.2541979,47.4631111 45.3850103,47.2543492 L45.4198766,47.2805079" id="Fill-7" fill="#FFFFFF"></path>
                    <path d="M48.1748252,47.8633651 C47.9307609,47.8633651 47.7475219,47.8372063 47.6342699,47.7589841 C47.529671,47.6893968 47.4774987,47.5415873 47.4688458,47.2891429 L47.4512853,47.2891429 C47.3202185,47.6457143 46.9977686,47.8633651 46.4923342,47.8633651 C45.9952982,47.8633651 45.5331285,47.5674921 45.5331285,46.9150476 C45.5331285,46.6714921 45.5769023,46.5236825 45.7512339,46.3408254 C45.9952982,46.0711111 46.4136941,46.0365714 46.727491,45.9146667 C47.3029126,45.7231746 47.4774987,45.4361905 47.4774987,45.1664762 C47.4774987,45.0445714 47.4861517,44.7486984 47.4861517,44.6184127 C47.4861517,44.192 47.3902057,44.087619 47.0242365,44.087619 C46.8496504,44.087619 46.7623573,44.1224127 46.7015321,44.2008889 C46.6404524,44.2791111 46.5882802,44.487873 46.5882802,44.7314286 C46.5882802,45.0184127 46.4399075,45.1489524 46.1609769,45.1489524 C45.9255656,45.1489524 45.7512339,45.0270476 45.7512339,44.7662222 C45.7512339,44.6184127 45.8123136,44.5051429 45.8906992,44.4007619 C46.0912442,44.1485714 46.6142391,43.9832381 47.0415424,43.9832381 C47.7912956,43.9832381 48.4015835,44.2440635 48.4015835,44.9229206 C48.4015835,45.2099048 48.3840231,46.4104127 48.3840231,46.9498413 C48.3840231,47.3414603 48.4015835,47.5240635 48.4799692,47.6025397 C48.5234884,47.6546032 48.5934756,47.6807619 48.6805141,47.6807619 C48.7588997,47.6807619 48.8721517,47.6546032 48.9421388,47.6111746 L48.9421388,47.6546032 C48.8721517,47.7328254 48.5321414,47.8633651 48.1748252,47.8633651 L48.1748252,47.8633651 Z M47.0066761,45.8971429 C46.7888252,46.0190476 46.6928792,46.1234286 46.6142391,46.2626032 C46.5358535,46.4017778 46.4923342,46.6542222 46.4923342,46.8977778 C46.4923342,47.376254 46.6491054,47.5936508 46.9629023,47.5936508 C47.1810077,47.5936508 47.4599383,47.2977778 47.4599383,46.8368254 L47.4688458,45.5405714 C47.329126,45.7318095 47.1634473,45.8189206 47.0066761,45.8971429 L47.0066761,45.8971429 Z" id="Fill-8" fill="#FFFFFF"></path>
                    <path d="M49.0289229,47.7851429 L49.0289229,47.7414603 C49.0900026,47.7328254 49.1510823,47.7328254 49.2208149,47.7069206 C49.3778406,47.6370794 49.4475733,47.5936508 49.5083985,47.367619 C49.5432648,47.1933968 49.5521722,46.8977778 49.5521722,46.6455873 L49.5521722,42.9305397 C49.5521722,42.7738413 49.5432648,42.3824762 49.5259589,42.2433016 C49.4997455,42.0779683 49.4475733,42.0170159 49.3689332,41.9560635 C49.2818946,41.8864762 49.1597352,41.8864762 49.0813496,41.8778413 L49.0813496,41.8344127 L50.4151774,41.8344127 C50.4500437,41.8344127 50.4676041,41.8516825 50.4676041,41.8951111 C50.4676041,42.0259048 50.4589512,42.2085079 50.4589512,42.4434286 L50.4589512,46.6455873 C50.4589512,46.8977778 50.4500437,47.1933968 50.493563,47.367619 C50.5457352,47.5936508 50.6243753,47.6370794 50.781401,47.7069206 C50.8511337,47.7328254 50.9208663,47.7328254 50.9816915,47.7414603 L50.9816915,47.7851429 L49.0289229,47.7851429" id="Fill-9" fill="#FFFFFF"></path>
                    <path d="M51.2084499,47.7851429 L51.2084499,47.7503492 C51.2695296,47.7414603 51.3392622,47.7414603 51.4089949,47.7155556 C51.5657661,47.6457143 51.6357532,47.6025397 51.6879254,47.367619 C51.7227918,47.2457143 51.7227918,47.0194286 51.7227918,46.8281905 L51.7227918,45.1489524 C51.7227918,44.983873 51.7227918,44.6095238 51.7054859,44.4703492 C51.679018,44.3050159 51.6268458,44.2354286 51.5484602,44.1747302 C51.4698201,44.1137778 51.3479152,44.1051429 51.2608766,44.1051429 L51.2608766,44.0528254 L52.5857969,44.0528254 C52.6295707,44.0528254 52.6468766,44.0700952 52.6468766,44.1137778 C52.6468766,44.2529524 52.6382237,44.4355556 52.6382237,44.6618413 L52.6382237,46.8281905 C52.6382237,47.0194286 52.6382237,47.2457143 52.67309,47.367619 C52.7255167,47.6025397 52.8036478,47.6457143 52.9522751,47.7155556 C53.0217532,47.7414603 53.0914859,47.7414603 53.1528201,47.7503492 L53.1528201,47.7851429 L51.2084499,47.7851429 L51.2084499,47.7851429 Z M52.1763085,43.1131429 C51.9233368,43.1131429 51.6617121,42.9132698 51.6617121,42.6173968 C51.6617121,42.304254 51.9322442,42.0952381 52.1763085,42.0952381 C52.4290257,42.0952381 52.7082108,42.2867302 52.7082108,42.6173968 C52.7082108,42.9305397 52.4290257,43.1131429 52.1763085,43.1131429 L52.1763085,43.1131429 Z" id="Fill-10" fill="#FFFFFF"></path>
                    <path d="M56.0469794,47.8633651 C55.8029152,47.8633651 55.6196761,47.8372063 55.5064242,47.7589841 C55.4018252,47.6893968 55.3493985,47.5415873 55.3407455,47.2891429 L55.3234396,47.2891429 C55.1923728,47.6457143 54.8699229,47.8633651 54.3642339,47.8633651 C53.8671979,47.8633651 53.4052828,47.5674921 53.4052828,46.9150476 C53.4052828,46.6714921 53.4490566,46.5236825 53.6231337,46.3408254 C53.8671979,46.0711111 54.2858483,46.0365714 54.5996452,45.9146667 C55.1750668,45.7231746 55.3493985,45.4361905 55.3493985,45.1664762 C55.3493985,45.0445714 55.3583059,44.7486984 55.3583059,44.6184127 C55.3583059,44.192 55.2623599,44.087619 54.8961362,44.087619 C54.7218046,44.087619 54.6345116,44.1224127 54.5734319,44.2008889 C54.5123522,44.2791111 54.4601799,44.487873 54.4601799,44.7314286 C54.4601799,45.0184127 54.3118072,45.1489524 54.0331311,45.1489524 C53.7977198,45.1489524 53.6231337,45.0270476 53.6231337,44.7662222 C53.6231337,44.6184127 53.6842134,44.5051429 53.7628535,44.4007619 C53.963144,44.1485714 54.4863933,43.9832381 54.9134422,43.9832381 C55.6634499,43.9832381 56.2734833,44.2440635 56.2734833,44.9229206 C56.2734833,45.2099048 56.2561774,46.4104127 56.2561774,46.9498413 C56.2561774,47.3414603 56.2734833,47.5240635 56.3521234,47.6025397 C56.3956427,47.6546032 56.4653753,47.6807619 56.5526684,47.6807619 C56.631054,47.6807619 56.7443059,47.6546032 56.8140386,47.6111746 L56.8140386,47.6546032 C56.7443059,47.7328254 56.4042956,47.8633651 56.0469794,47.8633651 L56.0469794,47.8633651 Z M54.8788303,45.8971429 C54.6607249,46.0190476 54.5647789,46.1234286 54.4863933,46.2626032 C54.4077532,46.4017778 54.3642339,46.6542222 54.3642339,46.8977778 C54.3642339,47.376254 54.5212596,47.5936508 54.8350566,47.5936508 C55.0529075,47.5936508 55.3320925,47.2977778 55.3320925,46.8368254 L55.3407455,45.5405714 C55.2010257,45.7318095 55.0356015,45.8189206 54.8788303,45.8971429 L54.8788303,45.8971429 Z" id="Fill-11" fill="#FFFFFF"></path>
                    <path d="M59.2114165,47.7851429 L59.2114165,47.7503492 C59.2811491,47.7414603 59.3422288,47.7328254 59.403054,47.7069206 C59.5776401,47.6370794 59.6384653,47.576381 59.6822391,47.3500952 C59.7171054,47.176127 59.7171054,46.9325714 59.7171054,46.6976508 L59.7171054,45.0793651 C59.7171054,44.7141587 59.699545,44.5488254 59.603599,44.4269206 C59.5163059,44.3139048 59.403054,44.2529524 59.1589897,44.2529524 C58.8976195,44.2529524 58.4443573,44.5401905 58.3830231,45.2446984 C58.3657172,45.4620952 58.3484113,45.679746 58.3484113,45.9408254 L58.3484113,46.6976508 C58.3484113,46.9325714 58.3484113,47.1847619 58.3830231,47.3500952 C58.4354499,47.5850159 58.4965296,47.6370794 58.6622082,47.7069206 C58.7316864,47.7328254 58.7930206,47.7414603 58.8538458,47.7503492 L58.8538458,47.7851429 L56.9272905,47.7851429 L56.9272905,47.7503492 C56.9883702,47.7414603 57.0578483,47.7328254 57.1278355,47.7069206 C57.2846067,47.6370794 57.3632468,47.6025397 57.415419,47.367619 C57.4589383,47.2022857 57.4416324,46.8977778 57.4416324,46.6455873 L57.4416324,45.1489524 C57.4416324,44.983873 57.4416324,44.6095238 57.4243265,44.4703492 C57.3978586,44.3050159 57.3456864,44.2354286 57.2759537,44.1747302 C57.1800077,44.1137778 57.0578483,44.1051429 56.9797172,44.1051429 L56.9797172,44.0528254 L58.313545,44.0528254 C58.3484113,44.0528254 58.3657172,44.0787302 58.3657172,44.1137778 C58.3657172,44.1399365 58.3484113,44.8619683 58.3484113,44.9053968 L58.3657172,44.9053968 C58.4789692,44.5488254 58.6795141,44.3486984 58.8538458,44.2181587 C59.0543907,44.0700952 59.3681877,43.9746032 59.5776401,43.9746032 C59.9784756,43.9746032 60.2227943,44.0528254 60.3882185,44.2704762 C60.5103779,44.4182857 60.6236298,44.7141587 60.6236298,45.1489524 L60.6236298,46.6455873 C60.6236298,46.8977778 60.6149769,47.1933968 60.6587506,47.367619 C60.7109229,47.5936508 60.7806555,47.6370794 60.9463342,47.7069206 C61.0160668,47.7328254 61.076892,47.7414603 61.1382262,47.7503492 L61.1382262,47.7851429 L59.2114165,47.7851429" id="Fill-12" fill="#FFFFFF"></path>
                    <path d="M90.1392005,47.8633651 C89.7208046,47.8633651 89.258635,47.6807619 89.0407841,47.3153016 L89.0232237,47.3153016 L88.4042828,47.8024127 L88.3694165,47.8024127 C88.3867224,47.5502222 88.3956298,47.2632381 88.3956298,47.0455873 L88.3956298,42.5650794 C88.3956298,42.4695873 88.3956298,42.3652063 88.3780694,42.2953651 C88.3694165,42.1300317 88.2910308,42.0431746 88.1861774,41.9822222 C88.0991388,41.9212698 87.9334602,41.8864762 87.8550746,41.8778413 L87.8550746,41.8344127 L89.258635,41.8344127 C89.2935013,41.8344127 89.3197147,41.8516825 89.3197147,41.904 C89.3197147,42.0690794 89.2935013,42.5564444 89.2935013,42.9305397 L89.2935013,44.7227937 L89.3197147,44.7227937 C89.4591799,44.2440635 89.8775758,43.9746032 90.3659589,43.9746032 C91.1157121,43.9746032 91.8652108,44.4703492 91.8652108,45.9233016 C91.8652108,47.3414603 90.9586864,47.8633651 90.1392005,47.8633651 L90.1392005,47.8633651 Z M89.555126,44.4530794 C89.3981003,44.6791111 89.2935013,45.0097778 89.2935013,45.5405714 L89.2935013,46.4713651 C89.2935013,46.9064127 89.3721414,47.2281905 89.4940463,47.4372063 C89.6335116,47.6632381 89.8862288,47.767619 90.0781208,47.767619 C90.635982,47.767619 90.8800463,46.9584762 90.8800463,45.9494603 C90.8800463,44.7486984 90.6186761,44.1485714 90.1478535,44.1485714 C89.9648689,44.1485714 89.7121517,44.2181587 89.555126,44.4530794 L89.555126,44.4530794 Z" id="Fill-13" fill="#FFFFFF"></path>
                    <path d="M94.8466632,47.8633651 C94.602599,47.8633651 94.4196144,47.8372063 94.306108,47.7589841 C94.201509,47.6893968 94.1493368,47.5415873 94.1406838,47.2891429 L94.1233779,47.2891429 C93.9923111,47.6457143 93.6696067,47.8633651 93.1641722,47.8633651 C92.6671362,47.8633651 92.2049666,47.5674921 92.2049666,46.9150476 C92.2049666,46.6714921 92.2487404,46.5236825 92.423072,46.3408254 C92.6671362,46.0711111 93.0855321,46.0365714 93.3995835,45.9146667 C93.9750051,45.7231746 94.1493368,45.4361905 94.1493368,45.1664762 C94.1493368,45.0445714 94.1579897,44.7486984 94.1579897,44.6184127 C94.1579897,44.192 94.0620437,44.087619 93.6960746,44.087619 C93.5214884,44.087619 93.4341954,44.1224127 93.3733702,44.2008889 C93.3122905,44.2791111 93.2601183,44.487873 93.2601183,44.7314286 C93.2601183,45.0184127 93.1117455,45.1489524 92.8328149,45.1489524 C92.5974036,45.1489524 92.423072,45.0270476 92.423072,44.7662222 C92.423072,44.6184127 92.4841517,44.5051429 92.5627918,44.4007619 C92.7630823,44.1485714 93.2860771,43.9832381 93.7133805,43.9832381 C94.4631337,43.9832381 95.0734216,44.2440635 95.0734216,44.9229206 C95.0734216,45.2099048 95.0561157,46.4104127 95.0561157,46.9498413 C95.0561157,47.3414603 95.0734216,47.5240635 95.1520617,47.6025397 C95.1953265,47.6546032 95.2653136,47.6807619 95.3526067,47.6807619 C95.4307378,47.6807619 95.5442442,47.6546032 95.6139769,47.6111746 L95.6139769,47.6546032 C95.5442442,47.7328254 95.2042339,47.8633651 94.8466632,47.8633651 L94.8466632,47.8633651 Z M93.6785141,45.8971429 C93.4606632,46.0190476 93.3647172,46.1234286 93.2860771,46.2626032 C93.2076915,46.4017778 93.1641722,46.6542222 93.1641722,46.8977778 C93.1641722,47.376254 93.3209434,47.5936508 93.6349949,47.5936508 C93.8528458,47.5936508 94.1320308,47.2977778 94.1320308,46.8368254 L94.1406838,45.5405714 C94.000964,45.7318095 93.8355398,45.8189206 93.6785141,45.8971429 L93.6785141,45.8971429 Z" id="Fill-14" fill="#FFFFFF"></path>
                    <path d="M98.3335501,45.0011429 C98.0894859,45.0011429 97.967581,44.8358095 97.8978483,44.6356825 C97.8281157,44.4792381 97.7932494,44.4182857 97.6973033,44.4182857 C97.5489306,44.4182857 97.2353882,44.8444444 97.1743085,45.5144127 C97.1656555,45.584 97.1567481,45.8275556 97.1567481,46.0452063 L97.1567481,46.6887619 C97.1567481,46.9239365 97.1480951,47.1847619 97.1829614,47.3500952 C97.2353882,47.5850159 97.3048663,47.6370794 97.4707995,47.7069206 C97.5402776,47.7328254 97.6189177,47.7414603 97.6886504,47.7503492 L97.6886504,47.7851429 L95.7269743,47.7851429 L95.7269743,47.7503492 C95.7883085,47.7414603 95.8664396,47.7328254 95.9361722,47.7069206 C96.0931979,47.6370794 96.1542776,47.6025397 96.2064499,47.367619 C96.2502237,47.2022857 96.2502237,46.8891429 96.2502237,46.6455873 L96.2502237,45.1403175 C96.2502237,44.983873 96.2415707,44.6008889 96.2240103,44.4617143 C96.1977969,44.296381 96.1542776,44.2354286 96.0756375,44.1747302 C95.988599,44.1137778 95.8577866,44.1051429 95.779401,44.096254 L95.779401,44.0528254 L97.1134833,44.0528254 C97.1480951,44.0528254 97.1656555,44.087619 97.1656555,44.1137778 C97.1656555,44.1399365 97.1567481,44.9749841 97.1567481,45.0184127 L97.1656555,45.0184127 C97.2789075,44.6008889 97.4881054,44.3139048 97.6362237,44.192 C97.7756889,44.0787302 97.9762339,43.9746032 98.2202982,43.9746032 C98.3335501,43.9746032 98.5603085,44.0180317 98.6649075,44.1224127 C98.7435476,44.2095238 98.7873213,44.3311746 98.7873213,44.5401905 C98.7873213,44.8010159 98.6127352,45.0011429 98.3335501,45.0011429" id="Fill-15" fill="#FFFFFF"></path>
                    <path d="M84.8107969,47.9156825 C84.4445733,47.9156825 84.2613342,47.8110476 84.0786041,47.5415873 C84.008617,47.5067937 83.9302314,47.4196825 83.8345398,47.3066667 C83.4856221,47.6546032 83.0147995,47.9067937 82.3434319,47.9067937 C81.3409614,47.9067937 80.6522879,47.2281905 80.6522879,46.4017778 C80.6522879,45.5319365 81.3409614,44.9925079 81.916383,44.6184127 C81.8293445,44.4965079 81.7247455,44.3659683 81.6374524,44.2354286 C81.4020411,43.8874921 81.2712288,43.4610794 81.2712288,43.200254 C81.2712288,42.5564444 81.8293445,41.9560635 82.5874961,41.9560635 C83.3899306,41.9560635 83.712126,42.3738413 83.703473,42.8434286 C83.6948201,43.4699683 83.2588638,43.8615873 82.9015476,44.1572063 C83.0934396,44.392127 83.2939846,44.6532063 83.5118355,44.9401905 C83.7299409,45.2446984 84.0786041,45.7493333 84.3748406,46.2105397 C84.505653,45.8971429 84.6105064,45.5492063 84.7061979,45.2012698 C84.7586247,45.0097778 84.7672776,44.8010159 84.7672776,44.583619 C84.7672776,44.392127 84.7148509,44.2704762 84.5318663,44.1485714 C84.4272674,44.0787302 84.305108,44.0614603 84.1656427,44.0441905 L84.1656427,43.991873 L85.9440797,43.991873 L85.9440797,44.0441905 C85.8219203,44.0614603 85.682455,44.0787302 85.5518972,44.1658413 C85.4210848,44.2529524 85.2991799,44.3659683 85.2032339,44.5051429 C85.1332468,44.6095238 85.0373008,44.792381 84.8891825,45.2271746 C84.7932365,45.5057778 84.6799846,45.9408254 84.4794396,46.375619 C84.6278123,46.6105397 84.7497172,46.8281905 84.8545707,46.9935238 C85.0459537,47.3066667 85.2640591,47.4544762 85.4472982,47.4544762 C85.682455,47.4544762 85.9529871,47.3153016 86.0138123,47.2281905 L86.0486787,47.271873 C85.9178663,47.5240635 85.4297378,47.9156825 84.8107969,47.9156825 L84.8107969,47.9156825 Z M83.4680617,46.7845079 C83.1980386,46.3583492 82.8493753,45.8450794 82.6312699,45.5492063 L82.0820617,44.8271746 C81.8115296,45.1403175 81.7160925,45.5144127 81.7160925,46.1495873 C81.7160925,47.0455873 82.2474859,47.5588571 82.8142545,47.5588571 C83.1980386,47.5588571 83.4856221,47.4110476 83.7210334,47.1588571 L83.4680617,46.7845079 L83.4680617,46.7845079 Z M82.6747892,42.0952381 C82.3434319,42.0952381 82.0993676,42.2867302 82.0993676,42.704254 C82.0993676,43.1045079 82.3785527,43.4786032 82.8056015,44.0355556 C83.1020925,43.7658413 83.2764242,43.4610794 83.2764242,42.8695873 C83.2764242,42.3911111 83.0758792,42.0952381 82.6747892,42.0952381 L82.6747892,42.0952381 Z" id="Fill-16" fill="#FFFFFF"></path>
                    <path d="M65.3899177,47.2805079 C65.2764113,47.5415873 64.8842288,47.8633651 64.4396195,47.8633651 C64.0820488,47.8633651 63.8206787,47.7937778 63.6376941,47.6198095 C63.454455,47.4544762 63.3847224,47.2543492 63.3847224,46.9239365 C63.3847224,46.7497143 63.4106812,44.6270476 63.4195887,44.2008889 C63.2712159,44.1833651 63.0360591,44.192 62.9052468,44.1747302 L62.9052468,44.1137778 C63.5417481,43.991873 63.9685424,43.5829841 64.2477275,42.5216508 L64.3350206,42.5216508 L64.3350206,44.0528254 L65.1804653,44.0528254 L65.1804653,44.2095238 L64.3350206,44.2095238 L64.2998997,47.0369524 C64.2998997,47.3500952 64.4044987,47.5674921 64.7623239,47.5674921 C64.9888278,47.5674921 65.2242391,47.4631111 65.3550514,47.2543492 L65.3899177,47.2805079" id="Fill-17" fill="#FFFFFF"></path>
                    <path d="M68.1448663,47.8633651 C67.9008021,47.8633651 67.717563,47.8372063 67.6043111,47.7589841 C67.4997121,47.6893968 67.4472853,47.5415873 67.4386324,47.2891429 L67.4213265,47.2891429 C67.2902596,47.6457143 66.9678098,47.8633651 66.4621208,47.8633651 C65.9650848,47.8633651 65.5031697,47.5674921 65.5031697,46.9150476 C65.5031697,46.6714921 65.5469434,46.5236825 65.7210206,46.3408254 C65.9650848,46.0711111 66.3837352,46.0365714 66.6975321,45.9146667 C67.2729537,45.7231746 67.4472853,45.4361905 67.4472853,45.1664762 C67.4472853,45.0445714 67.4561928,44.7486984 67.4561928,44.6184127 C67.4561928,44.192 67.3602468,44.087619 66.9940231,44.087619 C66.8196915,44.087619 66.7323985,44.1224127 66.6715733,44.2008889 C66.6102391,44.2791111 66.5580668,44.487873 66.5580668,44.7314286 C66.5580668,45.0184127 66.4096941,45.1489524 66.131018,45.1489524 C65.8956067,45.1489524 65.7210206,45.0270476 65.7210206,44.7662222 C65.7210206,44.6184127 65.7823548,44.5051429 65.8607404,44.4007619 C66.0610308,44.1485714 66.5842802,43.9832381 67.0115835,43.9832381 C67.7613368,43.9832381 68.3713702,44.2440635 68.3713702,44.9229206 C68.3713702,45.2099048 68.3540643,46.4104127 68.3540643,46.9498413 C68.3540643,47.3414603 68.3713702,47.5240635 68.4500103,47.6025397 C68.4935296,47.6546032 68.5632622,47.6807619 68.6505553,47.6807619 C68.7289409,47.6807619 68.8421928,47.6546032 68.9119254,47.6111746 L68.9119254,47.6546032 C68.8421928,47.7328254 68.5021825,47.8633651 68.1448663,47.8633651 L68.1448663,47.8633651 Z M66.9767172,45.8971429 C66.7586118,46.0190476 66.6626658,46.1234286 66.5842802,46.2626032 C66.5056401,46.4017778 66.4621208,46.6542222 66.4621208,46.8977778 C66.4621208,47.376254 66.6191465,47.5936508 66.9329434,47.5936508 C67.1507943,47.5936508 67.4299794,47.2977778 67.4299794,46.8368254 L67.4386324,45.5405714 C67.2989126,45.7318095 67.1334884,45.8189206 66.9767172,45.8971429 L66.9767172,45.8971429 Z" id="Fill-18" fill="#FFFFFF"></path>
                    <path d="M71.1087584,47.8633651 C70.6903625,47.8633651 70.2281928,47.6807619 70.0103419,47.3153016 L69.9927815,47.3153016 L69.3738406,47.8024127 L69.3389743,47.8024127 C69.3562802,47.5502222 69.3651877,47.2632381 69.3651877,47.0455873 L69.3651877,42.5650794 C69.3651877,42.4695873 69.3651877,42.3652063 69.3476272,42.2953651 C69.3389743,42.1300317 69.2605887,42.0431746 69.1557352,41.9822222 C69.0686967,41.9212698 68.903018,41.8864762 68.8246324,41.8778413 L68.8246324,41.8344127 L70.2281928,41.8344127 C70.2630591,41.8344127 70.2892725,41.8516825 70.2892725,41.904 C70.2892725,42.0690794 70.2630591,42.5564444 70.2630591,42.9305397 L70.2630591,44.7227937 L70.2892725,44.7227937 C70.4287378,44.2440635 70.8471337,43.9746032 71.3355167,43.9746032 C72.0852699,43.9746032 72.8347686,44.4703492 72.8347686,45.9233016 C72.8347686,47.3414603 71.9282442,47.8633651 71.1087584,47.8633651 L71.1087584,47.8633651 Z M70.5246838,44.4530794 C70.3676581,44.6791111 70.2630591,45.0097778 70.2630591,45.5405714 L70.2630591,46.4713651 C70.2630591,46.9064127 70.3416992,47.2281905 70.4636041,47.4372063 C70.6030694,47.6632381 70.8560411,47.767619 71.0476787,47.767619 C71.6055398,47.767619 71.8496041,46.9584762 71.8496041,45.9494603 C71.8496041,44.7486984 71.5882339,44.1485714 71.1174113,44.1485714 C70.9344267,44.1485714 70.6817095,44.2181587 70.5246838,44.4530794 L70.5246838,44.4530794 Z" id="Fill-19" fill="#FFFFFF"></path>
                    <path d="M73.1223522,47.7851429 L73.1223522,47.7414603 C73.1834319,47.7328254 73.2445116,47.7328254 73.3142442,47.7069206 C73.4710154,47.6370794 73.5410026,47.5936508 73.6018278,47.367619 C73.6366941,47.1933968 73.6456015,46.8977778 73.6456015,46.6455873 L73.6456015,42.9305397 C73.6456015,42.7738413 73.6366941,42.3824762 73.6191337,42.2433016 C73.5931748,42.0779683 73.5410026,42.0170159 73.4623625,41.9560635 C73.3750694,41.8864762 73.2531645,41.8864762 73.1745244,41.8778413 L73.1745244,41.8344127 L74.5086067,41.8344127 C74.543473,41.8344127 74.5610334,41.8516825 74.5610334,41.8951111 C74.5610334,42.0259048 74.552126,42.2085079 74.552126,42.4434286 L74.552126,46.6455873 C74.552126,46.8977778 74.543473,47.1933968 74.5869923,47.367619 C74.6391645,47.5936508 74.7178046,47.6370794 74.8748303,47.7069206 C74.944563,47.7328254 75.0142956,47.7328254 75.0751208,47.7414603 L75.0751208,47.7851429 L73.1223522,47.7851429" id="Fill-20" fill="#FFFFFF"></path>
                    <path d="M88.6413933,16.5135238 C88.6413933,7.46311111 82.5206992,0.10615873 74.344928,0.10615873 C66.1686478,0.10615873 60.0482082,7.46311111 60.0482082,16.5135238 C60.0482082,25.5644444 66.1686478,32.920127 74.344928,32.920127 C82.5206992,32.920127 88.6413933,25.5644444 88.6413933,16.5135238 M81.8959049,16.5135238 C81.8959049,23.5128889 80.1085604,32.1183492 74.344928,32.1183492 C68.5815501,32.1183492 66.7942057,23.5128889 66.7942057,16.5135238 C66.7942057,9.51365079 68.5815501,0.908952381 74.344928,0.908952381 C80.1085604,0.908952381 81.8959049,9.51365079 81.8959049,16.5135238 M48.0661542,15.5773968 L48.0661542,15.488254 C52.6692725,14.8198095 55.5725938,12.3230476 55.5725938,8.26565079 C55.5725938,2.87060317 50.8356093,0.819809524 44.9831568,0.819809524 L33.9936478,0.819809524 L33.9936478,32.2074921 L46.7705013,32.2074921 C52.5789254,32.2074921 57.3146375,29.2203175 57.3146375,23.8699683 C57.3146375,18.7428571 53.5167532,15.8448254 48.0661542,15.5773968 M44.1791954,15.3094603 L40.3377918,15.3094603 L40.3377918,1.62234921 L44.1791954,1.62234921 C47.7090925,1.62234921 49.2276864,5.23326984 49.2276864,8.44393651 C49.2276864,11.6091429 47.7090925,15.3094603 44.1791954,15.3094603 M50.79209,23.7808254 C50.79209,27.3470476 48.8260874,31.4046984 44.3138252,31.4046984 L40.3377918,31.4046984 L40.3377918,16.112 L44.3138252,16.112 C48.8260874,16.112 50.79209,20.2140952 50.79209,23.7808254 M29.807653,16.5135238 C29.807653,7.46311111 23.6872134,0.10615873 15.5106787,0.10615873 C7.33592545,0.10615873 1.21370437,7.46311111 1.21370437,16.5135238 C1.21370437,25.5644444 7.33592545,32.920127 15.5106787,32.920127 C23.6872134,32.920127 29.807653,25.5644444 29.807653,16.5135238 M23.061401,16.5135238 C23.061401,23.5128889 21.2740566,32.1183492 15.5106787,32.1183492 C9.74704627,32.1183492 7.96071979,23.5128889 7.96071979,16.5135238 C7.96071979,9.51365079 9.74704627,0.908952381 15.5106787,0.908952381 C21.2740566,0.908952381 23.061401,9.51365079 23.061401,16.5135238" id="Fill-21" fill="#FFFFFF"></path>
                    <path d="M98.8592622,5.73511111 C98.8592622,2.02793651 97.023563,0.10615873 94.8300386,0.10615873 C92.7268612,0.10615873 91.2937789,1.62514286 91.2937789,3.50120635 C91.2937789,5.37701587 92.8169537,6.89625397 94.6964267,6.89625397 C96.2631208,6.89625397 97.5608098,5.86895238 97.9634267,4.43911111 C98.0092365,4.84190476 98.0535193,5.28812698 98.0535193,5.73511111 C98.0535193,9.71073016 94.3380925,12.9267302 94.3380925,12.9267302 L94.8300386,13.5525079 C94.8300386,13.5525079 98.8592622,10.1569524 98.8592622,5.73511111" id="Fill-22" fill="#FFFFFF"></path>
                </g>
            </g>
        </g>
    </g>
</svg>