<?xml version="1.0" encoding="UTF-8"?>
<svg id="Layer_2" data-name="Layer 2" xmlns="http://www.w3.org/2000/svg" viewBox="0 0 432 208.15">
  <defs>
    <style>
      .cls-1 {
        fill: #fff;
      }
    </style>
  </defs>
  <g id="Layer_1-2" data-name="Layer 1">
    <g>
      <g>
        <path class="cls-1" d="M33.08,75.72c-2.31-1.14-5.31-2.28-9.01-3.42-2.68-.85-4.78-1.62-6.32-2.31-1.54-.68-2.82-1.58-3.84-2.69-1.02-1.11-1.54-2.52-1.54-4.23,0-2.11.82-3.79,2.48-5.04,1.53-1.16,3.55-1.78,6.05-1.86,2.45.09,4.43.85,5.93,2.29,1.59,1.54,2.39,3.62,2.39,6.24v.94h10.21v-1.02c0-5.69-.88-9.95-4.39-12.77-3.5-2.82-8.02-4.23-13.54-4.23-.19,0-.36.01-.55.02-.18,0-.36-.02-.54-.02-5.52,0-10.11,1.4-13.76,4.19-3.64,2.79-5.47,6.78-5.47,11.96,0,3.76.8,6.78,2.39,9.06,1.59,2.28,3.52,4,5.77,5.17,2.25,1.17,5.17,2.32,8.76,3.46,2.85.97,5.05,1.81,6.62,2.52,1.57.71,2.89,1.71,3.97,2.99,1.08,1.28,1.62,2.92,1.62,4.91,0,2.34-.84,4.23-2.52,5.68-1.58,1.36-3.9,2.07-6.95,2.16-2.85-.09-5.16-.94-6.92-2.59-1.85-1.74-2.78-4.11-2.78-7.13l.09-1.54H.09l-.09,1.79c0,3.99.9,7.33,2.69,10.04,1.79,2.71,4.21,4.71,7.26,6.02,3.05,1.31,6.42,1.96,10.12,1.96.16,0,.31-.01.47-.01.21,0,.41.01.62.01,6.32,0,11.29-1.46,14.91-4.4,3.62-2.93,5.42-7.59,5.42-13.97,0-3.7-.83-6.71-2.48-9.01-1.65-2.31-3.63-4.03-5.94-5.17h0Z"/>
        <path class="cls-1" d="M429.52,80.88c-1.65-2.31-3.63-4.03-5.94-5.17-2.31-1.14-5.31-2.28-9.01-3.42-2.68-.85-4.78-1.62-6.32-2.31-1.54-.68-2.82-1.58-3.84-2.69-1.02-1.11-1.54-2.52-1.54-4.23,0-2.11.83-3.79,2.48-5.04,1.53-1.16,3.55-1.78,6.05-1.86,2.45.09,4.43.85,5.93,2.29,1.59,1.54,2.39,3.62,2.39,6.24v.94h11.08v-1.02c0-5.69-1.75-9.95-5.25-12.77-3.5-2.82-8.02-4.23-13.54-4.23-.19,0-.36.01-.55.02-.18,0-.36-.02-.54-.02-5.52,0-10.11,1.4-13.76,4.19-3.64,2.79-5.47,6.78-5.47,11.96,0,3.76.8,6.78,2.39,9.06,1.59,2.28,3.52,4,5.77,5.17,2.25,1.17,5.17,2.32,8.76,3.46,2.85.97,5.05,1.81,6.62,2.52,1.57.71,2.89,1.71,3.97,2.99,1.08,1.28,1.62,2.92,1.62,4.91,0,2.34-.84,4.23-2.52,5.68-1.58,1.36-3.9,2.07-6.95,2.16-2.85-.09-5.16-.94-6.92-2.59-1.85-1.74-2.78-4.11-2.78-7.13l.09-1.54h-11.17l-.09,1.79c0,3.99.9,7.33,2.69,10.04s4.21,4.71,7.26,6.02c3.05,1.31,6.42,1.96,10.12,1.96.16,0,.31-.01.47-.01.21,0,.41.01.62.01,6.32,0,11.29-1.46,14.91-4.4,3.62-2.93,5.42-7.59,5.42-13.97,0-3.7-.83-6.71-2.48-9.01h0Z"/>
        <polygon class="cls-1" points="72.31 81.96 87.32 81.96 87.32 71.95 72.31 71.95 72.31 58.33 92 58.33 92 48.33 60.99 48.33 60.99 107.54 92.82 107.54 92.82 97.54 72.31 97.54 72.31 81.96"/>
        <polygon class="cls-1" points="125.62 48.33 114.3 48.33 114.3 107.54 143.83 107.54 143.83 97.54 125.62 97.54 125.62 48.33"/>
        <polygon class="cls-1" points="174.34 48.33 163.02 48.33 163.02 107.54 192.54 107.54 192.54 97.54 174.34 97.54 174.34 48.33"/>
        <path class="cls-1" d="M222.39,48.33l-14.68,59.22h10.91l3.2-12.47h15.67l2.87,12.47h10.83l-14.27-59.22h-14.52,0ZM223.87,85.07l5.58-23.95h.16l5.5,23.95h-11.24Z"/>
        <polygon class="cls-1" points="298.59 83.43 298.42 83.43 282.67 48.33 270.29 48.33 270.29 107.54 280.62 107.54 280.62 69.32 280.79 69.32 298.09 107.54 308.92 107.54 308.92 48.33 298.59 48.33 298.59 83.43"/>
        <path class="cls-1" d="M352.35,48.33h-20.31v59.22h20.31c12.96,0,20.18-5.58,20.67-20.51v-18.21c-.49-14.93-7.71-20.5-20.67-20.5h0ZM361.7,85.73c0,8.86-3.61,11.81-9.84,11.81h-8.5v-39.21h8.5c7.05,0,9.84,3.44,9.84,11.81v15.58h0Z"/>
      </g>
      <g>
        <path class="cls-1" d="M135.65.42h15.04v2.81h-11.77v3.9h10.13v2.81h-10.13v4.43h12.04v2.81h-15.32V.42Z"/>
        <path class="cls-1" d="M172.43,5.52c-.53-1.5-1.89-2.79-5.88-2.79-2.21,0-4.45.56-4.45,2.1,0,.72.42,1.48,3.76,1.89l3.97.6c3.76.58,5.98,2.03,5.98,4.85,0,3.97-3.79,5.44-8.26,5.44-7.2,0-8.95-3.55-9.34-4.82l3.16-.99c.6,1.22,1.85,3,6.27,3,2.68,0,4.89-.88,4.89-2.33,0-1.08-1.25-1.8-3.65-2.1l-4.01-.55c-3.88-.53-6.04-2.22-6.04-4.78C158.82,0,165.35,0,166.64,0c7.22,0,8.47,3.35,8.88,4.5l-3.09,1.02h0Z"/>
        <path class="cls-1" d="M190.34,3.23h-7.5V.42h18.27v2.81h-7.5v13.96h-3.27V3.23Z"/>
        <path class="cls-1" d="M221.95,14.88l8.51-5.17c1.8-1.09,3.51-2.15,3.53-4.06.02-3.02-3.44-3.02-4.31-3.02-2.84,0-3.99,1.48-4.45,3.25h-3.07c0-2.38,2.05-5.89,7.5-5.89,3.83,0,7.4,1.36,7.4,5.7,0,2.77-1.89,4.5-4.15,5.77l-5.21,2.95v.05h9.16v2.72h-14.9v-2.31h0Z"/>
        <path class="cls-1" d="M252.22,0c5.4,0,7.55,3.9,7.55,8.81,0,5.93-3.07,8.79-7.54,8.79s-7.59-2.86-7.59-8.79C244.63,3.9,246.82,0,252.22,0h0ZM252.22,14.98c2.63,0,4.48-2.01,4.48-6.16,0-2.95-.83-6.18-4.48-6.18s-4.52,3.23-4.52,6.18c0,4.15,1.89,6.16,4.52,6.16h0Z"/>
        <path class="cls-1" d="M274.65,0c5.4,0,7.55,3.9,7.55,8.81,0,5.93-3.07,8.79-7.55,8.79s-7.59-2.86-7.59-8.79C267.06,3.9,269.25,0,274.65,0ZM274.65,14.98c2.63,0,4.48-2.01,4.48-6.16,0-2.95-.83-6.18-4.48-6.18s-4.52,3.23-4.52,6.18c0,4.15,1.89,6.16,4.52,6.16Z"/>
        <path class="cls-1" d="M290.43,2.4c1.8-.25,3.34-.81,4.66-2.4h1.71v17.19h-2.91V4.29h-3.46v-1.89Z"/>
      </g>
      <g>
        <path class="cls-1" d="M63.36,139.78c-.13.26-.24.56-.31.9v.02s-.01,23.65-.01,23.65h-3.53l-13.97-19.88v18.36s.01.03.01.03c.08.34.18.65.31.9l.3.59h-4.34l.3-.59c.13-.26.24-.56.31-.9v-22.13s0-.03,0-.03c-.08-.34-.18-.64-.31-.9l-.3-.59h3.76l14.36,20.37v-18.85s-.01-.03-.01-.03c-.08-.34-.18-.65-.31-.9l-.3-.59h4.33l-.3.59h0Z"/>
        <path class="cls-1" d="M88.98,160.6l-.46,3.73h-13.9l.3-.59c.13-.26.24-.56.31-.9v-22.13s0-.03,0-.03c-.08-.34-.18-.65-.31-.9l-.3-.59h14.09v3.75l-.58-.27c-.4-.18-1.07-.4-2.05-.41h-7.77v7.23h8.55c.21-.04.4-.1.57-.16l.55-.21v3.78l-.55-.2s-.16-.04-.49-.1l-.12-.02h-8.52v8.69h8.78c.39,0,.81-.1,1.21-.31l.69-.35h0Z"/>
        <path class="cls-1" d="M103.21,163.75l.3.59h-4.33l.3-.59c.13-.26.24-.56.31-.9v-22.13s0-.03,0-.03c-.07-.34-.18-.64-.31-.9l-.3-.59h4.34l-.3.59c-.13.26-.24.56-.31.9v22.13s0,.03,0,.03c.08.34.18.64.31.9h0Z"/>
        <path class="cls-1" d="M135.57,151.44l-.29.59c-.12.25-.23.55-.3.88h0s0,8.25,0,8.25l-.12.12c-3.38,3.42-6.08,3.42-8.24,3.42-7.11,0-12.9-5.79-12.9-12.9v-.08c0-7.12,5.79-12.9,12.9-12.9,2.75,0,4.91.45,6.59,1.39l.21.12v3.14l-.6-.32c-2.41-1.29-4.93-1.3-6.01-1.3h-.28c-2.56,0-4.97,1.02-6.78,2.88-1.83,1.87-2.83,4.37-2.83,7.04s1.02,5.19,2.86,7.05c1.83,1.85,4.26,2.87,6.85,2.87,3.83,0,5.13-1.84,5.18-1.92l.02-.04v-6.8s0-.03,0-.03c-.07-.33-.17-.62-.3-.87l-.29-.59h4.34Z"/>
        <path class="cls-1" d="M166.17,163.75l.3.59h-4.34l.3-.59c.13-.26.24-.56.31-.9v-10.25s-13.19,0-13.19,0v10.22s.01.03.01.03c.08.34.18.64.31.9l.3.59h-4.33l.3-.59c.13-.26.23-.56.31-.9v-22.13s0-.03,0-.03c-.08-.34-.18-.65-.31-.9l-.3-.59h4.34l-.3.59c-.13.26-.24.56-.31.9v9.09h13.18v-9.06s-.01-.03-.01-.03c-.08-.34-.18-.65-.31-.9l-.3-.59h4.34l-.3.59c-.13.26-.24.56-.31.9v22.13s0,.03,0,.03c.08.34.18.65.31.9h0Z"/>
        <path class="cls-1" d="M192.31,161.84c-.68.77-1.49,1.38-2.41,1.84-.86.42-2,.66-3.21.66h-9.27l.3-.59c.13-.26.24-.56.31-.9v-22.14s0-.03,0-.03c-.08-.34-.18-.65-.31-.9l-.3-.59h6.66c1.83,0,3.41.26,4.45.74,1.07.49,1.91,1.25,2.52,2.26.6,1.02.91,2.09.91,3.2,0,1.45-.37,3.45-2.13,4.82l-.23.17.34.14c.48.21.9.44,1.27.71,1.7,1.25,2.75,2.97,2.96,4.85.23,2.09-.43,4.15-1.86,5.77h0ZM190.06,154.23c-.86-1.1-2.24-1.87-3.35-1.87h-5.61l.02,9.17h5.4c.61,0,1.21-.14,1.76-.41,1.38-.67,2.39-1.84,2.69-3.14.32-1.37.03-2.56-.9-3.76h0ZM181.14,141.99v7.45s3.48,0,3.79,0c1.87,0,3.96-1.58,3.96-3.69,0-.82-.19-1.56-.58-2.2-.39-.65-.91-1.06-1.64-1.3-.48-.16-1.13-.25-2.04-.27h-3.5,0Z"/>
        <path class="cls-1" d="M229.53,151.76c0,7.14-5.86,12.95-13.07,12.95s-13.05-5.8-13.05-12.92,5.85-12.92,13.05-12.92c3.49,0,6.77,1.34,9.24,3.78s3.83,5.68,3.83,9.12h0ZM226.31,151.78c0-5.55-4.34-9.9-9.87-9.9s-9.89,4.35-9.89,9.9,4.34,9.9,9.89,9.9,9.87-4.35,9.87-9.9Z"/>
        <path class="cls-1" d="M258.96,164.36h-4.33l-.05-.34c-.11-.66-.63-1.42-.83-1.71-.03-.04-1.78-2.72-3.25-4.96l-1.83-2.79h-.08c-.42.05-.84.07-1.27.07h-3.87v8.23c.08.34.18.65.32.9l.3.59h-4.34l.3-.59c.13-.26.24-.56.31-.9v-22.13s0-.03,0-.03c-.08-.34-.18-.65-.31-.9l-.3-.59h7.38c2.85,0,4.95.71,6.4,2.16,1.34,1.34,2.02,3.17,2.02,5.46s-.68,4.11-2.02,5.45c-.5.5-1.09.93-1.73,1.28l-.13.07,6.13,9.39c.21.25.4.47.58.67l.59.68h0ZM252.4,146.98v-.12c0-3.3-1.62-4.85-5.1-4.85h-3.86v9.72h3.86c1.63,0,2.82-.37,3.74-1.15.85-.72,1.35-2.07,1.35-3.6Z"/>
        <path class="cls-1" d="M288.44,163.75l.3.59h-4.34l.3-.59c.13-.26.24-.56.31-.9v-10.25s-13.18,0-13.18,0v10.22s.01.03.01.03c.08.34.18.64.31.9l.3.59h-4.33l.3-.59c.13-.26.23-.56.31-.9v-22.13s0-.03,0-.03c-.08-.34-.18-.65-.31-.9l-.3-.59h4.34l-.3.59c-.13.26-.24.56-.31.9v9.09h13.18v-9.06s-.01-.03-.01-.03c-.08-.34-.18-.65-.31-.9l-.3-.59h4.34l-.3.59c-.13.26-.24.56-.31.9v22.13s0,.03,0,.03c.08.34.18.65.31.9h0Z"/>
        <path class="cls-1" d="M325.05,151.76c0,7.14-5.86,12.95-13.07,12.95s-13.05-5.8-13.05-12.92,5.85-12.92,13.05-12.92c3.49,0,6.77,1.34,9.24,3.78s3.83,5.68,3.83,9.12h0ZM321.83,151.78c0-5.55-4.34-9.9-9.87-9.9s-9.89,4.35-9.89,9.9,4.34,9.9,9.89,9.9,9.87-4.35,9.87-9.9Z"/>
        <path class="cls-1" d="M360.48,151.76c0,7.14-5.86,12.95-13.07,12.95s-13.05-5.8-13.05-12.92,5.86-12.92,13.05-12.92c3.48,0,6.77,1.34,9.24,3.78,2.47,2.44,3.84,5.68,3.84,9.12h0ZM357.26,151.78c0-5.55-4.33-9.9-9.87-9.9s-9.89,4.35-9.89,9.9,4.34,9.9,9.89,9.9,9.87-4.35,9.87-9.9Z"/>
        <path class="cls-1" d="M390.98,153.28c-.3,2.45-1.36,4.84-2.98,6.73-1.14,1.33-2.55,2.45-3.98,3.17-1.42.71-3.17,1.09-5.34,1.15h-7.96s.3-.58.3-.58c.13-.26.24-.56.31-.91v-22.13s0-.03,0-.03c-.08-.34-.18-.65-.31-.91l-.3-.59c1.29,0,7.74,0,7.96,0,2.17.07,3.92.45,5.34,1.16,1.43.71,2.85,1.84,3.98,3.16,1.62,1.89,2.68,4.28,2.98,6.73.06.52.06,2.52,0,3.05h0ZM387.85,151.76c-.02-3.97-2.24-7.4-5.8-8.98-1.2-.49-2.82-.78-4.34-.78h-3.28v19.52h3.28c1.52,0,3.15-.29,4.35-.79,3.55-1.57,5.77-5,5.78-8.97Z"/>
      </g>
      <g>
        <path class="cls-1" d="M109.07,206.09l-.14.08c-2.31,1.37-4.56,1.98-7.3,1.98-7.11,0-12.9-5.79-12.9-12.9v-.08c0-7.12,5.79-12.9,12.9-12.9,2.73,0,4.69.45,6.59,1.51l.21.12v3.79l-.66-.52c-2.15-1.69-5.17-1.86-6.04-1.87h-.19c-2.56,0-4.97,1.02-6.79,2.88-1.83,1.87-2.83,4.37-2.83,7.04s1.01,5.17,2.83,7.04c1.81,1.86,4.22,2.88,6.77,2.88h0s.09,0,.25,0c.85,0,3.91-.21,7.32-2.87l.9-.84-.23,1.21c-.26,1.35-.58,3.03-.65,3.29l-.04.16h0Z"/>
        <path class="cls-1" d="M137.98,207.79v-.41c0-.35-.03-.91-.26-1.62l-2.26-5.22h-11.09l-2.26,5.24c-.22.69-.25,1.25-.24,1.59v.42s-4.28,0-4.28,0l.45-.64c.23-.33.56-.84.81-1.43l10.19-23.09h1.74l10.2,23.09c.26.58.59,1.1.81,1.43l.45.64h-4.27,0ZM134.24,197.7l-4.32-9.99-4.32,9.99h8.64,0Z"/>
        <path class="cls-1" d="M165.44,182.62v3.75l-.58-.27c-.4-.18-1.08-.4-2.05-.41h-7.77v7.23h8.55c.21-.04.4-.1.57-.16l.55-.21v3.78l-.55-.21s-.18-.05-.49-.11h-8.63v10.19s0,.04,0,.04c.07.34.18.66.32.93l.3.59h-4.31l.3-.59c.13-.26.24-.56.31-.9v-22.13s0-.03,0-.03c-.08-.34-.18-.65-.31-.9l-.3-.59h14.09Z"/>
        <path class="cls-1" d="M189.6,204.04l-.46,3.73h-13.9l.3-.59c.13-.26.24-.56.31-.9v-22.13s0-.03,0-.03c-.08-.34-.18-.64-.31-.9l-.3-.59h14.09v3.75l-.58-.26c-.4-.18-1.07-.4-2.05-.42h-7.77v7.23h8.55c.21-.04.4-.1.57-.16l.55-.21v3.78l-.55-.2s-.16-.04-.49-.1l-.12-.02h-8.52s0,8.69,0,8.69h8.78c.4,0,.81-.1,1.21-.31l.69-.35h0Z"/>
        <path class="cls-1" d="M236.68,207.79h-4.77l-.08-.16c-.33-.7-1.12-1.48-1.42-1.77l-.79-.72-.12.12c-1.38,1.32-3.81,2.9-7.52,2.9-4.46,0-8.08-3.52-8.08-7.85,0-1.8.64-3.56,1.81-4.95.61-.72,1.38-1.36,2.23-1.84l.17-.09-.1-.16c-.24-.37-.45-.73-.62-1.1-.85-1.85-.86-3.86-.03-5.67.84-1.84,2.47-3.22,4.46-3.8.72-.21,1.46-.31,2.21-.31,2.48,0,4.45,1.06,5.87,3.14.3.44.55.92.76,1.42l.39,1.17-2.98,1.21c-.06-.44-.25-1.41-.68-2.1-.77-1.25-1.8-1.8-3.34-1.8-.47,0-.93.07-1.38.2-1.15.33-2.08,1.12-2.55,2.15-.46.99-.45,2.11.03,3.14.48,1.05,1.42,1.97,2.32,2.86.09.09,3.04,3.02,5.11,5.09l1.63,1.63.1-.24c.32-.77.5-1.54.56-2.3v-.15c.04-.65-.13-1.19-.26-1.49h3.25s.06.77.06,1.24v.08c-.01.77-.18,2.8-1.4,5.01l-.06.12,3.68,3.79c.29.25.56.48.8.69l.72.6h0ZM227.45,203.01l-.13-.13c-.56-.56-1.08-1.07-1.52-1.53l-5.57-5.55-.1.04c-1.93.73-3.17,2.48-3.17,4.47,0,2.65,2.26,4.81,5.04,4.81,2.62,0,4.34-1.08,5.32-1.98l.14-.12h0Z"/>
        <path class="cls-1" d="M273.11,205.29c-.68.77-1.49,1.38-2.41,1.84-.86.42-2,.66-3.2.66h-9.27l.3-.59c.13-.26.24-.56.31-.9v-22.14s0-.03,0-.03c-.08-.34-.18-.65-.31-.9l-.3-.59h6.66c1.83,0,3.41.26,4.45.74,1.07.49,1.91,1.25,2.52,2.26.6,1.02.91,2.09.91,3.2,0,1.44-.37,3.45-2.13,4.82l-.23.17.34.14c.48.21.9.44,1.27.71,1.7,1.25,2.75,2.97,2.96,4.85.23,2.1-.43,4.15-1.86,5.77h0ZM270.86,197.67c-.86-1.1-2.24-1.87-3.35-1.87h-5.61l.02,9.17h5.39c.61,0,1.2-.14,1.76-.41,1.39-.67,2.39-1.84,2.69-3.14.32-1.36.03-2.56-.9-3.76h0ZM261.94,185.44v7.45s3.48,0,3.79,0c1.87,0,3.96-1.58,3.96-3.69,0-.82-.19-1.56-.58-2.2-.39-.65-.91-1.06-1.64-1.3-.48-.16-1.13-.25-2.04-.27h-3.5Z"/>
        <path class="cls-1" d="M303.14,207.79v-.41c0-.35-.04-.91-.26-1.62l-2.26-5.22h-11.09l-2.27,5.24c-.22.69-.25,1.25-.24,1.59v.42s-4.28,0-4.28,0l.45-.64c.23-.33.56-.84.82-1.43l10.2-23.09h1.74l10.2,23.09c.26.58.59,1.1.82,1.43l.45.64h-4.27,0ZM299.4,197.7l-4.32-9.99-4.32,9.99h8.64,0Z"/>
        <path class="cls-1" d="M335.7,207.8h-4.33s-.06-.34-.06-.34c-.11-.66-.63-1.42-.83-1.7-.03-.04-1.78-2.72-3.25-4.96l-1.83-2.79h-.08c-.42.05-.84.08-1.27.08h-3.86v8.2s0,.03,0,.03c.08.34.18.64.31.9l.3.59h-4.33l.3-.59c.13-.26.24-.56.31-.9v-22.13s0-.03,0-.03c-.08-.34-.18-.65-.31-.9l-.3-.59h7.39c2.85,0,4.95.71,6.4,2.15,1.34,1.34,2.02,3.18,2.02,5.46s-.68,4.12-2.02,5.46c-.5.5-1.08.93-1.73,1.28l-.13.07,6.13,9.39c.21.25.4.47.57.67l.59.68h0ZM329.14,190.43v-.12c0-3.31-1.62-4.85-5.1-4.85h-3.86v9.72h3.86c1.63,0,2.82-.37,3.75-1.15.85-.72,1.35-2.07,1.35-3.6Z"/>
      </g>
    </g>
  </g>
</svg>