<?xml version="1.0" encoding="UTF-8"?><svg id="Layer_1" xmlns="http://www.w3.org/2000/svg" viewBox="0 0 375 475"><defs><style>.cls-1{fill:#000;stroke-width:0px;}</style></defs><path class="cls-1" d="M187.722,240.396c4.517,0,7.607,3.091,7.607,7.726,0,4.517-3.091,7.607-7.607,7.607-4.635,0-7.726-3.091-7.726-7.607,0-4.635,3.091-7.726,7.726-7.726Z"/><path class="cls-1" d="M208.879,303.417v-17.829c0-6.419,0-10.342-1.188-14.74h15.691c-1.191,4.398-1.191,8.321-1.191,14.74v47.784c0,6.419,0,10.34,1.191,14.738h-15.691c1.188-4.398,1.188-8.319,1.188-14.738v-19.375c-3.684-.356-10.459-.356-12.124-.356h-17.354c-1.902,0-9.628,0-12.956.475v19.257c0,6.419,0,10.34,1.188,14.738h-15.689c1.188-4.398,1.188-8.319,1.188-14.738v-47.784c0-6.419,0-10.342-1.188-14.74h15.689c-1.188,4.398-1.188,8.321-1.188,14.74v17.71c3.209.833,10.461.833,12.956.833h17.354c2.14,0,8.559,0,12.124-.714Z"/><path class="cls-1" d="M210.434,192.913c0-11.958-14.508-13.031-28.884-15.72-13.838-2.552-27.139-6.985-27.139-23.243,0-20.286,19.213-26.198,35.603-26.198,12.628,0,24.318,3.225,32.646,15.451l-11.285,10.076c-5.105-9.942-11.553-14.779-23.243-14.779-9.135,0-18.942,2.955-18.942,11.958,0,8.867,9.539,11.017,20.825,13.031,15.854,2.823,34.93,5.51,34.93,25.795,0,22.302-22.704,28.214-38.156,28.214-14.779,0-29.152-5.507-36.408-18.001l11.419-10.078c4.971,9.405,12.896,17.331,25.661,17.331,10.21,0,22.972-3.089,22.972-13.838Z"/><path class="cls-1" d="M188.589,425.506c-.086.58-.247,1.132-.482,1.659-.235.527-.545.987-.932,1.381s-.836.687-1.347.876c-.512.188-1.088.234-1.729.138-.61-.091-1.141-.35-1.591-.776-.451-.426-.626-.975-.526-1.645.123-.824.515-1.413,1.176-1.766.661-.353,1.376-.489,2.143-.405.217-.405.379-.816.489-1.236.11-.421.196-.844.26-1.272.155-1.037.035-1.953-.361-2.744-.396-.792-.951-1.461-1.665-2.004-.714-.544-1.529-.986-2.445-1.325-.916-.34-1.801-.574-2.656-.702-1.525-.229-2.886-.151-4.082.231-1.196.383-2.259.979-3.192,1.792-.932.812-1.74,1.775-2.421,2.889-.681,1.115-1.265,2.306-1.752,3.574-.486,1.268-.889,2.557-1.21,3.867-.321,1.308-.598,2.538-.833,3.688-.406,2.092-.995,4.046-1.767,5.865-.77,1.819-1.743,3.365-2.916,4.64-1.173,1.275-2.546,2.216-4.118,2.823-1.572.607-3.365.76-5.379.459-.853-.128-1.673-.337-2.456-.625-.783-.289-1.45-.678-2.001-1.165-.551-.488-.972-1.058-1.265-1.71-.293-.652-.372-1.421-.24-2.305.11-.733.347-1.329.712-1.789.366-.46.806-.8,1.322-1.019.517-.219,1.098-.35,1.743-.394.647-.043,1.305-.015,1.976.085-.532.638-.963,1.275-1.292,1.912s-.558,1.383-.686,2.237c-.173,1.159.002,2.129.524,2.909s1.287,1.246,2.294,1.396c1.19.178,2.217.035,3.082-.427.865-.464,1.631-1.153,2.298-2.066.668-.914,1.237-2.013,1.71-3.3.473-1.286.912-2.655,1.317-4.107.405-1.453.785-2.947,1.139-4.485.355-1.537.736-3.041,1.143-4.508.349-1.289.912-2.655,1.689-4.098.778-1.443,1.83-2.744,3.157-3.903,1.328-1.158,2.965-2.044,4.913-2.657s4.264-.719,6.948-.317c1.312.196,2.582.567,3.811,1.109,1.229.542,2.285,1.254,3.166,2.134.882.881,1.545,1.916,1.992,3.106.446,1.19.559,2.516.34,3.98Z"/><path class="cls-1" d="M156.096,420.24c-.263.522-.589.997-.976,1.425-.388.425-.826.766-1.317,1.02s-1.008.39-1.553.409c-.545.018-1.107-.117-1.685-.408-.551-.277-.974-.69-1.269-1.235-.295-.546-.29-1.123.015-1.728.375-.744.932-1.181,1.67-1.309s1.46-.033,2.161.286c.333-.316.616-.657.852-1.021.236-.366.451-.741.644-1.126.472-.937.644-1.844.515-2.72-.128-.877-.446-1.684-.955-2.424-.508-.741-1.144-1.414-1.909-2.023-.763-.609-1.531-1.109-2.303-1.497-1.377-.693-2.693-1.045-3.95-1.056-1.255-.011-2.452.223-3.592.703-1.139.479-2.208,1.142-3.203,1.987-.996.846-1.923,1.795-2.781,2.848-.858,1.053-1.644,2.15-2.358,3.294-.714,1.143-1.361,2.224-1.944,3.243-1.04,1.86-2.21,3.532-3.512,5.019-1.3,1.487-2.708,2.651-4.221,3.496-1.514.843-3.111,1.308-4.795,1.393-1.683.085-3.435-.33-5.253-1.247-.771-.388-1.484-.842-2.138-1.361-.653-.519-1.165-1.097-1.537-1.733-.37-.636-.592-1.308-.667-2.02-.073-.71.091-1.465.493-2.264.333-.662.745-1.153,1.236-1.476s1.015-.508,1.574-.555c.56-.046,1.152.011,1.779.171.628.161,1.245.394,1.85.7-.704.439-1.313.909-1.826,1.412-.512.501-.962,1.138-1.351,1.91-.527,1.047-.664,2.023-.412,2.928.253.904.833,1.585,1.742,2.042,1.075.542,2.095.727,3.061.558.966-.171,1.91-.585,2.828-1.244.92-.66,1.805-1.526,2.656-2.601.852-1.073,1.697-2.237,2.535-3.489.839-1.253,1.667-2.554,2.485-3.904.818-1.349,1.65-2.659,2.495-3.925.735-1.115,1.696-2.237,2.886-3.364,1.19-1.129,2.597-2.035,4.219-2.719,1.623-.686,3.456-1.015,5.497-.988,2.041.027,4.275.651,6.699,1.872,1.185.596,2.276,1.345,3.273,2.244.998.899,1.778,1.905,2.34,3.017.562,1.112.869,2.303.921,3.572.051,1.27-.256,2.566-.922,3.889Z"/><path class="cls-1" d="M126.941,405.115c-.392.435-.831.807-1.317,1.117-.486.31-.999.522-1.539.638-.539.116-1.075.111-1.606-.013-.531-.126-1.037-.404-1.519-.838-.458-.412-.758-.921-.899-1.525-.141-.605.016-1.158.469-1.662.558-.62,1.21-.894,1.956-.824.747.069,1.417.351,2.01.844.404-.218.767-.473,1.09-.762.324-.29.629-.596.918-.917.702-.781,1.106-1.61,1.212-2.488.107-.88.012-1.743-.284-2.59-.296-.849-.732-1.666-1.309-2.455-.576-.788-1.186-1.471-1.828-2.049-1.146-1.032-2.324-1.718-3.532-2.059-1.209-.34-2.425-.429-3.651-.266-1.225.162-2.43.52-3.613,1.074s-2.326,1.226-3.432,2.017c-1.104.789-2.152,1.642-3.141,2.557-.989.915-1.898,1.787-2.729,2.617-1.492,1.521-3.062,2.826-4.708,3.919-1.646,1.091-3.31,1.845-4.992,2.262-1.682.416-3.345.444-4.992.083-1.646-.361-3.226-1.223-4.74-2.584-.642-.578-1.21-1.204-1.704-1.876-.494-.673-.836-1.365-1.027-2.076-.19-.71-.227-1.419-.112-2.123.116-.705.473-1.39,1.071-2.055.496-.551,1.022-.917,1.58-1.099.559-.181,1.114-.222,1.665-.12.552.101,1.109.313,1.672.633.563.32,1.097.707,1.601,1.161-.795.239-1.506.532-2.132.882-.626.35-1.228.845-1.806,1.488-.784.871-1.173,1.777-1.168,2.716.006.939.387,1.749,1.144,2.429.894.805,1.83,1.252,2.807,1.343.977.091,1.996-.062,3.056-.456,1.061-.394,2.143-.997,3.247-1.809,1.104-.812,2.225-1.712,3.363-2.7,1.139-.989,2.28-2.026,3.424-3.113,1.144-1.087,2.291-2.131,3.439-3.13,1.002-.883,2.225-1.712,3.669-2.487,1.445-.775,3.04-1.279,4.786-1.514,1.747-.234,3.601-.07,5.563.492,1.963.564,3.954,1.753,5.971,3.568.987.887,1.842,1.897,2.568,3.027.726,1.13,1.214,2.306,1.463,3.527.25,1.221.233,2.451-.051,3.689-.284,1.238-.921,2.407-1.912,3.509Z"/><path class="cls-1" d="M102.782,382.963c-.475.343-.983.614-1.524.814-.541.2-1.087.299-1.639.299-.552-.002-1.075-.12-1.567-.354s-.928-.614-1.307-1.139c-.361-.501-.546-1.061-.557-1.681-.01-.621.261-1.13.811-1.526.675-.487,1.371-.619,2.085-.392.715.227,1.311.643,1.786,1.25.442-.127.85-.299,1.227-.514.378-.215.742-.449,1.091-.702.851-.613,1.421-1.339,1.711-2.175.29-.837.381-1.701.27-2.591-.11-.892-.363-1.782-.76-2.676-.397-.892-.848-1.689-1.353-2.39-.902-1.25-1.908-2.17-3.017-2.758-1.109-.588-2.279-.933-3.512-1.033-1.232-.099-2.485-.004-3.758.287-1.274.29-2.534.705-3.781,1.244-1.247.538-2.451,1.15-3.612,1.835-1.161.684-2.234,1.345-3.221,1.981-1.78,1.17-3.59,2.114-5.43,2.833-1.84.719-3.626,1.103-5.358,1.155-1.732.051-3.364-.274-4.897-.976-1.532-.701-2.895-1.877-4.086-3.528-.505-.701-.927-1.433-1.268-2.195-.341-.762-.528-1.51-.565-2.245-.036-.735.078-1.435.34-2.1.262-.664.756-1.259,1.482-1.782.6-.433,1.193-.679,1.777-.739.585-.059,1.135.018,1.652.234.518.217,1.018.541,1.5.973.483.432.922.923,1.319,1.472-.827.065-1.585.202-2.271.411-.685.209-1.379.567-2.079,1.072-.951.686-1.522,1.489-1.715,2.407-.193.919.008,1.791.604,2.617.703.976,1.524,1.611,2.459,1.906.936.295,1.964.362,3.083.201,1.121-.161,2.305-.521,3.556-1.082s2.537-1.203,3.859-1.928c1.322-.725,2.657-1.497,4.005-2.318,1.348-.82,2.69-1.598,4.023-2.332,1.166-.651,2.537-1.203,4.113-1.654,1.576-.452,3.242-.608,4.997-.467,1.756.141,3.534.694,5.333,1.659,1.799.965,3.493,2.549,5.081,4.75.776,1.076,1.399,2.243,1.869,3.501.471,1.259.699,2.511.685,3.757-.015,1.246-.291,2.444-.831,3.595-.54,1.15-1.41,2.158-2.611,3.024Z"/><path class="cls-1" d="M83.797,356.251c-.527.254-1.075.433-1.643.535-.567.101-1.122.105-1.666.008-.543-.097-1.037-.304-1.481-.621-.444-.317-.807-.766-1.089-1.349-.268-.556-.352-1.14-.255-1.753.098-.612.453-1.067,1.064-1.361.75-.362,1.457-.369,2.121-.022.664.347,1.179.861,1.541,1.543.457-.049.889-.147,1.298-.293.41-.147.808-.313,1.197-.501.945-.456,1.633-1.071,2.064-1.844.432-.774.671-1.609.718-2.505.047-.897-.047-1.819-.282-2.767s-.54-1.811-.916-2.59c-.67-1.388-1.5-2.469-2.49-3.242-.989-.773-2.082-1.316-3.278-1.629s-2.447-.438-3.751-.374-2.617.254-3.94.566c-1.321.313-2.614.706-3.876,1.178-1.262.473-2.434.936-3.517,1.389-1.957.842-3.904,1.456-5.841,1.843-1.936.388-3.762.454-5.477.203-1.714-.252-3.265-.855-4.652-1.814-1.387-.956-2.523-2.352-3.409-4.186-.375-.777-.664-1.572-.867-2.381-.202-.81-.257-1.579-.164-2.31.093-.73.327-1.398.7-2.008.375-.608.965-1.108,1.77-1.496.667-.322,1.293-.461,1.879-.419.586.043,1.115.216,1.586.519.472.303.908.709,1.307,1.219.4.508.748,1.069,1.042,1.68-.826-.08-1.596-.078-2.308.01-.711.086-1.456.317-2.235.693-1.055.51-1.758,1.2-2.109,2.071-.35.872-.304,1.766.139,2.683.523,1.084,1.22,1.851,2.089,2.306.87.453,1.87.698,3.001.735,1.131.037,2.361-.112,3.69-.446,1.329-.334,2.707-.742,4.135-1.225,1.428-.484,2.878-1.012,4.347-1.585,1.471-.572,2.927-1.104,4.368-1.594,1.263-.437,2.708-.742,4.338-.912,1.631-.171,3.299-.033,5.003.411,1.705.445,3.36,1.299,4.963,2.563,1.603,1.264,2.995,3.119,4.175,5.563.577,1.195.986,2.453,1.231,3.774.244,1.32.25,2.594.019,3.818-.231,1.224-.712,2.356-1.444,3.394-.732,1.039-1.765,1.879-3.098,2.524Z"/><path class="cls-1" d="M69.73,326.705c-.56.173-1.128.267-1.704.284-.576.015-1.125-.065-1.648-.243-.522-.178-.98-.457-1.372-.837-.391-.38-.682-.879-.873-1.497-.181-.589-.178-1.18.011-1.772.189-.591.608-.986,1.256-1.185.796-.246,1.497-.147,2.101.296.605.444,1.036,1.029,1.292,1.756.459.021.901-.011,1.327-.094.427-.083.846-.188,1.259-.315,1.002-.309,1.775-.814,2.318-1.514.543-.7.905-1.489,1.085-2.369.181-.879.227-1.804.137-2.778-.09-.972-.262-1.872-.517-2.698-.454-1.474-1.112-2.666-1.975-3.579-.862-.912-1.86-1.614-2.996-2.103-1.135-.489-2.353-.8-3.653-.932-1.3-.133-2.626-.142-3.98-.032-1.353.11-2.69.304-4.009.582s-2.547.559-3.686.845c-2.061.539-4.079.854-6.052.946-1.973.092-3.788-.116-5.445-.622s-3.099-1.336-4.327-2.492c-1.227-1.154-2.141-2.705-2.741-4.651-.254-.825-.42-1.654-.5-2.485-.078-.83-.017-1.6.184-2.308.202-.707.533-1.334.994-1.881.462-.545,1.119-.95,1.974-1.213.708-.218,1.348-.261,1.921-.132.573.131,1.07.38,1.49.751.422.37.791.838,1.11,1.4.319.565.579,1.17.778,1.818-.805-.203-1.566-.315-2.283-.337-.716-.022-1.488.095-2.313.35-1.12.345-1.919.923-2.396,1.732-.477.809-.566,1.699-.266,2.672.354,1.15.928,2.014,1.719,2.593.792.58,1.745.972,2.856,1.178,1.113.206,2.351.244,3.715.113,1.364-.13,2.788-.327,4.273-.591s2.996-.568,4.536-.914c1.54-.344,3.06-.652,4.558-.921,1.313-.243,2.788-.326,4.426-.25,1.638.077,3.266.463,4.884,1.158,1.619.695,3.126,1.789,4.522,3.279,1.395,1.491,2.493,3.533,3.293,6.127.391,1.267.607,2.573.65,3.915.043,1.342-.142,2.602-.554,3.777-.412,1.177-1.058,2.223-1.937,3.139-.88.917-2.027,1.593-3.442,2.03Z"/><path class="cls-1" d="M60.223,295.382c-.578.095-1.154.111-1.727.05-.573-.063-1.106-.217-1.6-.463-.493-.247-.909-.586-1.245-1.015-.336-.43-.558-.963-.662-1.603-.1-.608-.016-1.193.25-1.752.268-.56.737-.895,1.406-1.005.822-.136,1.503.057,2.041.579.539.52.887,1.159,1.042,1.915.452.082.894.11,1.327.086.434-.025.864-.072,1.29-.142,1.035-.169,1.869-.565,2.501-1.185.633-.62,1.098-1.353,1.397-2.199s.469-1.757.511-2.733c.043-.976-.006-1.89-.146-2.743-.25-1.521-.741-2.793-1.472-3.814-.73-1.02-1.625-1.85-2.684-2.489-1.058-.638-2.223-1.111-3.492-1.419-1.27-.307-2.583-.497-3.94-.571-1.356-.073-2.706-.062-4.05.033-1.344.097-2.599.209-3.767.339-2.115.254-4.156.293-6.124.117s-3.738-.628-5.311-1.354c-1.573-.725-2.89-1.743-3.95-3.055-1.06-1.309-1.755-2.97-2.086-4.979-.14-.852-.193-1.696-.158-2.53.035-.833.2-1.587.495-2.262.296-.674.709-1.249,1.24-1.728.531-.477,1.238-.789,2.121-.935.73-.12,1.37-.077,1.921.13.55.207,1.008.522,1.375.946.368.425.67.938.91,1.539.24.601.415,1.237.525,1.906-.77-.311-1.509-.526-2.216-.643-.707-.119-1.487-.108-2.339.032-1.156.191-2.026.654-2.608,1.39-.582.737-.791,1.607-.626,2.612.195,1.186.647,2.121,1.352,2.802.707.68,1.597,1.198,2.671,1.553,1.075.355,2.296.559,3.666.615,1.369.056,2.807.054,4.313-.005,1.507-.06,3.046-.158,4.618-.291s3.12-.232,4.641-.295c1.334-.063,2.807.054,4.419.352,1.613.297,3.173.9,4.683,1.808,1.509.909,2.855,2.196,4.035,3.862,1.181,1.666,1.992,3.839,2.433,6.516.215,1.309.253,2.632.113,3.967-.139,1.336-.493,2.56-1.061,3.668-.568,1.11-1.349,2.059-2.345,2.848-.995.789-2.224,1.304-3.685,1.545Z"/><path class="cls-1" d="M55.032,263.077c-.586.021-1.159-.036-1.72-.169-.56-.135-1.07-.355-1.529-.663-.458-.308-.827-.695-1.107-1.164-.279-.469-.431-1.026-.454-1.673-.023-.616.135-1.185.471-1.707.336-.522.844-.795,1.521-.819.833-.03,1.484.247,1.952.832.469.585.733,1.263.791,2.032.438.139.873.223,1.306.254.434.03.866.038,1.297.023,1.049-.038,1.926-.325,2.631-.859.707-.534,1.261-1.204,1.664-2.005.403-.802.688-1.684.853-2.647s.233-1.876.202-2.739c-.056-1.542-.382-2.865-.977-3.971-.596-1.104-1.377-2.04-2.347-2.809-.969-.768-2.064-1.384-3.285-1.849-1.22-.465-2.499-.819-3.835-1.064-1.336-.245-2.677-.405-4.023-.479-1.345-.074-2.604-.122-3.778-.141-2.13-.016-4.16-.235-6.09-.66-1.929-.423-3.628-1.096-5.097-2.016-1.469-.919-2.646-2.095-3.531-3.53-.885-1.434-1.365-3.168-1.438-5.203-.031-.863.024-1.706.163-2.529.14-.823.4-1.549.778-2.181.379-.63.861-1.15,1.449-1.558.587-.406,1.328-.626,2.222-.659.74-.027,1.369.097,1.889.371.519.275.934.646,1.244,1.113.31.467.546,1.015.708,1.641.161.627.255,1.28.279,1.957-.724-.405-1.43-.711-2.117-.919-.686-.206-1.461-.294-2.324-.263-1.171.043-2.093.393-2.764,1.049-.671.657-.988,1.495-.951,2.512.044,1.203.373,2.186.987,2.95.614.765,1.432,1.392,2.453,1.879,1.021.488,2.207.846,3.558,1.075,1.351.229,2.778.409,4.279.54,1.503.131,3.041.23,4.618.296,1.577.067,3.124.165,4.641.295,1.332.107,2.778.409,4.339.908,1.562.5,3.034,1.295,4.416,2.387,1.382,1.092,2.554,2.54,3.514,4.342s1.49,4.059,1.587,6.772c.048,1.326-.082,2.642-.389,3.95-.307,1.307-.813,2.475-1.517,3.504-.703,1.028-1.599,1.871-2.686,2.528-1.088.656-2.371,1.012-3.851,1.066Z"/><path class="cls-1" d="M53.941,230.356c-.583-.052-1.145-.179-1.685-.381-.54-.203-1.018-.485-1.435-.846-.417-.362-.735-.792-.955-1.291-.219-.5-.301-1.072-.244-1.718.054-.614.281-1.159.678-1.636.398-.476.935-.684,1.611-.625.83.073,1.442.429,1.834,1.068.393.638.571,1.343.534,2.114.417.192.838.329,1.264.413.427.083.855.145,1.285.182,1.045.092,1.951-.084,2.717-.528.767-.444,1.4-1.039,1.899-1.783.5-.746.891-1.586,1.174-2.522.283-.935.463-1.832.539-2.693.135-1.536-.025-2.889-.479-4.06-.454-1.169-1.115-2.195-1.982-3.077-.867-.882-1.877-1.629-3.031-2.241s-2.378-1.122-3.674-1.531c-1.295-.408-2.607-.732-3.933-.973-1.326-.24-2.569-.443-3.732-.607-2.113-.279-4.099-.747-5.962-1.407-1.862-.659-3.465-1.536-4.809-2.63-1.343-1.094-2.366-2.406-3.068-3.939-.702-1.532-.963-3.313-.785-5.342.076-.859.234-1.689.474-2.489.241-.799.588-1.489,1.041-2.068.454-.579.997-1.034,1.63-1.367.633-.33,1.395-.458,2.286-.379.738.065,1.347.266,1.828.601.481.338.847.757,1.097,1.258.25.503.417,1.075.499,1.716.083.642.095,1.302.035,1.978-.668-.492-1.331-.884-1.987-1.173-.655-.29-1.414-.473-2.274-.548-1.168-.103-2.125.131-2.872.7-.747.569-1.165,1.361-1.254,2.375-.105,1.198.1,2.215.614,3.05.515.836,1.25,1.558,2.202,2.168.953.611,2.086,1.113,3.398,1.507s2.706.748,4.18,1.064c1.475.315,2.989.603,4.546.864,1.556.261,3.08.549,4.569.867,1.308.27,2.706.748,4.193,1.437,1.489.688,2.851,1.66,4.087,2.914,1.237,1.254,2.221,2.836,2.951,4.742.73,1.906.976,4.212.739,6.917-.116,1.321-.408,2.611-.874,3.871-.467,1.26-1.113,2.357-1.938,3.289-.825.934-1.818,1.659-2.978,2.177-1.161.517-2.478.711-3.953.582Z"/><path class="cls-1" d="M56.889,197.767c-.572-.126-1.113-.326-1.621-.596-.509-.271-.947-.612-1.314-1.026-.366-.412-.626-.881-.779-1.404-.152-.524-.159-1.101-.019-1.734.133-.602.429-1.114.885-1.534.457-.42,1.016-.557,1.679-.41.813.179,1.374.611,1.68,1.295.307.684.392,1.407.255,2.166.389.244.789.435,1.2.573.412.138.829.255,1.25.348,1.024.227,1.946.169,2.763-.171.818-.34,1.523-.847,2.114-1.522.592-.675,1.089-1.457,1.491-2.348.402-.89.697-1.757.884-2.601.333-1.506.35-2.868.051-4.088-.299-1.219-.82-2.321-1.566-3.309-.745-.986-1.651-1.858-2.715-2.615-1.065-.757-2.213-1.421-3.445-1.994-1.232-.573-2.489-1.064-3.773-1.475-1.284-.41-2.491-.772-3.622-1.086-2.058-.551-3.967-1.273-5.729-2.168-1.761-.895-3.236-1.972-4.427-3.231-1.19-1.259-2.034-2.693-2.531-4.304-.497-1.61-.525-3.41-.085-5.398.186-.843.451-1.645.793-2.407.343-.761.776-1.4,1.301-1.916.525-.515,1.123-.896,1.793-1.143.671-.246,1.443-.273,2.316-.08.723.16,1.301.438,1.735.833.433.397.742.86.925,1.39.184.53.274,1.118.273,1.766-.001.648-.075,1.303-.221,1.965-.599-.574-1.205-1.048-1.818-1.421-.613-.372-1.341-.652-2.184-.839-1.144-.254-2.124-.146-2.938.321-.815.469-1.332,1.198-1.551,2.193-.26,1.175-.188,2.21.213,3.105.403.894,1.037,1.707,1.902,2.434.866.73,1.924,1.373,3.174,1.935,1.25.561,2.586,1.094,4.006,1.598,1.422.504,2.886.987,4.396,1.447,1.509.46,2.982.944,4.417,1.451,1.262.438,2.586,1.094,3.972,1.969,1.386.876,2.61,2.016,3.674,3.42,1.064,1.404,1.834,3.099,2.311,5.085.477,1.985.422,4.303-.164,6.953-.287,1.295-.744,2.537-1.369,3.725-.626,1.189-1.409,2.193-2.349,3.011-.94.818-2.018,1.409-3.236,1.773-1.217.362-2.549.383-3.995.064Z"/><path class="cls-1" d="M64.033,165.837c-.548-.206-1.056-.479-1.522-.818-.465-.34-.851-.739-1.156-1.199-.304-.461-.496-.961-.574-1.501-.077-.54-.003-1.113.225-1.72.216-.578.581-1.042,1.091-1.395.511-.352,1.084-.408,1.72-.171.78.294,1.274.8,1.481,1.52.208.72.191,1.448-.052,2.18.351.297.72.542,1.108.736.389.195.785.369,1.189.52.982.368,1.902.442,2.759.219.858-.221,1.627-.625,2.308-1.21.681-.584,1.282-1.289,1.806-2.115.523-.825.937-1.641,1.24-2.451.541-1.444.75-2.791.626-4.04s-.486-2.414-1.085-3.497c-.599-1.081-1.373-2.072-2.32-2.971-.948-.898-1.991-1.718-3.13-2.458-1.139-.741-2.315-1.403-3.528-1.991-1.213-.586-2.357-1.114-3.433-1.585-1.96-.833-3.749-1.818-5.367-2.951-1.617-1.134-2.927-2.407-3.928-3.822-1.002-1.413-1.636-2.953-1.901-4.617-.265-1.664-.04-3.449.675-5.356.303-.809.678-1.565,1.124-2.272.446-.705.966-1.276,1.557-1.713.592-.437,1.237-.73,1.936-.88.698-.15,1.467-.068,2.304.246.694.26,1.227.616,1.6,1.07.374.453.614.955.72,1.506.107.551.114,1.146.022,1.787-.092.641-.257,1.279-.496,1.915-.512-.654-1.046-1.208-1.6-1.664-.554-.454-1.235-.833-2.044-1.137-1.097-.412-2.082-.444-2.954-.095-.872.349-1.487.999-1.844,1.952-.423,1.127-.497,2.161-.225,3.104.273.942.786,1.835,1.541,2.678.755.843,1.712,1.63,2.87,2.361,1.159.731,2.406,1.447,3.742,2.145,1.336.698,2.718,1.383,4.148,2.05,1.43.668,2.82,1.354,4.17,2.059,1.187.61,2.406,1.446,3.655,2.507,1.25,1.062,2.302,2.363,3.157,3.903.856,1.541,1.38,3.327,1.573,5.359.193,2.033-.187,4.32-1.14,6.862-.466,1.243-1.093,2.407-1.879,3.497-.787,1.088-1.704,1.972-2.749,2.65-1.045.679-2.196,1.112-3.452,1.3s-2.578.022-3.965-.498Z"/><path class="cls-1" d="M75.607,135.178c-.508-.29-.967-.64-1.373-1.049-.405-.409-.723-.865-.951-1.368-.227-.503-.337-1.027-.328-1.572.01-.546.174-1.1.495-1.662.306-.535.739-.937,1.299-1.204.56-.266,1.136-.231,1.725.105.723.412,1.131.991,1.221,1.736.091.744-.042,1.458-.397,2.144.299.348.625.649.976.902.353.255.716.489,1.091.703.911.519,1.808.737,2.689.654.883-.082,1.706-.358,2.471-.828s1.471-1.07,2.119-1.802c.647-.731,1.185-1.471,1.613-2.222.764-1.34,1.184-2.636,1.26-3.89.075-1.253-.097-2.46-.517-3.624-.42-1.163-1.027-2.264-1.82-3.301-.793-1.039-1.693-2.013-2.7-2.926-1.007-.911-2.063-1.753-3.167-2.525-1.105-.772-2.15-1.475-3.138-2.109-1.803-1.136-3.413-2.39-4.83-3.767s-2.508-2.842-3.272-4.397c-.765-1.555-1.146-3.175-1.144-4.86.002-1.685.508-3.412,1.517-5.182.427-.749.919-1.438,1.47-2.064.553-.625,1.156-1.107,1.81-1.444.654-.338,1.338-.525,2.051-.561s1.459.166,2.236.609c.643.367,1.113.804,1.41,1.311.297.507.454,1.041.472,1.601.018.561-.07,1.15-.263,1.767-.193.619-.457,1.223-.793,1.811-.402-.725-.84-1.358-1.316-1.896-.474-.537-1.087-1.019-1.837-1.448-1.018-.581-1.986-.768-2.902-.562-.917.205-1.627.75-2.131,1.634-.596,1.045-.834,2.054-.715,3.028.119.974.485,1.937,1.096,2.889.611.953,1.43,1.882,2.459,2.787s2.146,1.81,3.354,2.712c1.208.902,2.464,1.796,3.77,2.683,1.306.887,2.569,1.786,3.79,2.695,1.076.792,2.147,1.81,3.211,3.056,1.065,1.247,1.897,2.699,2.498,4.355.6,1.656.834,3.503.702,5.54-.132,2.038-.871,4.236-2.216,6.594-.657,1.152-1.461,2.203-2.411,3.153-.949.95-1.995,1.677-3.135,2.181-1.139.503-2.344.748-3.615.734-1.271-.014-2.549-.388-3.835-1.122Z"/><path class="cls-1" d="M91.904,106.727c-.445-.38-.829-.811-1.151-1.288-.322-.478-.547-.986-.677-1.522s-.139-1.073-.028-1.606c.112-.534.378-1.047.798-1.539.401-.469.902-.782,1.502-.938.601-.157,1.159-.014,1.674.426.633.542.925,1.186.873,1.935-.051.747-.315,1.425-.793,2.031.228.398.492.755.79,1.071.298.315.612.614.94.894.797.682,1.637,1.066,2.519,1.149.882.084,1.742-.032,2.582-.35.84-.317,1.646-.774,2.42-1.371.773-.596,1.441-1.223,2.003-1.879,1.002-1.172,1.658-2.366,1.967-3.584.309-1.217.368-2.434.173-3.656-.194-1.221-.583-2.416-1.167-3.584-.583-1.169-1.285-2.295-2.102-3.38-.818-1.084-1.696-2.109-2.636-3.076-.94-.965-1.835-1.852-2.686-2.661-1.558-1.454-2.903-2.989-4.036-4.607-1.134-1.617-1.929-3.262-2.388-4.932-.459-1.671-.53-3.334-.211-4.989.319-1.655,1.14-3.257,2.463-4.804.561-.656,1.172-1.24,1.832-1.752.66-.511,1.343-.87,2.049-1.08.705-.207,1.412-.263,2.12-.165.708.097,1.402.437,2.082,1.018.562.481.942.999,1.139,1.552.196.554.25,1.108.162,1.66-.087.555-.284,1.117-.59,1.687-.306.571-.678,1.115-1.119,1.63-.259-.789-.571-1.492-.936-2.109-.365-.616-.877-1.205-1.533-1.766-.891-.762-1.806-1.128-2.744-1.099-.939.03-1.739.432-2.4,1.206-.782.914-1.205,1.861-1.271,2.84-.065.978.112,1.993.534,3.043.421,1.05,1.051,2.116,1.891,3.199.839,1.084,1.768,2.182,2.785,3.294,1.017,1.114,2.083,2.228,3.199,3.343,1.116,1.116,2.188,2.236,3.216,3.358.908.98,1.768,2.182,2.58,3.606.812,1.424,1.356,3.007,1.635,4.746.278,1.739.161,3.598-.351,5.574-.513,1.977-1.651,3.998-3.415,6.061-.862,1.008-1.849,1.889-2.96,2.644-1.111.755-2.275,1.272-3.489,1.552-1.214.281-2.444.296-3.689.043-1.245-.253-2.43-.86-3.555-1.822Z"/><path class="cls-1" d="M113.28,81.812c-.345-.474-.619-.98-.822-1.52-.202-.54-.304-1.085-.307-1.638-.002-.552.114-1.075.345-1.569.232-.493.609-.932,1.132-1.313.499-.364,1.058-.552,1.678-.566.621-.013,1.131.255,1.53.803.491.673.626,1.368.403,2.082-.222.717-.636,1.315-1.241,1.793.13.44.303.849.52,1.224.218.377.453.738.708,1.087.618.849,1.346,1.415,2.184,1.7.838.286,1.702.372,2.593.257.89-.113,1.781-.371,2.671-.774.89-.401,1.685-.856,2.383-1.365,1.246-.909,2.16-1.919,2.743-3.031.582-1.112.921-2.284,1.015-3.517.093-1.233-.008-2.485-.306-3.758-.297-1.272-.718-2.529-1.263-3.774-.545-1.245-1.163-2.445-1.854-3.602-.691-1.156-1.357-2.226-1.998-3.211-1.179-1.775-2.133-3.58-2.861-5.416-.729-1.835-1.122-3.62-1.182-5.351-.06-1.732.256-3.366.949-4.902.693-1.536,1.863-2.904,3.507-4.103.698-.508,1.427-.935,2.188-1.28.761-.344,1.508-.537,2.243-.576.735-.039,1.435.071,2.101.329.666.259,1.263.75,1.79,1.472.436.598.686,1.19.749,1.774.063.584-.012,1.136-.226,1.654s-.535,1.02-.965,1.505c-.429.485-.918.927-1.466,1.327-.069-.828-.21-1.584-.423-2.269-.213-.684-.574-1.375-1.083-2.074-.69-.947-1.496-1.515-2.416-1.702-.92-.189-1.791.017-2.614.616-.972.709-1.603,1.533-1.894,2.469-.29.938-.352,1.966-.185,3.084.166,1.119.533,2.303,1.1,3.551.566,1.248,1.216,2.53,1.947,3.849.732,1.318,1.511,2.649,2.339,3.993.827,1.344,1.612,2.681,2.352,4.01.657,1.164,1.216,2.532,1.675,4.104.46,1.574.624,3.239.493,4.995-.132,1.757-.676,3.538-1.631,5.342-.956,1.805-2.532,3.506-4.724,5.106-1.072.782-2.236,1.41-3.492,1.887s-2.507.711-3.753.704c-1.246-.008-2.446-.279-3.599-.812-1.153-.534-2.166-1.399-3.038-2.595Z"/><path class="cls-1" d="M139.96,62.498c-.195-.552-.313-1.116-.353-1.692-.039-.574.018-1.127.174-1.657.156-.529.416-.997.779-1.404.364-.406.85-.718,1.461-.934.581-.206,1.172-.227,1.77-.063.598.165,1.01.568,1.237,1.207.278.785.208,1.489-.21,2.112-.418.622-.985,1.077-1.702,1.362-.001.46.049.9.149,1.322.101.423.223.838.367,1.245.35.989.886,1.74,1.607,2.253.722.514,1.526.843,2.411.987.886.146,1.813.152,2.781.022.968-.13,1.86-.339,2.673-.627,1.454-.515,2.619-1.221,3.496-2.121.876-.898,1.535-1.925,1.977-3.08.442-1.155.702-2.384.781-3.688.078-1.304.034-2.63-.132-3.979-.166-1.347-.416-2.675-.747-3.981-.332-1.306-.664-2.521-.996-3.648-.623-2.037-1.021-4.039-1.195-6.008-.173-1.967-.04-3.789.397-5.466.437-1.677,1.207-3.152,2.311-4.426,1.103-1.274,2.615-2.251,4.534-2.93.813-.288,1.635-.489,2.462-.602.827-.112,1.598-.082,2.314.09.716.172,1.355.477,1.92.915.564.438.995,1.08,1.294,1.923.247.697.317,1.335.211,1.913-.107.578-.336,1.085-.689,1.52-.354.436-.805.825-1.354,1.167-.55.342-1.145.626-1.784.853.171-.813.252-1.578.243-2.295-.008-.717-.157-1.482-.445-2.297-.391-1.104-1.001-1.878-1.828-2.322-.828-.444-1.722-.496-2.682-.155-1.134.402-1.974,1.01-2.52,1.824-.546.816-.899,1.783-1.058,2.903-.16,1.121-.147,2.359.039,3.717.186,1.358.442,2.772.766,4.245s.691,2.971,1.1,4.494c.409,1.524.778,3.03,1.108,4.517.297,1.302.442,2.772.433,4.412-.009,1.64-.328,3.282-.955,4.927-.628,1.646-1.658,3.198-3.09,4.653-1.432,1.456-3.428,2.637-5.986,3.543-1.251.443-2.546.712-3.885.811s-2.606-.035-3.798-.398c-1.192-.363-2.264-.965-3.216-1.806-.952-.841-1.675-1.959-2.17-3.355Z"/><path class="cls-1" d="M171.021,51.947c-.013-.586.051-1.158.192-1.718.141-.558.369-1.066.682-1.52.313-.454.707-.818,1.178-1.091.473-.273,1.032-.418,1.68-.432.616-.015,1.184.15,1.701.492.517.343.783.854.799,1.532.019.833-.267,1.48-.858,1.941s-1.272.717-2.042.764c-.145.436-.235.87-.271,1.303s-.05.865-.039,1.297c.024,1.048.299,1.929.825,2.642.525.714,1.186,1.277,1.983,1.691.797.413,1.675.709,2.636.887.96.179,1.872.258,2.736.239,1.542-.036,2.869-.344,3.982-.925,1.112-.581,2.059-1.351,2.84-2.31.78-.959,1.41-2.046,1.892-3.26.481-1.214.852-2.488,1.115-3.822.262-1.332.439-2.672.532-4.016.092-1.344.155-2.603.191-3.776.043-2.13.289-4.156.739-6.081.449-1.923,1.143-3.613,2.081-5.07.939-1.456,2.13-2.618,3.577-3.485,1.445-.866,3.186-1.322,5.222-1.37.863-.019,1.706.046,2.527.196.821.151,1.544.42,2.171.806.626.386,1.138.876,1.538,1.468.399.593.609,1.336.63,2.23.017.741-.116,1.368-.396,1.884-.282.516-.658.925-1.129,1.23-.472.304-1.022.532-1.651.686-.629.153-1.283.239-1.961.254.415-.719.731-1.421.946-2.104.216-.683.314-1.457.294-2.321-.027-1.172-.365-2.098-1.013-2.778-.648-.679-1.481-1.007-2.499-.983-1.203.028-2.19.344-2.963.948-.773.605-1.41,1.414-1.911,2.428-.501,1.015-.875,2.196-1.122,3.543-.247,1.348-.445,2.772-.596,4.273-.15,1.499-.269,3.038-.356,4.613-.087,1.576-.206,3.122-.356,4.637-.124,1.33-.445,2.772-.965,4.327-.52,1.556-1.335,3.016-2.445,4.384-1.11,1.368-2.573,2.521-4.387,3.457-1.815.937-4.079,1.437-6.792,1.499-1.326.03-2.641-.118-3.945-.442-1.303-.324-2.465-.845-3.484-1.562-1.019-.718-1.85-1.624-2.493-2.72-.642-1.096-.981-2.384-1.015-3.864Z"/><path class="cls-1" d="M204.087,51.761c.185-.555.439-1.073.76-1.551.322-.478.707-.878,1.155-1.2.449-.322.941-.532,1.477-.63.537-.097,1.112-.044,1.727.16.585.195,1.063.542,1.435,1.039.371.498.449,1.068.235,1.712-.263.79-.75,1.303-1.462,1.537-.712.234-1.439.245-2.18.03-.283.362-.514.739-.694,1.135-.18.396-.338.798-.475,1.208-.331.995-.369,1.917-.115,2.765.254.85.686,1.602,1.297,2.261.61.659,1.337,1.233,2.181,1.725.844.491,1.676.874,2.496,1.146,1.463.487,2.817.644,4.061.473,1.244-.172,2.394-.576,3.452-1.217,1.058-.639,2.019-1.45,2.881-2.431.863-.98,1.641-2.054,2.339-3.22.696-1.166,1.315-2.366,1.856-3.601.54-1.234,1.024-2.398,1.454-3.49.759-1.991,1.675-3.815,2.747-5.474,1.071-1.659,2.295-3.016,3.67-4.071s2.889-1.746,4.542-2.074c1.653-.328,3.446-.171,5.378.472.819.273,1.59.62,2.313,1.037.722.42,1.312.917,1.772,1.492.458.575.776,1.209.952,1.901.176.693.123,1.464-.159,2.312-.234.703-.57,1.249-1.008,1.64-.439.39-.932.649-1.478.776-.547.127-1.142.157-1.785.09-.644-.068-1.288-.209-1.932-.423.634-.538,1.168-1.091,1.601-1.662.433-.57.786-1.266,1.06-2.086.37-1.112.364-2.098-.017-2.956-.382-.858-1.055-1.448-2.021-1.769-1.141-.379-2.178-.415-3.109-.108-.932.309-1.804.856-2.618,1.641-.815.786-1.564,1.772-2.251,2.958-.687,1.185-1.354,2.459-2.002,3.82s-1.279,2.768-1.892,4.222c-.614,1.454-1.247,2.869-1.899,4.245-.566,1.21-1.354,2.459-2.368,3.748-1.014,1.289-2.274,2.389-3.781,3.302-1.506.912-3.272,1.504-5.296,1.774-2.024.269-4.324-.024-6.9-.881-1.259-.419-2.447-1.001-3.564-1.746-1.118-.745-2.035-1.628-2.753-2.647-.717-1.019-1.193-2.153-1.429-3.401-.235-1.249-.119-2.576.348-3.981Z"/><path class="cls-1" d="M235.168,62.539c.338-.479.73-.901,1.176-1.266.446-.365.93-.637,1.453-.815.522-.179,1.055-.237,1.597-.177.542.062,1.077.279,1.607.652.504.355.862.825,1.074,1.408.212.584.121,1.153-.269,1.707-.48.681-1.095,1.031-1.844,1.049-.75.019-1.449-.18-2.096-.6-.375.264-.705.559-.992.886-.287.326-.555.666-.803,1.018-.605.858-.908,1.729-.91,2.615-.002.886.194,1.733.588,2.538.394.806.924,1.567,1.59,2.282.666.715,1.352,1.321,2.058,1.819,1.26.888,2.511,1.43,3.751,1.626,1.24.194,2.459.139,3.657-.167,1.197-.307,2.351-.805,3.46-1.495,1.109-.69,2.165-1.493,3.17-2.408,1.003-.914,1.943-1.885,2.817-2.91.874-1.026,1.673-1.999,2.4-2.922,1.302-1.686,2.706-3.168,4.212-4.448,1.505-1.278,3.069-2.224,4.69-2.836,1.62-.612,3.269-.837,4.947-.674,1.678.164,3.349.832,5.012,2.006.705.498,1.343,1.051,1.915,1.661.569.61.992,1.257,1.265,1.939.273.683.393,1.382.362,2.096-.031.714-.305,1.436-.82,2.167-.426.606-.906,1.031-1.439,1.278-.533.247-1.08.353-1.639.317-.56-.037-1.138-.18-1.735-.431-.597-.252-1.173-.572-1.727-.963.762-.331,1.433-.707,2.013-1.128.58-.421,1.119-.986,1.617-1.692.675-.958.954-1.903.838-2.834-.117-.933-.591-1.692-1.423-2.278-.983-.693-1.966-1.027-2.946-1.002-.981.026-1.974.298-2.981.815-1.007.517-2.01,1.244-3.01,2.181-1,.936-2.007,1.963-3.02,3.079-1.014,1.116-2.025,2.281-3.031,3.497-1.008,1.214-2.023,2.387-3.045,3.515-.891.994-2.007,1.963-3.349,2.903-1.343.941-2.868,1.63-4.573,2.069-1.706.439-3.567.496-5.582.168-2.016-.326-4.133-1.272-6.351-2.836-1.084-.764-2.053-1.665-2.908-2.701-.854-1.036-1.478-2.147-1.871-3.329s-.521-2.405-.385-3.669c.136-1.263.63-2.499,1.483-3.709Z"/><path class="cls-1" d="M261.779,81.729c.44-.386.921-.705,1.44-.955.519-.249,1.053-.401,1.603-.451.549-.052,1.081.016,1.593.202.513.188.982.524,1.409,1.01.407.464.644,1.005.714,1.621.069.616-.152,1.149-.662,1.596-.626.549-1.306.746-2.039.588s-1.366-.516-1.897-1.075c-.427.168-.817.378-1.172.627-.356.25-.695.518-1.02.802-.789.692-1.288,1.468-1.497,2.329-.209.86-.218,1.729-.023,2.605.194.877.531,1.74,1.01,2.592.48.851,1.005,1.601,1.574,2.251,1.017,1.159,2.105,1.979,3.265,2.46,1.16.479,2.357.711,3.594.694,1.236-.017,2.474-.231,3.715-.641,1.24-.411,2.455-.944,3.646-1.598,1.19-.654,2.331-1.377,3.422-2.169,1.09-.792,2.095-1.551,3.018-2.278,1.661-1.334,3.373-2.446,5.137-3.336,1.763-.891,3.505-1.442,5.224-1.658,1.719-.215,3.375-.046,4.968.506,1.592.553,3.059,1.594,4.402,3.125.569.649,1.06,1.338,1.471,2.064.411.727.669,1.453.775,2.182.105.729.058,1.436-.139,2.122-.198.687-.634,1.325-1.306,1.914-.557.489-1.123.79-1.699.906-.576.114-1.132.09-1.667-.077-.536-.166-1.064-.442-1.585-.826-.521-.383-1.006-.831-1.453-1.341.818-.144,1.558-.351,2.222-.625.662-.273,1.319-.695,1.968-1.264.881-.773,1.374-1.627,1.48-2.56.105-.933-.178-1.782-.85-2.548-.793-.905-1.67-1.458-2.629-1.664-.96-.205-1.989-.175-3.089.092-1.1.267-2.245.738-3.437,1.414-1.192.677-2.411,1.438-3.658,2.285-1.247.847-2.503,1.742-3.767,2.688-1.265.944-2.526,1.845-3.784,2.702-1.1.759-2.412,1.438-3.937,2.037-1.526.6-3.17.912-4.931.939-1.762.027-3.584-.355-5.467-1.145s-3.719-2.206-5.509-4.247c-.874-.997-1.605-2.1-2.193-3.308-.588-1.208-.934-2.433-1.037-3.675-.104-1.241.058-2.46.485-3.657.429-1.195,1.199-2.282,2.312-3.258Z"/><path class="cls-1" d="M283.174,106.522c.506-.296,1.038-.517,1.595-.664.557-.147,1.11-.193,1.66-.139.549.054,1.058.221,1.525.502.467.281.865.7,1.192,1.26.311.532.442,1.108.393,1.726-.05.619-.368,1.099-.953,1.441-.719.42-1.424.484-2.113.19-.69-.294-1.243-.765-1.658-1.416-.451.085-.874.217-1.271.394-.396.178-.781.377-1.153.594-.906.53-1.543,1.197-1.912,2.003-.369.805-.542,1.656-.518,2.553.024.897.191,1.808.5,2.736.309.926.682,1.763,1.117,2.509.778,1.331,1.691,2.344,2.739,3.036s2.179,1.146,3.397,1.365c1.217.218,2.473.243,3.769.076,1.296-.167,2.59-.46,3.883-.876,1.293-.417,2.55-.91,3.771-1.481,1.221-.57,2.352-1.125,3.396-1.662,1.884-.994,3.776-1.761,5.677-2.299,1.899-.539,3.715-.75,5.444-.636,1.728.116,3.322.596,4.781,1.44,1.458.845,2.701,2.146,3.728,3.905.436.745.786,1.515,1.053,2.306.265.79.381,1.555.347,2.29-.036.734-.215,1.42-.54,2.057-.325.636-.874,1.181-1.646,1.632-.639.374-1.253.561-1.84.566-.587.003-1.128-.127-1.622-.392-.495-.266-.961-.636-1.4-1.111-.439-.477-.83-1.008-1.172-1.593.83.015,1.597-.049,2.3-.192.702-.141,1.427-.431,2.173-.867,1.012-.592,1.658-1.336,1.938-2.231.28-.897.164-1.784-.35-2.663-.607-1.039-1.362-1.749-2.265-2.133-.903-.383-1.92-.548-3.05-.496-1.131.053-2.345.298-3.643.736-1.299.437-2.641.953-4.026,1.548-1.386.596-2.788,1.236-4.209,1.924-1.421.687-2.831,1.332-4.229,1.935-1.223.537-2.641.954-4.252,1.252-1.612.3-3.285.294-5.019-.014-1.735-.309-3.451-1.03-5.149-2.162-1.698-1.134-3.233-2.873-4.602-5.215-.669-1.146-1.177-2.367-1.525-3.665-.348-1.298-.454-2.566-.321-3.805.133-1.238.524-2.404,1.171-3.498.648-1.092,1.61-2.013,2.889-2.76Z"/><path class="cls-1" d="M299.525,134.897c.546-.212,1.107-.344,1.681-.401.574-.055,1.127-.013,1.661.128.533.141,1.009.388,1.426.739.416.352.742.83.974,1.435.222.575.259,1.165.111,1.767-.148.602-.539,1.026-1.172,1.27-.777.3-1.483.249-2.116-.151-.634-.401-1.104-.954-1.41-1.662-.459.011-.898.073-1.317.185-.42.112-.831.246-1.234.402-.979.378-1.715.934-2.208,1.67-.493.735-.8,1.548-.92,2.438-.12.89-.102,1.816.056,2.78.157.964.39,1.849.701,2.656.555,1.439,1.294,2.584,2.217,3.435.923.851,1.967,1.481,3.134,1.891,1.166.409,2.402.636,3.708.678,1.306.042,2.63-.039,3.973-.243,1.342-.204,2.663-.489,3.959-.857,1.297-.368,2.502-.733,3.619-1.098,2.019-.679,4.009-1.132,5.972-1.36,1.962-.228,3.787-.146,5.475.245,1.688.391,3.184,1.119,4.488,2.187s2.323,2.551,3.055,4.451c.31.805.533,1.62.67,2.445.135.823.127,1.594-.025,2.316-.152.719-.44,1.367-.862,1.944-.423.575-1.051,1.024-1.886,1.346-.691.267-1.326.354-1.906.264-.581-.091-1.094-.307-1.539-.647-.446-.341-.847-.782-1.204-1.321-.357-.54-.658-1.127-.902-1.76.817.147,1.584.207,2.301.179.716-.028,1.477-.198,2.283-.508,1.094-.422,1.851-1.054,2.271-1.892.42-.84.447-1.735.081-2.685-.433-1.123-1.064-1.945-1.894-2.469-.83-.522-1.807-.849-2.931-.977-1.124-.13-2.362-.081-3.714.142-1.352.223-2.759.518-4.222.884-1.463.365-2.95.773-4.462,1.224-1.512.451-3.008.863-4.484,1.233-1.294.334-2.759.518-4.398.555-1.639.038-3.29-.236-4.952-.817-1.663-.583-3.242-1.57-4.736-2.96-1.495-1.39-2.731-3.353-3.708-5.886-.477-1.237-.783-2.525-.918-3.86-.135-1.336-.038-2.607.293-3.808.33-1.202.902-2.29,1.716-3.266.814-.975,1.912-1.729,3.294-2.262Z"/><path class="cls-1" d="M311.161,165.514c.571-.131,1.145-.184,1.721-.158.575.026,1.117.147,1.626.362.508.216.944.527,1.307.934.362.408.616.927.762,1.559.138.6.091,1.19-.14,1.765-.232.575-.678.939-1.34,1.091-.812.186-1.503.037-2.073-.45-.571-.486-.958-1.101-1.161-1.846-.456-.054-.899-.054-1.33-.002-.432.052-.858.125-1.278.222-1.022.234-1.83.681-2.422,1.34-.593.659-1.012,1.42-1.256,2.283-.245.863-.358,1.783-.339,2.76.019.976.125,1.886.318,2.728.345,1.503.915,2.741,1.708,3.714.793.973,1.738,1.745,2.835,2.317,1.096.57,2.288.969,3.574,1.196,1.287.227,2.609.334,3.968.323,1.358-.012,2.705-.108,4.041-.288,1.335-.18,2.581-.371,3.737-.574,2.095-.386,4.13-.553,6.105-.501,1.974.053,3.77.392,5.385,1.018,1.616.626,2.993,1.559,4.133,2.801,1.14,1.24,1.938,2.854,2.394,4.839.194.841.299,1.68.317,2.514.018.834-.1,1.598-.352,2.289-.253.691-.629,1.292-1.129,1.803s-1.186.866-2.058,1.067c-.721.165-1.363.162-1.925-.009-.562-.173-1.039-.458-1.431-.858-.393-.401-.728-.894-1.005-1.479s-.492-1.208-.643-1.87c.788.262,1.539.43,2.252.503.713.074,1.491.014,2.333-.179,1.142-.262,1.981-.781,2.516-1.552s.688-1.653.46-2.645c-.269-1.173-.778-2.077-1.525-2.712-.748-.636-1.669-1.097-2.763-1.383-1.095-.287-2.327-.416-3.697-.385s-2.805.122-4.304.277c-1.5.154-3.03.348-4.591.58-1.561.232-3.099.427-4.613.586-1.328.146-2.805.122-4.433-.073-1.628-.196-3.223-.701-4.787-1.511-1.563-.813-2.987-2.012-4.27-3.6-1.282-1.589-2.229-3.706-2.836-6.352-.297-1.292-.417-2.61-.362-3.952.055-1.342.331-2.586.829-3.728.497-1.142,1.218-2.139,2.162-2.989.944-.85,2.138-1.441,3.581-1.773Z"/><path class="cls-1" d="M318.361,197.414c.583-.056,1.159-.033,1.727.067.567.101,1.089.291,1.565.571.476.28.867.646,1.174,1.096.306.452.491,1,.552,1.644.059.614-.065,1.192-.369,1.732-.305.541-.796.843-1.471.908-.829.08-1.495-.159-1.997-.715-.503-.557-.806-1.218-.91-1.982-.445-.112-.884-.171-1.319-.176-.435-.004-.866.013-1.296.054-1.044.1-1.903.438-2.576,1.014-.674.575-1.187,1.276-1.543,2.1-.355.825-.587,1.722-.695,2.693-.108.971-.121,1.886-.039,2.746.147,1.535.551,2.836,1.21,3.905.66,1.068,1.496,1.956,2.509,2.665,1.013.708,2.143,1.259,3.389,1.651,1.246.393,2.543.67,3.892.837,1.348.165,2.696.245,4.044.241,1.347-.005,2.607-.033,3.781-.083,2.128-.11,4.166-.011,6.118.298,1.951.309,3.687.88,5.207,1.71,1.521.831,2.765,1.936,3.734,3.315.968,1.379,1.55,3.082,1.744,5.108.082.86.077,1.705-.013,2.535-.091.83-.307,1.571-.647,2.224-.341.652-.792,1.198-1.354,1.64-.562.442-1.288.705-2.179.79-.737.07-1.373-.016-1.907-.259-.535-.244-.971-.589-1.308-1.037-.338-.448-.605-.98-.804-1.597s-.33-1.263-.395-1.938c.747.363,1.47.626,2.168.792.697.165,1.476.207,2.336.125,1.166-.112,2.066-.516,2.696-1.211.631-.696.898-1.55.801-2.564-.115-1.197-.502-2.159-1.159-2.887-.659-.728-1.512-1.304-2.56-1.731-1.048-.427-2.253-.715-3.615-.863-1.362-.149-2.797-.244-4.304-.286-1.508-.042-3.05-.05-4.627-.022-1.578.026-3.129.019-4.65-.021-1.335-.028-2.797-.244-4.385-.65-1.589-.406-3.105-1.113-4.549-2.121-1.444-1.008-2.7-2.384-3.765-4.125-1.065-1.742-1.727-3.965-1.986-6.666-.126-1.321-.074-2.643.155-3.966.229-1.324.665-2.521,1.307-3.588.641-1.068,1.485-1.963,2.532-2.683,1.047-.72,2.308-1.15,3.781-1.291Z"/><path class="cls-1" d="M321.366,230.012c.586.016,1.154.11,1.705.281.551.171,1.044.423,1.482.76.438.336.781.747,1.03,1.233.248.486.363,1.051.344,1.699-.017.616-.212,1.175-.58,1.673-.369.499-.893.738-1.571.719-.832-.025-1.464-.343-1.894-.958-.43-.614-.65-1.307-.658-2.079-.428-.166-.857-.279-1.287-.337-.431-.059-.861-.095-1.293-.107-1.049-.03-1.943.199-2.682.687-.739.488-1.336,1.119-1.79,1.894s-.795,1.636-1.023,2.586-.354,1.857-.379,2.72c-.044,1.542.195,2.883.718,4.025.523,1.142,1.243,2.127,2.161,2.956.917.828,1.97,1.515,3.158,2.058s2.44.98,3.758,1.312c1.317.33,2.645.576,3.983.738,1.338.162,2.591.29,3.762.386,2.125.153,4.136.503,6.034,1.051,1.897.548,3.55,1.329,4.955,2.342,1.406,1.013,2.505,2.263,3.295,3.751.79,1.488,1.157,3.25,1.098,5.285-.025.863-.134,1.701-.327,2.513-.194.812-.499,1.521-.918,2.127-.419.605-.934,1.091-1.546,1.46-.612.368-1.366.54-2.259.514-.74-.021-1.361-.186-1.861-.492-.5-.309-.89-.705-1.169-1.191-.28-.487-.479-1.048-.6-1.684-.121-.636-.172-1.293-.152-1.971.697.451,1.381.803,2.053,1.054.671.25,1.439.389,2.303.413,1.171.033,2.113-.257,2.825-.868.712-.613,1.083-1.427,1.112-2.445.035-1.203-.23-2.206-.793-3.009-.564-.803-1.339-1.481-2.326-2.034-.987-.554-2.147-.988-3.48-1.303-1.334-.316-2.746-.588-4.236-.816-1.491-.228-3.02-.426-4.589-.594-1.569-.169-3.107-.367-4.612-.596-1.322-.192-2.745-.587-4.271-1.186-1.526-.599-2.943-1.49-4.252-2.669-1.308-1.179-2.384-2.699-3.226-4.559-.841-1.861-1.223-4.148-1.145-6.862.038-1.326.253-2.631.644-3.915.391-1.286.972-2.418,1.741-3.399.769-.98,1.717-1.763,2.845-2.348s2.432-.856,3.912-.814Z"/><path class="cls-1" d="M320.342,262.728c.579.091,1.131.256,1.656.493.525.239.983.552,1.375.941.391.389.68.84.865,1.353.185.514.228,1.089.128,1.729-.096.61-.358,1.139-.787,1.587-.429.448-.98.62-1.65.515-.823-.13-1.409-.526-1.757-1.189-.349-.664-.48-1.38-.39-2.145-.404-.22-.815-.385-1.234-.498-.42-.112-.843-.202-1.269-.269-1.037-.162-1.952-.047-2.747.343-.795.391-1.467.941-2.015,1.652s-.995,1.522-1.341,2.437c-.345.913-.586,1.796-.719,2.65-.239,1.523-.17,2.885.204,4.083.375,1.198.965,2.266,1.77,3.205.805.937,1.763,1.751,2.873,2.44,1.11.689,2.297,1.279,3.563,1.775,1.265.494,2.551.907,3.858,1.236s2.534.614,3.683.857c2.089.42,4.039,1.022,5.853,1.805,1.813.784,3.353,1.766,4.62,2.948,1.267,1.182,2.198,2.561,2.795,4.137.596,1.576.737,3.37.423,5.383-.133.853-.348,1.67-.641,2.452-.294.782-.687,1.446-1.178,1.994-.492.547-1.064.965-1.719,1.253-.654.287-1.423.363-2.306.225-.731-.114-1.326-.356-1.783-.724-.458-.368-.795-.812-1.01-1.329-.216-.518-.343-1.1-.383-1.746-.039-.647-.006-1.305.098-1.976.634.537,1.268.972,1.904,1.305.634.334,1.379.567,2.232.701,1.158.181,2.129.012,2.913-.504.783-.518,1.254-1.279,1.411-2.285.186-1.189.05-2.217-.407-3.084-.458-.868-1.142-1.639-2.051-2.311-.91-.674-2.005-1.251-3.288-1.733s-2.649-.929-4.098-1.344c-1.45-.413-2.942-.804-4.477-1.168-1.535-.366-3.036-.757-4.5-1.172-1.287-.358-2.649-.931-4.087-1.718-1.438-.787-2.732-1.848-3.881-3.182-1.15-1.335-2.025-2.98-2.624-4.93-.6-1.952-.69-4.27-.271-6.95.205-1.312.583-2.579,1.134-3.804.55-1.225,1.269-2.276,2.155-3.152.887-.876,1.926-1.532,3.119-1.97,1.192-.438,2.52-.543,3.983-.314Z"/><path class="cls-1" d="M315.205,295.05c.561.167,1.086.405,1.574.711.487.308.899.679,1.236,1.118.335.438.561.924.675,1.457.114.533.079,1.11-.107,1.731-.177.591-.508,1.08-.993,1.466-.486.385-1.054.481-1.704.287-.798-.239-1.326-.709-1.582-1.414-.256-.704-.289-1.431-.098-2.179-.37-.272-.755-.491-1.155-.659-.401-.168-.808-.314-1.222-.437-1.005-.301-1.928-.311-2.768-.03-.84.28-1.58.735-2.219,1.365-.64.63-1.192,1.374-1.658,2.234-.465.858-.822,1.701-1.07,2.529-.442,1.478-.557,2.836-.348,4.074.209,1.237.65,2.375,1.322,3.414.672,1.037,1.511,1.972,2.519,2.805,1.007.832,2.103,1.578,3.291,2.239,1.186.661,2.406,1.241,3.656,1.745,1.251.502,2.428.95,3.534,1.346,2.013.697,3.865,1.557,5.556,2.578,1.691,1.019,3.085,2.201,4.181,3.543,1.096,1.342,1.834,2.834,2.212,4.476s.276,3.439-.307,5.39c-.247.827-.569,1.609-.966,2.344-.397.734-.876,1.34-1.436,1.816s-1.185.813-1.871,1.01-1.459.168-2.316-.089c-.709-.212-1.266-.531-1.67-.958s-.678-.911-.822-1.453c-.144-.542-.192-1.136-.144-1.781s.169-1.294.363-1.943c.556.616,1.126,1.132,1.711,1.549.583.416,1.29.747,2.118.994,1.123.336,2.108.3,2.954-.107.846-.407,1.415-1.099,1.706-2.074.344-1.153.348-2.19.012-3.111-.337-.922-.91-1.778-1.72-2.567-.811-.789-1.819-1.509-3.025-2.159-1.206-.65-2.5-1.278-3.88-1.884-1.381-.606-2.806-1.194-4.279-1.762-1.472-.569-2.906-1.158-4.301-1.768-1.227-.528-2.5-1.278-3.818-2.252-1.32-.974-2.458-2.2-3.417-3.677-.959-1.478-1.604-3.225-1.936-5.239-.331-2.014-.109-4.324.668-6.923.38-1.272.926-2.476,1.636-3.616.71-1.14,1.565-2.085,2.561-2.833.996-.748,2.115-1.259,3.356-1.533,1.241-.273,2.57-.198,3.989.227Z"/><path class="cls-1" d="M305.763,326.391c.53.249,1.014.562,1.45.938.437.377.788.805,1.055,1.289.266.484.417.997.451,1.542.033.545-.088,1.11-.364,1.696-.262.558-.663.992-1.2,1.302-.538.309-1.114.32-1.728.03-.754-.355-1.205-.899-1.353-1.634-.149-.735-.073-1.458.228-2.169-.325-.324-.674-.598-1.044-.824-.371-.226-.752-.431-1.143-.614-.949-.447-1.86-.595-2.732-.443-.873.152-1.672.491-2.398,1.019-.727.528-1.383,1.181-1.972,1.962-.588.779-1.067,1.56-1.435,2.343-.657,1.395-.974,2.72-.952,3.976.023,1.254.289,2.445.799,3.572.51,1.126,1.2,2.176,2.072,3.149.872.973,1.845,1.874,2.921,2.704,1.075.83,2.194,1.587,3.355,2.27,1.162.682,2.259,1.302,3.294,1.857,1.886.991,3.589,2.116,5.11,3.378,1.52,1.261,2.722,2.636,3.606,4.127.884,1.49,1.391,3.075,1.52,4.755.13,1.68-.239,3.442-1.107,5.284-.368.781-.803,1.505-1.304,2.173-.502.666-1.066,1.194-1.691,1.582s-1.292.627-2.001.72-1.468-.051-2.277-.432c-.67-.315-1.173-.715-1.509-1.196-.335-.483-.534-1.002-.595-1.559-.062-.558-.021-1.153.123-1.783.144-.632.361-1.254.649-1.868.458.692.945,1.288,1.46,1.787.515.499,1.164.932,1.945,1.3,1.061.499,2.04.61,2.937.334.898-.276,1.563-.876,1.997-1.796.512-1.088.67-2.114.476-3.075-.195-.962-.635-1.894-1.318-2.794-.684-.902-1.574-1.764-2.67-2.587-1.096-.823-2.281-1.637-3.556-2.441-1.275-.805-2.597-1.599-3.968-2.38s-2.701-1.578-3.989-2.389c-1.135-.705-2.282-1.637-3.44-2.796-1.159-1.159-2.102-2.541-2.83-4.145-.728-1.604-1.106-3.428-1.134-5.469-.028-2.041.537-4.29,1.693-6.746.565-1.2,1.284-2.311,2.156-3.333.873-1.021,1.858-1.828,2.955-2.419,1.097-.591,2.279-.929,3.547-1.015,1.267-.085,2.571.187,3.911.818Z"/><path class="cls-1" d="M291.745,356.016c.479.337.901.73,1.267,1.175.365.447.637.929.817,1.452.179.522.238,1.055.178,1.597-.062.542-.277,1.077-.65,1.607-.355.504-.825.863-1.407,1.075-.583.212-1.152.122-1.707-.268-.681-.479-1.032-1.095-1.051-1.844s.18-1.449.599-2.096c-.264-.375-.56-.705-.886-.991-.327-.287-.667-.555-1.02-.803-.858-.603-1.73-.906-2.615-.907-.886-.001-1.732.195-2.537.591-.806.395-1.566.925-2.281,1.592-.714.666-1.32,1.353-1.817,2.06-.887,1.261-1.428,2.511-1.623,3.752-.194,1.239-.137,2.458.171,3.656.308,1.197.807,2.35,1.498,3.459s1.495,2.164,2.411,3.167c.915,1.003,1.887,1.942,2.914,2.815,1.026.872,2.001,1.671,2.924,2.398,1.687,1.3,3.171,2.702,4.451,4.207,1.28,1.504,2.227,3.067,2.841,4.687s.839,3.269.677,4.946c-.162,1.678-.829,3.349-2.001,5.014-.497.706-1.05,1.344-1.659,1.915-.609.571-1.256.993-1.939,1.267-.683.273-1.381.395-2.095.364-.714-.031-1.436-.303-2.168-.818-.606-.426-1.032-.906-1.28-1.438-.247-.533-.354-1.08-.318-1.639.036-.56.179-1.138.429-1.735s.571-1.173.961-1.728c.332.761.708,1.433,1.13,2.012.422.58.986,1.118,1.692,1.615.959.675,1.904.953,2.835.836.932-.118,1.691-.593,2.276-1.425.693-.983,1.025-1.966.999-2.947-.026-.98-.299-1.973-.817-2.98-.518-1.006-1.246-2.008-2.183-3.008s-1.965-2.006-3.082-3.017c-1.117-1.014-2.283-2.023-3.499-3.029s-2.388-2.02-3.518-3.041c-.996-.891-1.965-2.006-2.907-3.348-.942-1.342-1.633-2.865-2.073-4.571-.44-1.706-.498-3.567-.173-5.582.325-2.017,1.268-4.135,2.831-6.354.764-1.085,1.664-2.054,2.699-2.909,1.036-.856,2.146-1.481,3.328-1.874s2.405-.522,3.668-.389c1.263.135,2.501.628,3.711,1.48Z"/><path class="cls-1" d="M272.804,382.824c.398.43.729.901.993,1.413.264.513.429,1.043.496,1.591.066.547.013,1.081-.16,1.598-.173.517-.497.996-.972,1.437-.453.419-.987.67-1.601.757-.615.085-1.153-.121-1.613-.619-.566-.611-.781-1.286-.643-2.022.138-.737.479-1.38,1.024-1.926-.18-.422-.401-.806-.66-1.155-.26-.349-.536-.681-.83-.997-.712-.77-1.502-1.248-2.368-1.434-.866-.187-1.734-.171-2.605.047-.871.217-1.725.576-2.563,1.08-.837.503-1.573,1.047-2.207,1.634-1.132,1.048-1.922,2.158-2.371,3.33-.449,1.172-.648,2.376-.598,3.612.051,1.235.298,2.467.742,3.695s1.009,2.429,1.695,3.601c.686,1.172,1.44,2.293,2.261,3.362.822,1.068,1.607,2.053,2.359,2.956,1.378,1.625,2.536,3.306,3.473,5.045.938,1.739,1.537,3.465,1.799,5.177.262,1.713.138,3.372-.371,4.979-.509,1.606-1.511,3.102-3.005,4.485-.634.586-1.308,1.095-2.024,1.526-.715.431-1.435.708-2.16.833-.725.125-1.433.097-2.125-.081-.691-.18-1.342-.598-1.949-1.254-.503-.543-.82-1.101-.951-1.673-.13-.573-.12-1.129.031-1.669.152-.541.413-1.076.783-1.607s.804-1.028,1.301-1.489c.165.814.393,1.549.684,2.204.291.654.73,1.299,1.318,1.933.796.859,1.662,1.329,2.598,1.409.936.08,1.777-.226,2.524-.918.883-.817,1.413-1.709,1.592-2.673.179-.965.12-1.993-.176-3.084-.296-1.092-.798-2.225-1.506-3.398-.708-1.173-1.503-2.372-2.383-3.595-.881-1.224-1.81-2.455-2.788-3.693-.978-1.238-1.913-2.474-2.804-3.709-.788-1.078-1.503-2.372-2.143-3.881-.641-1.509-.997-3.144-1.072-4.903-.074-1.761.258-3.593.997-5.496.739-1.903,2.105-3.777,4.096-5.621.974-.901,2.056-1.661,3.248-2.282,1.191-.62,2.407-.999,3.645-1.137,1.239-.137,2.461-.009,3.669.386,1.207.396,2.314,1.137,3.32,2.224Z"/><path class="cls-1" d="M248.623,405.107c.273.518.47,1.06.593,1.624.121.564.144,1.117.065,1.665-.079.546-.269,1.047-.569,1.502-.302.454-.738.833-1.312,1.135-.546.287-1.127.392-1.743.315-.615-.078-1.081-.417-1.397-1.017-.388-.736-.42-1.443-.096-2.119.324-.676.82-1.208,1.489-1.593-.064-.454-.177-.883-.337-1.287s-.341-.797-.541-1.179c-.488-.928-1.127-1.596-1.915-1.999-.788-.405-1.631-.615-2.528-.63-.897-.017-1.815.109-2.756.377-.939.268-1.791.602-2.556,1.005-1.365.718-2.417,1.585-3.155,2.601-.738,1.015-1.243,2.126-1.515,3.333-.272,1.206-.353,2.459-.243,3.761s.344,2.607.702,3.919c.358,1.309.795,2.588,1.31,3.833.516,1.245,1.019,2.4,1.51,3.466.909,1.927,1.59,3.851,2.044,5.774.454,1.922.584,3.744.392,5.466-.192,1.722-.743,3.293-1.652,4.712-.909,1.419-2.265,2.603-4.067,3.551-.764.402-1.548.718-2.351.949-.802.23-1.57.311-2.303.244-.732-.068-1.409-.279-2.031-.632-.621-.353-1.14-.925-1.557-1.716-.344-.655-.505-1.276-.483-1.863.023-.587.177-1.122.464-1.603.287-.483.678-.932,1.173-1.349.495-.417,1.043-.784,1.644-1.099-.052.828-.023,1.597.089,2.306.111.708.368,1.444.77,2.209.545,1.037,1.26,1.716,2.142,2.036.883.321,1.775.243,2.676-.231,1.065-.56,1.809-1.282,2.232-2.167.423-.885.634-1.895.631-3.025-.002-1.132-.193-2.356-.572-3.673s-.835-2.681-1.368-4.09c-.533-1.411-1.11-2.841-1.734-4.291-.623-1.45-1.205-2.887-1.745-4.311-.48-1.246-.835-2.681-1.061-4.303-.227-1.625-.147-3.296.238-5.014.386-1.719,1.183-3.402,2.39-5.048,1.209-1.646,3.014-3.102,5.416-4.365,1.174-.617,2.417-1.071,3.729-1.36s2.584-.34,3.816-.151c1.232.189,2.379.632,3.443,1.327,1.063.695,1.939,1.698,2.628,3.009Z"/><path class="cls-1" d="M219.37,420.291c.098.578.118,1.153.059,1.726-.059.574-.211,1.108-.454,1.603-.245.494-.581.912-1.008,1.251-.428.338-.96.562-1.599.67-.608.104-1.193.023-1.754-.241-.561-.264-.899-.732-1.013-1.4-.139-.822.05-1.504.568-2.045.518-.542,1.155-.893,1.91-1.053.08-.452.106-.894.079-1.328-.027-.434-.077-.863-.149-1.289-.176-1.034-.575-1.865-1.199-2.495-.623-.629-1.359-1.091-2.207-1.385-.848-.294-1.76-.459-2.737-.497-.976-.037-1.89.016-2.742.162-1.52.258-2.788.756-3.806,1.492-1.017.736-1.842,1.634-2.475,2.698-.633,1.061-1.1,2.228-1.4,3.5-.3,1.271-.483,2.584-.55,3.942-.066,1.356-.047,2.706.056,4.05.104,1.343.223,2.597.358,3.764.266,2.114.316,4.154.15,6.123-.165,1.968-.607,3.741-1.325,5.318-.718,1.577-1.728,2.899-3.034,3.966-1.305,1.067-2.961,1.77-4.968,2.112-.851.145-1.694.202-2.529.173-.834-.031-1.589-.192-2.265-.484-.675-.293-1.253-.702-1.735-1.231-.481-.528-.797-1.234-.946-2.115-.124-.73-.084-1.371.119-1.922.204-.551.517-1.012.939-1.38.423-.37.934-.676,1.534-.919.6-.243,1.235-.421,1.904-.534-.307.772-.518,1.511-.632,2.22-.114.707-.099,1.488.046,2.339.196,1.155.666,2.022,1.404,2.601.74.578,1.612.782,2.615.611,1.186-.202,2.118-.657,2.795-1.367.677-.71,1.191-1.604,1.539-2.679.349-1.076.547-2.299.596-3.668.049-1.37.039-2.808-.03-4.314-.069-1.506-.173-3.044-.316-4.616-.142-1.572-.249-3.119-.32-4.64-.07-1.333.038-2.807.328-4.421.288-1.614.884-3.177,1.783-4.692.9-1.515,2.181-2.866,3.839-4.056,1.66-1.19,3.828-2.012,6.504-2.468,1.308-.222,2.63-.267,3.967-.135,1.336.133,2.562.48,3.674,1.042,1.112.562,2.066,1.339,2.86,2.33.795.992,1.316,2.217,1.564,3.677Z"/><path class="cls-1" d="M187.5,460.829c-92.44,0-167.646-100.186-167.646-223.33S95.06,14.171,187.5,14.171s167.646,100.185,167.646,223.329-75.206,223.33-167.646,223.33ZM187.5,16.381C96.279,16.381,22.065,115.575,22.065,237.499s74.214,221.119,165.435,221.119,165.435-99.194,165.435-221.119S278.721,16.381,187.5,16.381Z"/><path class="cls-1" d="M187.5,409.61c-64.057,0-116.171-77.209-116.171-172.11s52.114-172.11,116.171-172.11,116.17,77.209,116.17,172.11-52.114,172.11-116.17,172.11ZM187.5,67.6c-62.838,0-113.96,76.217-113.96,169.899s51.122,169.899,113.96,169.899,113.96-76.217,113.96-169.899-51.122-169.899-113.96-169.899Z"/></svg>