<?xml version="1.0" encoding="UTF-8"?><svg id="Layer_1" xmlns="http://www.w3.org/2000/svg" viewBox="0 0 1450 700"><defs><style>.cls-1{fill:#000;stroke-width:0px;}</style></defs><path class="cls-1" d="M510.278,180.29h-7.249c-.191-4.549-1.186-8.102-2.985-10.66-1.801-2.558-4.74-3.837-8.813-3.837h-15.634c-5.686,0-9.335,2.796-10.944,8.386l-7.676,28.285h13.645c4.832,0,8.432-.853,10.802-2.559,2.368-1.705,4.264-4.453,5.686-8.244h7.106l-8.528,31.412h-6.823c.285-1.422.427-2.701.427-3.838,0-3.031-1.138-5.234-3.412-6.609-2.274-1.372-5.212-2.061-8.812-2.061h-12.366l-7.107,26.011c-.948,3.318-1.421,5.543-1.421,6.68,0,1.612.639,2.892,1.918,3.838,1.279.948,2.677,1.421,4.193,1.421h21.462c4.737,0,8.456-.473,11.157-1.421,2.7-.946,4.879-2.605,6.538-4.975,1.657-2.368,3.434-6.254,5.33-11.655h8.67l-7.959,26.152h-81.158l2.131-7.391h.996c3.883-.093,6.986-.828,9.309-2.203,2.32-1.372,4.097-4.335,5.33-8.883l16.629-60.69c.853-2.843,1.279-4.738,1.279-5.686,0-2.368-.852-4.31-2.559-5.828-1.705-1.515-3.459-2.274-5.259-2.274h-4.122l1.705-6.254h69.645l-1.137,22.884Z"/><path class="cls-1" d="M605.079,163.517h-1.99c-7.391,0-12.223,4.171-14.497,12.508l-16.487,61.26c-.853,3.033-1.279,4.927-1.279,5.685,0,1.612.615,2.914,1.848,3.909,1.23.996,2.746,1.492,4.548,1.492h24.163c4.264,0,7.721-.591,10.376-1.776,2.651-1.183,4.761-2.89,6.325-5.117,1.563-2.225,3.102-5.234,4.619-9.025h8.386l-6.68,24.162h-83.29l1.705-7.391h2.417c3.315,0,6.182-.995,8.599-2.985s4.382-5.732,5.899-11.229l14.923-55.432c1.042-4.073,1.564-6.773,1.564-8.102,0-1.894-.711-3.696-2.132-5.401-1.421-1.705-3.886-2.559-7.391-2.559h-2.131l1.705-6.112h40.508l-1.705,6.112Z"/><path class="cls-1" d="M726.46,163.517h-1.99c-7.391,0-12.223,4.171-14.497,12.508l-16.487,61.26c-.853,3.033-1.279,4.927-1.279,5.685,0,1.612.615,2.914,1.848,3.909,1.23.996,2.746,1.492,4.548,1.492h24.163c4.264,0,7.721-.591,10.376-1.776,2.651-1.183,4.761-2.89,6.325-5.117,1.563-2.225,3.102-5.234,4.619-9.025h8.386l-6.68,24.162h-83.29l1.705-7.391h2.417c3.315,0,6.182-.995,8.599-2.985s4.382-5.732,5.899-11.229l14.923-55.432c1.042-4.073,1.564-6.773,1.564-8.102,0-1.894-.711-3.696-2.132-5.401-1.421-1.705-3.886-2.559-7.391-2.559h-2.131l1.705-6.112h40.508l-1.705,6.112Z"/><path class="cls-1" d="M871.433,236.574c.189,4.359.924,7.558,2.203,9.594,1.279,2.039,3.671,3.055,7.178,3.055h3.979l-2.274,7.391h-36.813l1.564-7.391h1.421c3.884-.189,6.585-.875,8.102-2.061,1.515-1.183,2.274-3.625,2.274-7.32l-.568-11.939h-41.645l-5.401,9.096c-.476.759-.972,1.801-1.492,3.127-.522,1.328-.782,2.37-.782,3.127,0,1.612.591,2.985,1.776,4.122,1.184,1.137,3.056,1.755,5.615,1.848h.568l-1.99,7.391h-31.695l1.137-7.391c1.799-.189,3.173-.448,4.122-.782.946-.331,1.942-.829,2.985-1.492,4.358-2.747,8.387-7.2,12.082-13.36l48.183-76.184h15.208l4.264,79.169ZM855.23,166.929l-33.259,53.158h36.102l-2.843-53.158Z"/><path class="cls-1" d="M993.097,163.517h-2.274c-2.466,0-4.288.64-5.473,1.919-1.185,1.279-1.776,2.678-1.776,4.192,0,.664.117,1.446.355,2.346.235.902.448,1.588.639,2.061l24.447,57.279,14.214-54.152c.568-2.651.852-4.499.852-5.543,0-5.401-3.411-8.102-10.233-8.102h-1.421l1.847-6.112h35.96l-1.706,6.112h-2.985c-3.696,0-6.608,1.233-8.741,3.696-2.131,2.466-3.577,5.166-4.335,8.102l-22.031,83.005h-8.387l1.848-6.964-34.68-81.016-17.056,65.097c-.759,3.886-1.137,6.112-1.137,6.68,0,4.739,2.416,7.106,7.249,7.106h3.98l-1.99,7.391h-34.68l1.279-7.391h4.405c2.368,0,4.691-.9,6.965-2.7,2.274-1.799,4.027-4.975,5.259-9.523l15.919-61.543c.378-1.894.568-3.079.568-3.553,0-2.368-.759-4.358-2.274-5.97-1.517-1.609-3.081-2.416-4.69-2.416h-4.691l1.706-6.112h44.771l-1.705,6.112Z"/><path class="cls-1" d="M1172.754,201.183c0,5.496-1.209,11.726-3.625,18.691-2.416,6.964-6.751,13.857-13.005,20.68-3.507,3.696-7.132,6.68-10.873,8.955-3.744,2.274-8.506,4.029-14.284,5.259-5.781,1.233-13.076,1.848-21.888,1.848h-43.067l2.132-7.391h1.137c4.357-.093,7.676-.995,9.95-2.7,2.274-1.706,4.122-5.069,5.543-10.092l15.066-54.579c.662-2.463,1.183-4.57,1.563-6.325.378-1.752.569-3.291.569-4.619,0-2.178-.689-3.955-2.062-5.33-1.374-1.372-3.246-2.061-5.614-2.061h-4.122l1.848-6.112h38.802c7.769,0,14.828,1.635,21.178,4.904,6.347,3.268,11.392,8.197,15.136,14.782,3.743,6.586,5.615,14.617,5.615,24.091ZM1114.905,174.036l-17.34,63.25c-.759,2.558-1.137,4.548-1.137,5.969,0,1.801.639,3.105,1.918,3.909,1.279.806,2.818,1.208,4.619,1.208h10.802c6.347,0,12.01-.945,16.985-2.842,4.975-1.894,9.119-4.548,12.436-7.959,5.495-5.686,9.428-12.459,11.797-20.325,2.367-7.864,3.553-15.255,3.553-22.172,0-9.001-2.679-16.179-8.03-21.534-5.354-5.351-12.817-8.03-22.386-8.03-4.549.096-7.676.782-9.381,2.061s-2.985,3.436-3.838,6.467Z"/><path class="cls-1" d="M182.156,202.082c5.429,0,9.502,1.24,12.22,3.719,2.711,2.48,4.073,5.729,4.073,9.742,0,3.542-1.063,6.552-3.188,9.032-2.125,2.48-4.96,3.72-8.502,3.72-1.184,0-2.54-.294-4.073-.886-1.539-.588-2.657-1.473-3.365-2.658-2.601,2.834-4.311,6.26-5.135,10.273-.831,4.018-1.24,8.268-1.24,12.752,0,6.143,1.472,12.043,4.428,17.71,2.949,5.667,7.2,10.626,12.752,14.877,5.545,4.251,12.22,7.677,20.012,10.272,7.793,2.596,16.411,3.896,25.857,3.896,16.056,0,29.632-3.658,40.734-10.98,11.097-7.316,20.068-16.702,26.92-28.16,6.847-11.451,11.805-24.141,14.877-38.077,3.066-13.931,4.721-27.391,4.959-40.38.233-21.015,2.303-39.904,6.199-56.673,3.896-16.764,9.443-30.994,16.648-42.682,7.201-11.689,16.172-20.722,26.921-27.097,10.742-6.376,23.079-9.564,37.015-9.564,12.513,0,22.669,3.011,30.462,9.033,7.793,6.021,11.689,13.875,11.689,23.554,0,7.561-2.657,13.228-7.97,17.002-5.314,3.78-11.634,5.667-18.951,5.667,2.596-4.013,4.545-7.909,5.845-11.689,1.294-3.774,1.948-8.501,1.948-14.168,0-8.501-2.48-14.815-7.438-18.95-4.959-4.129-10.864-6.199-17.71-6.199-9.209,0-17.063,1.832-23.555,5.49-6.497,3.664-11.987,8.678-16.47,15.055-4.489,6.375-8.092,13.814-10.804,22.314-2.717,8.502-4.903,17.533-6.553,27.097-1.655,9.564-2.894,19.427-3.719,29.576-.83,10.157-1.594,20.19-2.302,30.108-1.655,24.324-5.966,44.453-12.929,60.392-6.968,15.94-15.529,28.636-25.68,38.078-10.156,9.448-21.49,16.061-34.005,19.836-12.518,3.774-25.386,5.667-38.608,5.667-10.627,0-20.368-1.715-29.223-5.136-8.855-3.42-16.47-8.146-22.846-14.168-6.375-6.022-11.273-13.161-14.699-21.43-3.421-8.262-5.136-17.356-5.136-27.274,0-8.262,1.893-15.109,5.667-20.544,3.774-5.429,8.733-8.146,14.877-8.146Z"/><path class="cls-1" d="M86.26,387.009c-4.74.191-8.15,1.162-10.233,2.914-2.085,1.755-3.127,4.762-3.127,9.026v25.584h52.304v-25.584c0-4.264-1.043-7.271-3.127-9.026-2.085-1.752-5.449-2.723-10.091-2.914v-6.68h39.94v6.68c-4.645.191-8.009,1.162-10.092,2.914-2.085,1.755-3.127,4.762-3.127,9.026v61.969c0,4.264,1.066,7.274,3.199,9.026,2.131,1.755,5.472,2.725,10.02,2.914v6.538h-40.082v-6.538c4.453-.189,7.793-1.113,10.02-2.772,2.225-1.657,3.34-4.713,3.34-9.168v-28.284h-52.304v28.284c0,4.264,1.066,7.274,3.198,9.026,2.132,1.755,5.473,2.725,10.02,2.914v6.538h-39.939v-6.538c4.642-.189,8.006-1.159,10.091-2.914,2.083-1.752,3.127-4.762,3.127-9.026v-61.969c0-4.358-1.09-7.391-3.269-9.096-2.18-1.706-5.543-2.652-10.091-2.843v-6.68h40.223v6.68Z"/><path class="cls-1" d="M249.286,377.77c8.528,0,16.391,2.299,23.594,6.894,7.2,4.596,12.91,10.802,17.128,18.619,4.214,7.817,6.325,16.323,6.325,25.513,0,9.38-2.323,18.1-6.965,26.152-4.644,8.055-10.872,14.451-18.691,19.188-7.817,4.739-16.323,7.106-25.512,7.106-8.435,0-16.132-2.155-23.097-6.467-6.965-4.31-12.486-10.185-16.558-17.624-4.076-7.437-6.112-15.657-6.112-24.66,0-10.138,2.178-19.401,6.538-27.787,4.357-8.387,10.351-14.971,17.98-19.757,7.626-4.784,16.084-7.178,25.371-7.178ZM214.038,426.237c0,8.813,1.515,16.678,4.548,23.594,3.031,6.918,7.249,12.319,12.65,16.204,5.402,3.886,11.514,5.827,18.335,5.827,6.159,0,11.677-1.681,16.559-5.045,4.879-3.362,8.693-8.006,11.442-13.929,2.746-5.921,4.122-12.625,4.122-20.112,0-8.432-1.564-16.132-4.69-23.096-3.127-6.965-7.44-12.484-12.934-16.559-5.497-4.073-11.655-6.112-18.478-6.112-6.538.191-12.131,1.968-16.772,5.33-4.644,3.364-8.267,7.984-10.872,13.858-2.608,5.876-3.909,12.557-3.909,20.041Z"/><path class="cls-1" d="M376.352,377.628c4.549,0,8.6.521,12.153,1.563,3.553,1.044,6.301,2.085,8.244,3.127,1.941,1.044,3.148,1.801,3.624,2.274,2.651-2.368,4.69-4.642,6.112-6.823h5.686v24.447h-4.832c-9.192-11.275-19.095-16.913-29.706-16.913-5.781,0-10.471,1.422-14.071,4.264-3.602,2.842-5.401,6.396-5.401,10.66,0,4.17,2.037,7.723,6.112,10.659,4.073,2.938,9.901,5.686,17.483,8.244,6.727,2.465,12.529,4.999,17.411,7.604,4.879,2.607,9.096,6.112,12.65,10.517,3.553,4.406,5.33,9.737,5.33,15.991,0,5.592-1.47,10.518-4.406,14.782-2.938,4.264-7.06,7.582-12.366,9.949-5.308,2.368-11.42,3.554-18.335,3.554-9.572,0-17.958-2.747-25.158-8.244-1.989,2.274-3.933,4.928-5.827,7.959h-5.117l-1.137-29.279h5.543c4.264,7.486,9.048,12.983,14.356,16.487,5.305,3.507,11.417,5.259,18.334,5.259,6.254,0,11.323-1.657,15.209-4.975,3.884-3.315,5.827-7.579,5.827-12.792,0-4.072-1.233-7.532-3.696-10.376-2.465-2.842-5.379-5.116-8.741-6.822-3.364-1.706-7.654-3.505-12.864-5.402-5.781-2.083-10.897-4.31-15.349-6.68-4.456-2.367-8.387-5.565-11.797-9.594-3.412-4.026-5.117-8.93-5.117-14.71,0-4.832,1.255-9.119,3.767-12.863,2.509-3.743,6.016-6.656,10.517-8.742,4.5-2.083,9.688-3.126,15.564-3.126Z"/><path class="cls-1" d="M478.687,379.902h17.34c10.611,0,18.855.995,24.732,2.985,5.873,1.99,10.731,5.567,14.568,10.731,3.838,5.166,5.756,11.726,5.756,19.685,0,7.202-1.683,13.219-5.045,18.051-3.364,4.832-7.888,8.434-13.573,10.802-5.686,2.37-12.081,3.553-19.188,3.553h-14.071v15.208c0,4.36,1.16,7.391,3.482,9.096,2.321,1.706,5.945,2.655,10.873,2.843v6.538h-39.797v-6.538c4.168-.189,7.178-1.231,9.026-3.127,1.848-1.894,2.772-4.832,2.772-8.813v-62.112c0-4.169-.973-7.128-2.914-8.883-1.944-1.752-4.999-2.723-9.168-2.914v-6.68c1.231,0,3.434-.071,6.609-.213,3.173-.142,6.041-.213,8.6-.213ZM489.063,397.242v40.082h9.665c9.665,0,16.793-1.942,21.39-5.828,4.595-3.884,6.894-9.996,6.894-18.335,0-9.096-2.346-15.443-7.036-19.045-4.691-3.601-11.491-5.402-20.397-5.402h-1.278c-3.412.096-5.806.689-7.178,1.777-1.375,1.09-2.061,3.34-2.061,6.751Z"/><path class="cls-1" d="M634.037,387.009c-10.329.476-15.493,4.455-15.493,11.94v61.827c0,7.583,5.117,11.609,15.35,12.082v6.538h-43.919v-6.538c10.042-.474,15.066-4.453,15.066-11.94v-61.969c0-4.264-1.374-7.249-4.122-8.955-2.749-1.705-6.349-2.7-10.802-2.985v-6.68h43.919v6.68Z"/><path class="cls-1" d="M698.421,380.328h69.503c.757,0,1.752-.259,2.985-.782,1.231-.52,2.179-1.209,2.842-2.061h5.402l-3.98,21.035h-4.975c-.852-3.127-2.131-5.447-3.838-6.964-1.705-1.515-4.312-2.275-7.817-2.275h-15.919c-1.705,0-3.033.569-3.979,1.706-.948,1.137-1.422,2.7-1.422,4.69v65.096c0,4.36,1.088,7.391,3.269,9.097,2.179,1.705,5.447,2.653,9.807,2.842v6.68h-39.797v-6.68c4.642-.189,8.006-1.159,10.091-2.914,2.084-1.752,3.127-4.762,3.127-9.026v-63.959c0-3.031-.45-5.092-1.35-6.182-.902-1.088-2.583-1.635-5.045-1.635h-8.813c-6.634,0-11.466.735-14.497,2.203-3.034,1.47-5.45,3.862-7.249,7.178h-6.112l3.837-20.894h5.828c1.326,1.896,4.027,2.842,8.102,2.842Z"/><path class="cls-1" d="M882.34,450.542c1.99,5.593,3.625,9.737,4.904,12.436,1.279,2.701,2.818,4.858,4.619,6.467,1.798,1.612,4.214,2.749,7.249,3.412v6.538h-34.396v-6.538c2.936-.568,5.092-1.444,6.467-2.629,1.372-1.184,2.061-2.819,2.061-4.904,0-.946-.142-1.966-.426-3.055-.285-1.088-.853-2.866-1.705-5.33l-2.275-6.112h-41.36c-2.938,7.202-4.406,11.988-4.406,14.355,0,4.36,2.701,6.918,8.102,7.676v6.538h-29.279v-6.538c2.747-1.042,4.925-2.179,6.538-3.412,1.61-1.23,3.056-2.935,4.336-5.116,1.278-2.179,2.676-5.402,4.192-9.666l27.289-76.325h12.082l26.01,72.204ZM830.319,442.725h35.533l-17.767-49.036-17.767,49.036Z"/><path class="cls-1" d="M982.259,387.009c-5.401.191-9.287,1.186-11.655,2.985-2.37,1.801-3.553,4.786-3.553,8.955v62.396c0,3.507.853,6.04,2.559,7.604,1.705,1.563,4.406,2.345,8.101,2.345h20.042c5.685,0,10.163-.733,13.431-2.203,3.269-1.467,5.686-3.553,7.249-6.253,1.564-2.701,2.866-6.276,3.909-10.731h8.102l-4.406,27.289h-86.559v-6.538c4.926-.189,8.504-1.159,10.731-2.914,2.225-1.752,3.34-4.762,3.34-9.026v-61.969c0-4.358-1.09-7.391-3.269-9.096-2.181-1.706-5.638-2.652-10.376-2.843v-6.68h42.356v6.68Z"/><path class="cls-1" d="M1120.554,387.009c-10.329.476-15.493,4.455-15.493,11.94v61.827c0,7.583,5.117,11.609,15.35,12.082v6.538h-43.919v-6.538c10.042-.474,15.066-4.453,15.066-11.94v-61.969c0-4.264-1.374-7.249-4.122-8.955-2.749-1.705-6.349-2.7-10.802-2.985v-6.68h43.919v6.68Z"/><path class="cls-1" d="M1184.938,380.328h69.503c.757,0,1.752-.259,2.985-.782,1.231-.52,2.179-1.209,2.842-2.061h5.402l-3.98,21.035h-4.975c-.852-3.127-2.131-5.447-3.838-6.964-1.705-1.515-4.312-2.275-7.817-2.275h-15.919c-1.705,0-3.033.569-3.979,1.706-.948,1.137-1.422,2.7-1.422,4.69v65.096c0,4.36,1.088,7.391,3.269,9.097,2.179,1.705,5.447,2.653,9.807,2.842v6.68h-39.797v-6.68c4.642-.189,8.006-1.159,10.091-2.914,2.084-1.752,3.127-4.762,3.127-9.026v-63.959c0-3.031-.45-5.092-1.35-6.182-.902-1.088-2.583-1.635-5.045-1.635h-8.813c-6.634,0-11.466.735-14.497,2.203-3.034,1.47-5.45,3.862-7.249,7.178h-6.112l3.837-20.894h5.828c1.326,1.896,4.027,2.842,8.102,2.842Z"/><path class="cls-1" d="M1344.836,387.009c-3.507.285-5.995.877-7.463,1.777-1.47.902-2.202,2.298-2.202,4.192,0,1.706.757,3.887,2.274,6.539l20.183,36.102,19.046-32.833c2.463-4.264,3.696-7.532,3.696-9.807,0-3.031-2.701-5.021-8.102-5.969v-6.68h31.695v6.68c-4.171,1.612-7.462,3.507-9.878,5.686-2.416,2.181-4.999,5.734-7.746,10.659l-23.595,41.219v16.345c0,4.264,1.066,7.274,3.199,9.026,2.131,1.755,5.472,2.725,10.02,2.914v6.538h-39.797v-6.538c4.357-.189,7.626-1.159,9.807-2.914,2.179-1.752,3.268-4.762,3.268-9.026v-14.64l-25.868-45.909c-2.655-4.642-5.023-7.864-7.107-9.665-2.085-1.798-5.212-3.031-9.38-3.696v-6.68h37.95v6.68Z"/><path class="cls-1" d="M580.861,658.306l-4.919-9.492c-2.934,5.264-9.148,10.27-17.864,10.27-13.462,0-26.321-7.767-26.321-27.098,0-17.604,11.477-30.635,28.91-30.635,11.391,0,20.021,5.696,23.387,12.427l-7.249,6.3c-3.539-6.386-6.817-11.909-15.965-11.909-10.183,0-18.64,6.904-18.64,22.783,0,14.671,7.249,21.316,16.224,21.316,8.888,0,15.447-6.904,15.965-13.808,0-3.194-.259-5.523-.863-8.112h10.528v17.346c0,3.969.087,6.645.863,10.614h-4.056Z"/><path class="cls-1" d="M643.425,602.126c15.015,0,21.92,4.574,21.92,15.102,0,9.752-5.783,12.859-15.016,14.067v.518c10.011,3.538,13.031,12.599,13.462,22.005.087,1.467.432,3.107.95,4.401h-10.442c-.518-1.209-.691-2.416-.691-4.487,0-9.752-3.883-18.468-14.239-18.985h-3.452c-1.38,0-5.35.086-7.335.604v12.168c0,4.66,0,7.508.863,10.701h-11.391c.863-3.193.863-6.041.863-10.701v-34.692c0-4.66,0-7.507-.863-10.701h25.372ZM644.201,627.929c7.681,0,10.701-3.451,10.701-9.492,0-5.265-2.33-9.406-11.391-9.406h-7.68c-1.294,0-5.092.086-7.25.518v17.777c1.985.432,5.868.604,7.25.604h8.37Z"/><path class="cls-1" d="M725.407,601.35c17.777,0,28.305,11.046,28.305,28.564,0,18.382-11.65,29.082-29.341,29.082-17.518,0-28.737-10.442-28.737-28.046s11.391-29.6,29.773-29.6ZM724.544,652.179c14.153,0,18.813-10.27,18.813-22.351,0-11.823-4.574-21.661-18.036-21.661-13.117,0-19.331,9.148-19.331,22.61,0,11.65,4.832,21.402,18.554,21.402Z"/><path class="cls-1" d="M836.817,637.508c0,13.463-8.63,21.488-25.112,21.488-16.742,0-25.026-8.37-25.026-20.538v-25.631c0-4.66,0-7.507-.863-10.701h11.391c-.863,3.194-.863,6.128-.863,10.788v24.077c0,9.838,5.783,15.188,16.397,15.188,11.391,0,16.829-5.954,16.829-15.706v-23.559c0-4.66,0-7.594-.863-10.788h8.975c-.863,3.194-.863,6.041-.863,10.701v24.681Z"/><path class="cls-1" d="M897.655,602.126c15.015,0,21.833,6.904,21.833,17.518,0,12.255-11.995,16.656-22.264,16.656h-7.077c-1.38,0-5.092.086-6.99.604v10.615c0,4.66,0,7.508.863,10.701h-11.391c.863-3.193.863-6.041.863-10.701v-34.692c0-4.66,0-7.507-.863-10.701h25.026ZM898.346,629.396c7.68,0,10.701-4.314,10.701-10.096,0-5.006-2.33-10.27-11.391-10.27h-7.077c-1.294,0-5.178.086-7.421.518v19.244c1.985.432,5.868.604,7.335.604h7.853Z"/></svg>